Pinnacle-Regular Italic.ufo
<glyph name="exclam" format="1">
  <advance width="180"/>
  <unicode hex="0021"/>
  <outline>
    <contour>
      <point x="100" y="157" type="line"/>
      <point x="176" y="700" type="line"/>
      <point x="116" y="700" type="line"/>
      <point x="40" y="157" type="line"/>
    </contour>
    <contour>
      <point x="26" y="100"/>
      <point x="-3" y="74"/>
      <point x="-7" y="42" type="curve" smooth="yes"/>
      <point x="-12" y="7"/>
      <point x="12" y="-22"/>
      <point x="48" y="-22" type="curve" smooth="yes"/>
      <point x="79" y="-22"/>
      <point x="109" y="3"/>
      <point x="114" y="36" type="curve" smooth="yes"/>
      <point x="119" y="70"/>
      <point x="93" y="100"/>
      <point x="59" y="100" type="curve" smooth="yes"/>
    </contour>
  </outline>
</glyph>
<glyph name="quotedbl" format="1">
  <advance width="305"/>
  <unicode hex="0022"/>
  <outline>
    <contour>
      <point x="177" y="624" type="line"/>
      <point x="141" y="641" type="line"/>
      <point x="79" y="579" type="line"/>
      <point x="98" y="550" type="line"/>
    </contour>
    <contour>
      <point x="170" y="611"/>
      <point x="195" y="632"/>
      <point x="198" y="658" type="curve" smooth="yes"/>
      <point x="202" y="687"/>
      <point x="181" y="711"/>
      <point x="152" y="711" type="curve" smooth="yes"/>
      <point x="126" y="711"/>
      <point x="103" y="691"/>
      <point x="99" y="664" type="curve" smooth="yes"/>
      <point x="95" y="636"/>
      <point x="115" y="611"/>
      <point x="145" y="611" type="curve" smooth="yes"/>
    </contour>
    <contour>
      <point x="294" y="624" type="line"/>
      <point x="258" y="641" type="line"/>
      <point x="196" y="579" type="line"/>
      <point x="215" y="550" type="line"/>
    </contour>
    <contour>
      <point x="287" y="611"/>
      <point x="312" y="632"/>
      <point x="315" y="658" type="curve" smooth="yes"/>
      <point x="319" y="687"/>
      <point x="298" y="711"/>
      <point x="269" y="711" type="curve" smooth="yes"/>
      <point x="243" y="711"/>
      <point x="220" y="691"/>
      <point x="216" y="664" type="curve" smooth="yes"/>
      <point x="212" y="636"/>
      <point x="232" y="611"/>
      <point x="262" y="611" type="curve" smooth="yes"/>
    </contour>
  </outline>
</glyph>
<glyph name="numbersign" format="1">
  <advance width="541"/>
  <unicode hex="0023"/>
  <outline>
    <contour>
      <point x="24" y="-50" type="line"/>
      <point x="86" y="-50" type="line"/>
      <point x="318" y="750" type="line"/>
      <point x="256" y="750" type="line"/>
    </contour>
    <contour>
      <point x="213" y="-50" type="line"/>
      <point x="275" y="-50" type="line"/>
      <point x="507" y="750" type="line"/>
      <point x="445" y="750" type="line"/>
    </contour>
    <contour>
      <point x="82" y="460" type="line"/>
      <point x="526" y="460" type="line"/>
      <point x="542" y="520" type="line"/>
      <point x="99" y="520" type="line"/>
    </contour>
    <contour>
      <point x="12" y="171" type="line"/>
      <point x="455" y="171" type="line"/>
      <point x="472" y="231" type="line"/>
      <point x="28" y="231" type="line"/>
    </contour>
  </outline>
</glyph>
<glyph name="dollar" format="1">
  <advance width="648"/>
  <unicode hex="0024"/>
  <outline>
    <contour>
      <point x="378" y="50" type="line" smooth="yes"/>
      <point x="470" y="50"/>
      <point x="553" y="123"/>
      <point x="566" y="216" type="curve" smooth="yes"/>
      <point x="579" y="309"/>
      <point x="513" y="386"/>
      <point x="421" y="386" type="curve" smooth="yes"/>
      <point x="243" y="386" type="line" smooth="yes"/>
      <point x="186" y="386"/>
      <point x="148" y="430"/>
      <point x="156" y="486" type="curve" smooth="yes"/>
      <point x="164" y="544"/>
      <point x="219" y="592"/>
      <point x="276" y="592" type="curve" smooth="yes"/>
      <point x="559" y="592" type="line"/>
      <point x="567" y="652" type="line"/>
      <point x="281" y="652" type="line" smooth="yes"/>
      <point x="191" y="652"/>
      <point x="109" y="581"/>
      <point x="97" y="492" type="curve" smooth="yes"/>
      <point x="84" y="401"/>
      <point x="148" y="326"/>
      <point x="238" y="326" type="curve" smooth="yes"/>
      <point x="416" y="326" type="line" smooth="yes"/>
      <point x="475" y="326"/>
      <point x="515" y="280"/>
      <point x="507" y="222" type="curve" smooth="yes"/>
      <point x="498" y="160"/>
      <point x="442" y="110"/>
      <point x="383" y="110" type="curve" smooth="yes"/>
      <point x="85" y="110" type="line"/>
      <point x="77" y="50" type="line"/>
    </contour>
    <contour>
      <point x="318" y="-26" type="line"/>
      <point x="333" y="81" type="line"/>
      <point x="273" y="81" type="line"/>
      <point x="258" y="-26" type="line"/>
    </contour>
    <contour>
      <point x="409" y="619" type="line"/>
      <point x="424" y="729" type="line"/>
      <point x="364" y="729" type="line"/>
      <point x="349" y="619" type="line"/>
    </contour>
  </outline>
</glyph>
<glyph name="percent" format="1">
  <advance width="722"/>
  <unicode hex="0025"/>
  <outline>
    <contour>
      <point x="699" y="654" type="line"/>
      <point x="656" y="693" type="line"/>
      <point x="24" y="45" type="line"/>
      <point x="66" y="7" type="line"/>
    </contour>
    <contour>
      <point x="251" y="361"/>
      <point x="317" y="418"/>
      <point x="327" y="489" type="curve" smooth="yes"/>
      <point x="336" y="559" type="line" smooth="yes"/>
      <point x="346" y="630"/>
      <point x="294" y="691"/>
      <point x="222" y="691" type="curve" smooth="yes"/>
      <point x="152" y="691"/>
      <point x="87" y="634"/>
      <point x="77" y="563" type="curve" smooth="yes"/>
      <point x="67" y="493" type="line" smooth="yes"/>
      <point x="57" y="422"/>
      <point x="109" y="361"/>
      <point x="182" y="361" type="curve" smooth="yes"/>
    </contour>
    <contour>
      <point x="147" y="421"/>
      <point x="121" y="451"/>
      <point x="127" y="489" type="curve" smooth="yes"/>
      <point x="136" y="559" type="line" smooth="yes"/>
      <point x="142" y="597"/>
      <point x="180" y="631"/>
      <point x="220" y="631" type="curve" smooth="yes"/>
      <point x="256" y="631"/>
      <point x="282" y="601"/>
      <point x="277" y="563" type="curve" smooth="yes"/>
      <point x="267" y="493" type="line" smooth="yes"/>
      <point x="262" y="455"/>
      <point x="223" y="421"/>
      <point x="184" y="421" type="curve" smooth="yes"/>
    </contour>
    <contour>
      <point x="584" y="11"/>
      <point x="649" y="68"/>
      <point x="659" y="139" type="curve" smooth="yes"/>
      <point x="669" y="209" type="line" smooth="yes"/>
      <point x="679" y="280"/>
      <point x="627" y="341"/>
      <point x="554" y="341" type="curve" smooth="yes"/>
      <point x="485" y="341"/>
      <point x="420" y="284"/>
      <point x="410" y="213" type="curve" smooth="yes"/>
      <point x="400" y="143" type="line" smooth="yes"/>
      <point x="390" y="72"/>
      <point x="442" y="11"/>
      <point x="515" y="11" type="curve" smooth="yes"/>
    </contour>
    <contour>
      <point x="480" y="71"/>
      <point x="454" y="101"/>
      <point x="459" y="139" type="curve" smooth="yes"/>
      <point x="469" y="209" type="line" smooth="yes"/>
      <point x="475" y="247"/>
      <point x="513" y="281"/>
      <point x="553" y="281" type="curve" smooth="yes"/>
      <point x="589" y="281"/>
      <point x="615" y="251"/>
      <point x="610" y="213" type="curve" smooth="yes"/>
      <point x="600" y="143" type="line" smooth="yes"/>
      <point x="595" y="105"/>
      <point x="556" y="71"/>
      <point x="516" y="71" type="curve" smooth="yes"/>
    </contour>
  </outline>
</glyph>
<glyph name="ampersand" format="1">
  <advance width="747"/>
  <unicode hex="0026"/>
  <outline>
    <contour>
      <point x="664" y="0" type="line"/>
      <point x="252" y="479" type="line" smooth="yes"/>
      <point x="222" y="516"/>
      <point x="216" y="539"/>
      <point x="221" y="578" type="curve" smooth="yes"/>
      <point x="232" y="653"/>
      <point x="305" y="717"/>
      <point x="383" y="717" type="curve" smooth="yes"/>
      <point x="420" y="717"/>
      <point x="450" y="704"/>
      <point x="472" y="678" type="curve"/>
      <point x="519" y="718" type="line"/>
      <point x="488" y="755"/>
      <point x="441" y="777"/>
      <point x="385" y="777" type="curve" smooth="yes"/>
      <point x="277" y="777"/>
      <point x="177" y="690"/>
      <point x="162" y="584" type="curve" smooth="yes"/>
      <point x="154" y="527"/>
      <point x="167" y="486"/>
      <point x="207" y="439" type="curve" smooth="yes"/>
      <point x="580" y="0" type="line"/>
    </contour>
    <contour>
      <point x="317" y="-9"/>
      <point x="386" y="17"/>
      <point x="442" y="66" type="curve" smooth="yes"/>
      <point x="652" y="252" type="line"/>
      <point x="615" y="294" type="line"/>
      <point x="404" y="110" type="line" smooth="yes"/>
      <point x="361" y="72"/>
      <point x="307" y="51"/>
      <point x="252" y="51" type="curve" smooth="yes"/>
      <point x="143" y="51"/>
      <point x="67" y="139"/>
      <point x="83" y="247" type="curve" smooth="yes"/>
      <point x="90" y="301"/>
      <point x="119" y="352"/>
      <point x="162" y="391" type="curve" smooth="yes"/>
      <point x="234" y="458" type="line"/>
      <point x="196" y="500" type="line"/>
      <point x="122" y="435" type="line" smooth="yes"/>
      <point x="68" y="386"/>
      <point x="33" y="320"/>
      <point x="23" y="253" type="curve" smooth="yes"/>
      <point x="3" y="109"/>
      <point x="105" y="-9"/>
      <point x="250" y="-9" type="curve" smooth="yes"/>
    </contour>
  </outline>
</glyph>
<glyph name="parenleft" format="1">
  <advance width="316"/>
  <unicode hex="0028"/>
  <outline>
    <contour>
      <point x="221" y="-84" type="line"/>
      <point x="123" y="30"/>
      <point x="83" y="180"/>
      <point x="105" y="338" type="curve" smooth="yes"/>
      <point x="128" y="498"/>
      <point x="212" y="649"/>
      <point x="342" y="764" type="curve"/>
      <point x="303" y="808" type="line"/>
      <point x="167" y="688"/>
      <point x="72" y="525"/>
      <point x="46" y="344" type="curve" smooth="yes"/>
      <point x="21" y="162"/>
      <point x="72" y="-4"/>
      <point x="175" y="-124" type="curve"/>
    </contour>
  </outline>
</glyph>
<glyph name="parenright" format="1">
  <advance width="316"/>
  <unicode hex="0029"/>
  <outline>
    <contour>
      <point x="160" y="-6"/>
      <point x="256" y="158"/>
      <point x="281" y="338" type="curve" smooth="yes"/>
      <point x="307" y="521"/>
      <point x="255" y="686"/>
      <point x="153" y="806" type="curve"/>
      <point x="106" y="766" type="line"/>
      <point x="205" y="651"/>
      <point x="244" y="502"/>
      <point x="222" y="344" type="curve" smooth="yes"/>
      <point x="200" y="184"/>
      <point x="115" y="32"/>
      <point x="-15" y="-82" type="curve"/>
      <point x="25" y="-126" type="line"/>
    </contour>
  </outline>
</glyph>
<glyph name="asterisk" format="1">
  <advance width="405"/>
  <unicode hex="002A"/>
  <outline>
    <contour>
      <point x="354" y="463" type="line"/>
      <point x="395" y="511" type="line"/>
      <point x="271" y="611" type="line"/>
      <point x="229" y="563" type="line"/>
    </contour>
    <contour>
      <point x="221" y="577" type="line"/>
      <point x="280" y="595" type="line"/>
      <point x="250" y="757" type="line"/>
      <point x="191" y="738" type="line"/>
    </contour>
    <contour>
      <point x="76" y="557" type="line"/>
      <point x="246" y="557" type="line"/>
      <point x="255" y="617" type="line"/>
      <point x="85" y="617" type="line"/>
    </contour>
    <contour>
      <point x="266" y="562" type="line"/>
      <point x="416" y="662" type="line"/>
      <point x="387" y="710" type="line"/>
      <point x="236" y="610" type="line"/>
    </contour>
    <contour>
      <point x="203" y="416" type="line"/>
      <point x="278" y="578" type="line"/>
      <point x="222" y="596" type="line"/>
      <point x="148" y="435" type="line"/>
    </contour>
  </outline>
</glyph>
<glyph name="plus" format="1">
  <advance width="520"/>
  <unicode hex="002B"/>
  <outline>
    <contour>
      <point x="212" y="170" type="line"/>
      <point x="272" y="170" type="line"/>
      <point x="322" y="530" type="line"/>
      <point x="262" y="530" type="line"/>
    </contour>
    <contour>
      <point x="91" y="380" type="line"/>
      <point x="83" y="320" type="line"/>
      <point x="443" y="320" type="line"/>
      <point x="451" y="380" type="line"/>
    </contour>
  </outline>
</glyph>
<glyph name="comma" format="1">
  <advance width="180"/>
  <unicode hex="002C"/>
  <outline>
    <contour>
      <point x="81" y="2" type="line"/>
      <point x="46" y="19" type="line"/>
      <point x="-16" y="-43" type="line"/>
      <point x="3" y="-72" type="line"/>
    </contour>
    <contour>
      <point x="75" y="-11"/>
      <point x="99" y="10"/>
      <point x="103" y="36" type="curve" smooth="yes"/>
      <point x="107" y="65"/>
      <point x="86" y="89"/>
      <point x="57" y="89" type="curve" smooth="yes"/>
      <point x="31" y="89"/>
      <point x="7" y="69"/>
      <point x="4" y="42" type="curve" smooth="yes"/>
      <point x="0" y="14"/>
      <point x="20" y="-11"/>
      <point x="50" y="-11" type="curve" smooth="yes"/>
    </contour>
    <contour>
      <point x="38" y="-1" type="move" name="_accent"/>
    </contour>
  </outline>
</glyph>
<glyph name="hyphen" format="1">
  <advance width="480"/>
  <unicode hex="002D"/>
  <outline>
    <contour>
      <point x="91" y="380" type="line"/>
      <point x="83" y="320" type="line"/>
      <point x="403" y="320" type="line"/>
      <point x="411" y="380" type="line"/>
    </contour>
  </outline>
</glyph>
<glyph name="slash" format="1">
  <advance width="354"/>
  <unicode hex="002F"/>
  <outline>
    <contour>
      <point x="423" y="841" type="line"/>
      <point x="367" y="856" type="line"/>
      <point x="-15" y="-75" type="line"/>
      <point x="42" y="-90" type="line"/>
    </contour>
  </outline>
</glyph>
<glyph name="zero" format="1">
  <advance width="733"/>
  <unicode hex="0030"/>
  <outline>
    <contour>
      <point x="472" y="-10"/>
      <point x="606" y="107"/>
      <point x="627" y="254" type="curve" smooth="yes"/>
      <point x="653" y="442" type="line" smooth="yes"/>
      <point x="674" y="589"/>
      <point x="571" y="710"/>
      <point x="421" y="710" type="curve" smooth="yes"/>
      <point x="275" y="710"/>
      <point x="141" y="593"/>
      <point x="120" y="446" type="curve" smooth="yes"/>
      <point x="94" y="258" type="line" smooth="yes"/>
      <point x="73" y="111"/>
      <point x="177" y="-10"/>
      <point x="327" y="-10" type="curve" smooth="yes"/>
    </contour>
    <contour>
      <point x="215" y="50"/>
      <point x="138" y="140"/>
      <point x="154" y="254" type="curve" smooth="yes"/>
      <point x="180" y="442" type="line" smooth="yes"/>
      <point x="196" y="556"/>
      <point x="303" y="650"/>
      <point x="420" y="650" type="curve" smooth="yes"/>
      <point x="533" y="650"/>
      <point x="609" y="560"/>
      <point x="594" y="447" type="curve" smooth="yes"/>
      <point x="567" y="258" type="line" smooth="yes"/>
      <point x="551" y="144"/>
      <point x="444" y="50"/>
      <point x="329" y="50" type="curve" smooth="yes"/>
    </contour>
  </outline>
</glyph>
<glyph name="one" format="1">
  <advance width="368"/>
  <unicode hex="0031"/>
  <outline>
    <contour>
      <point x="264" y="700" type="line"/>
      <point x="166" y="0" type="line"/>
      <point x="226" y="0" type="line"/>
      <point x="324" y="700" type="line"/>
    </contour>
    <contour>
      <point x="175" y="700" type="line"/>
      <point x="147" y="640" type="line"/>
      <point x="287" y="640" type="line"/>
      <point x="295" y="700" type="line"/>
    </contour>
  </outline>
</glyph>
<glyph name="two" format="1">
  <advance width="784"/>
  <unicode hex="0032"/>
  <outline>
    <contour>
      <point x="639" y="0" type="line"/>
      <point x="647" y="60" type="line"/>
      <point x="215" y="60" type="line" smooth="yes"/>
      <point x="161" y="60"/>
      <point x="131" y="91"/>
      <point x="137" y="139" type="curve" smooth="yes"/>
      <point x="145" y="191"/>
      <point x="186" y="231"/>
      <point x="238" y="238" type="curve" smooth="yes"/>
      <point x="507" y="274" type="line" smooth="yes"/>
      <point x="614" y="289"/>
      <point x="693" y="364"/>
      <point x="707" y="464" type="curve" smooth="yes"/>
      <point x="727" y="605"/>
      <point x="646" y="700"/>
      <point x="506" y="700" type="curve" smooth="yes"/>
      <point x="196" y="700" type="line"/>
      <point x="188" y="640" type="line"/>
      <point x="500" y="640" type="line" smooth="yes"/>
      <point x="604" y="640"/>
      <point x="662" y="573"/>
      <point x="648" y="470" type="curve" smooth="yes"/>
      <point x="638" y="398"/>
      <point x="580" y="342"/>
      <point x="506" y="332" type="curve" smooth="yes"/>
      <point x="237" y="296" type="line" smooth="yes"/>
      <point x="152" y="284"/>
      <point x="89" y="224"/>
      <point x="78" y="145" type="curve" smooth="yes"/>
      <point x="66" y="59"/>
      <point x="120" y="0"/>
      <point x="210" y="0" type="curve" smooth="yes"/>
    </contour>
  </outline>
</glyph>
<glyph name="three" format="1">
  <advance width="714"/>
  <unicode hex="0033"/>
  <outline>
    <contour>
      <point x="384" y="0" type="line" smooth="yes"/>
      <point x="489" y="0"/>
      <point x="584" y="83"/>
      <point x="598" y="187" type="curve" smooth="yes"/>
      <point x="611" y="279"/>
      <point x="567" y="353"/>
      <point x="485" y="374" type="curve"/>
      <point x="490" y="346" type="line"/>
      <point x="550" y="379"/>
      <point x="594" y="439"/>
      <point x="603" y="507" type="curve" smooth="yes"/>
      <point x="618" y="613"/>
      <point x="544" y="700"/>
      <point x="439" y="700" type="curve" smooth="yes"/>
      <point x="156" y="700" type="line"/>
      <point x="148" y="640" type="line"/>
      <point x="433" y="640" type="line" smooth="yes"/>
      <point x="505" y="640"/>
      <point x="554" y="584"/>
      <point x="544" y="513" type="curve" smooth="yes"/>
      <point x="534" y="440"/>
      <point x="466" y="380"/>
      <point x="394" y="380" type="curve" smooth="yes"/>
      <point x="171" y="380" type="line"/>
      <point x="163" y="320" type="line"/>
      <point x="428" y="320" type="line" smooth="yes"/>
      <point x="500" y="320"/>
      <point x="549" y="264"/>
      <point x="539" y="193" type="curve" smooth="yes"/>
      <point x="529" y="120"/>
      <point x="461" y="60"/>
      <point x="389" y="60" type="curve" smooth="yes"/>
      <point x="66" y="60" type="line"/>
      <point x="58" y="0" type="line"/>
    </contour>
  </outline>
</glyph>
<glyph name="four" format="1">
  <advance width="715"/>
  <unicode hex="0034"/>
  <outline>
    <contour>
      <point x="574" y="194" type="line"/>
      <point x="583" y="254" type="line"/>
      <point x="220" y="254" type="line" smooth="yes"/>
      <point x="179" y="254"/>
      <point x="156" y="281"/>
      <point x="161" y="316" type="curve" smooth="yes"/>
      <point x="163" y="325"/>
      <point x="165" y="334"/>
      <point x="170" y="342" type="curve" smooth="yes"/>
      <point x="340" y="700" type="line"/>
      <point x="283" y="718" type="line"/>
      <point x="117" y="371" type="line" smooth="yes"/>
      <point x="109" y="354"/>
      <point x="105" y="338"/>
      <point x="103" y="324" type="curve" smooth="yes"/>
      <point x="93" y="252"/>
      <point x="141" y="194"/>
      <point x="221" y="194" type="curve" smooth="yes"/>
    </contour>
    <contour>
      <point x="573" y="0" type="line"/>
      <point x="657" y="600" type="line"/>
      <point x="597" y="600" type="line"/>
      <point x="513" y="0" type="line"/>
    </contour>
  </outline>
</glyph>
<glyph name="five" format="1">
  <advance width="775"/>
  <unicode hex="0035"/>
  <outline>
    <contour>
      <point x="449" y="0" type="line" smooth="yes"/>
      <point x="552" y="0"/>
      <point x="644" y="81"/>
      <point x="659" y="183" type="curve" smooth="yes"/>
      <point x="673" y="286"/>
      <point x="600" y="371"/>
      <point x="497" y="371" type="curve" smooth="yes"/>
      <point x="268" y="371" type="line" smooth="yes"/>
      <point x="197" y="371"/>
      <point x="174" y="399"/>
      <point x="184" y="469" type="curve" smooth="yes"/>
      <point x="211" y="664" type="line"/>
      <point x="182" y="639" type="line"/>
      <point x="683" y="640" type="line"/>
      <point x="691" y="700" type="line"/>
      <point x="214" y="699" type="line" smooth="yes"/>
      <point x="175" y="699"/>
      <point x="153" y="680"/>
      <point x="148" y="641" type="curve" smooth="yes"/>
      <point x="124" y="473" type="line" smooth="yes"/>
      <point x="110" y="369"/>
      <point x="159" y="311"/>
      <point x="263" y="311" type="curve" smooth="yes"/>
      <point x="492" y="311" type="line" smooth="yes"/>
      <point x="562" y="311"/>
      <point x="609" y="257"/>
      <point x="599" y="189" type="curve" smooth="yes"/>
      <point x="589" y="118"/>
      <point x="524" y="60"/>
      <point x="454" y="60" type="curve" smooth="yes"/>
      <point x="93" y="60" type="line"/>
      <point x="85" y="0" type="line"/>
    </contour>
  </outline>
</glyph>
<glyph name="six" format="1">
  <advance width="754"/>
  <unicode hex="0036"/>
  <outline>
    <contour>
      <point x="465" y="331" type="line" smooth="yes"/>
      <point x="539" y="331"/>
      <point x="590" y="272"/>
      <point x="580" y="198" type="curve" smooth="yes"/>
      <point x="568" y="112"/>
      <point x="509" y="60"/>
      <point x="424" y="60" type="curve" smooth="yes"/>
      <point x="280" y="60" type="line" smooth="yes"/>
      <point x="195" y="60"/>
      <point x="136" y="128"/>
      <point x="148" y="213" type="curve" smooth="yes"/>
      <point x="186" y="483" type="line" smooth="yes"/>
      <point x="198" y="568"/>
      <point x="279" y="640"/>
      <point x="364" y="640" type="curve" smooth="yes"/>
      <point x="633" y="640" type="line"/>
      <point x="641" y="700" type="line"/>
      <point x="370" y="700" type="line" smooth="yes"/>
      <point x="252" y="700"/>
      <point x="143" y="605"/>
      <point x="126" y="487" type="curve" smooth="yes"/>
      <point x="88" y="217" type="line" smooth="yes"/>
      <point x="72" y="99"/>
      <point x="157" y="0"/>
      <point x="275" y="0" type="curve" smooth="yes"/>
      <point x="419" y="0" type="line" smooth="yes"/>
      <point x="537" y="0"/>
      <point x="622" y="75"/>
      <point x="639" y="192" type="curve" smooth="yes"/>
      <point x="654" y="301"/>
      <point x="577" y="391"/>
      <point x="470" y="391" type="curve" smooth="yes"/>
      <point x="149" y="391" type="line"/>
      <point x="140" y="331" type="line"/>
    </contour>
  </outline>
</glyph>
<glyph name="seven" format="1">
  <advance width="709"/>
  <unicode hex="0037"/>
  <outline>
    <contour>
      <point x="633" y="523" type="line" smooth="yes"/>
      <point x="641" y="540"/>
      <point x="645" y="556"/>
      <point x="647" y="570" type="curve" smooth="yes"/>
      <point x="657" y="642"/>
      <point x="610" y="700"/>
      <point x="530" y="700" type="curve" smooth="yes"/>
      <point x="156" y="700" type="line"/>
      <point x="148" y="640" type="line"/>
      <point x="530" y="640" type="line" smooth="yes"/>
      <point x="571" y="640"/>
      <point x="594" y="613"/>
      <point x="589" y="578" type="curve" smooth="yes"/>
      <point x="588" y="569"/>
      <point x="585" y="560"/>
      <point x="581" y="552" type="curve" smooth="yes"/>
      <point x="319" y="0" type="line"/>
      <point x="383" y="0" type="line"/>
    </contour>
  </outline>
</glyph>
<glyph name="eight" format="1">
  <advance width="717"/>
  <unicode hex="0038"/>
  <outline>
    <contour>
      <point x="387" y="0" type="line" smooth="yes"/>
      <point x="492" y="0"/>
      <point x="587" y="83"/>
      <point x="601" y="187" type="curve" smooth="yes"/>
      <point x="613" y="274"/>
      <point x="575" y="344"/>
      <point x="501" y="369" type="curve"/>
      <point x="504" y="341" type="line"/>
      <point x="568" y="373"/>
      <point x="616" y="435"/>
      <point x="626" y="507" type="curve" smooth="yes"/>
      <point x="641" y="613"/>
      <point x="567" y="700"/>
      <point x="462" y="700" type="curve" smooth="yes"/>
      <point x="365" y="700" type="line" smooth="yes"/>
      <point x="260" y="700"/>
      <point x="165" y="617"/>
      <point x="150" y="513" type="curve" smooth="yes"/>
      <point x="139" y="439"/>
      <point x="173" y="375"/>
      <point x="228" y="343" type="curve"/>
      <point x="232" y="371" type="line"/>
      <point x="152" y="346"/>
      <point x="97" y="278"/>
      <point x="85" y="193" type="curve" smooth="yes"/>
      <point x="70" y="87"/>
      <point x="145" y="0"/>
      <point x="250" y="0" type="curve" smooth="yes"/>
    </contour>
    <contour>
      <point x="183" y="60"/>
      <point x="134" y="116"/>
      <point x="144" y="187" type="curve" smooth="yes"/>
      <point x="154" y="260"/>
      <point x="222" y="320"/>
      <point x="294" y="320" type="curve" smooth="yes"/>
      <point x="431" y="320" type="line" smooth="yes"/>
      <point x="503" y="320"/>
      <point x="552" y="264"/>
      <point x="542" y="193" type="curve" smooth="yes"/>
      <point x="532" y="120"/>
      <point x="464" y="60"/>
      <point x="392" y="60" type="curve" smooth="yes"/>
      <point x="255" y="60" type="line" smooth="yes"/>
    </contour>
    <contour>
      <point x="248" y="380"/>
      <point x="199" y="436"/>
      <point x="209" y="507" type="curve" smooth="yes"/>
      <point x="219" y="580"/>
      <point x="287" y="640"/>
      <point x="359" y="640" type="curve" smooth="yes"/>
      <point x="456" y="640" type="line" smooth="yes"/>
      <point x="528" y="640"/>
      <point x="577" y="584"/>
      <point x="567" y="513" type="curve" smooth="yes"/>
      <point x="557" y="440"/>
      <point x="489" y="380"/>
      <point x="417" y="380" type="curve" smooth="yes"/>
      <point x="320" y="380" type="line" smooth="yes"/>
    </contour>
  </outline>
</glyph>
<glyph name="nine" format="1">
  <advance width="754"/>
  <unicode hex="0039"/>
  <outline>
    <contour>
      <point x="399" y="0" type="line" smooth="yes"/>
      <point x="517" y="0"/>
      <point x="625" y="95"/>
      <point x="642" y="213" type="curve" smooth="yes"/>
      <point x="680" y="483" type="line" smooth="yes"/>
      <point x="696" y="601"/>
      <point x="612" y="700"/>
      <point x="494" y="700" type="curve" smooth="yes"/>
      <point x="350" y="700" type="line" smooth="yes"/>
      <point x="232" y="700"/>
      <point x="146" y="625"/>
      <point x="129" y="508" type="curve" smooth="yes"/>
      <point x="114" y="399"/>
      <point x="191" y="309"/>
      <point x="298" y="309" type="curve" smooth="yes"/>
      <point x="619" y="309" type="line"/>
      <point x="628" y="369" type="line"/>
      <point x="303" y="369" type="line" smooth="yes"/>
      <point x="229" y="369"/>
      <point x="178" y="428"/>
      <point x="188" y="502" type="curve" smooth="yes"/>
      <point x="201" y="588"/>
      <point x="259" y="640"/>
      <point x="344" y="640" type="curve" smooth="yes"/>
      <point x="488" y="640" type="line" smooth="yes"/>
      <point x="573" y="640"/>
      <point x="632" y="572"/>
      <point x="620" y="487" type="curve" smooth="yes"/>
      <point x="582" y="217" type="line" smooth="yes"/>
      <point x="570" y="132"/>
      <point x="489" y="60"/>
      <point x="404" y="60" type="curve" smooth="yes"/>
      <point x="135" y="60" type="line"/>
      <point x="127" y="0" type="line"/>
    </contour>
  </outline>
</glyph>
<glyph name="colon" format="1">
  <advance width="180"/>
  <unicode hex="003A"/>
  <outline>
    <contour>
      <point x="88" y="84"/>
      <point x="113" y="105"/>
      <point x="116" y="131" type="curve" smooth="yes"/>
      <point x="120" y="160"/>
      <point x="99" y="184"/>
      <point x="70" y="184" type="curve" smooth="yes"/>
      <point x="44" y="184"/>
      <point x="21" y="164"/>
      <point x="17" y="137" type="curve" smooth="yes"/>
      <point x="13" y="109"/>
      <point x="33" y="84"/>
      <point x="63" y="84" type="curve" smooth="yes"/>
    </contour>
    <contour>
      <point x="131" y="386"/>
      <point x="155" y="407"/>
      <point x="159" y="433" type="curve" smooth="yes"/>
      <point x="163" y="462"/>
      <point x="141" y="486"/>
      <point x="113" y="486" type="curve" smooth="yes"/>
      <point x="86" y="486"/>
      <point x="63" y="466"/>
      <point x="60" y="439" type="curve" smooth="yes"/>
      <point x="56" y="411"/>
      <point x="76" y="386"/>
      <point x="105" y="386" type="curve" smooth="yes"/>
    </contour>
  </outline>
</glyph>
<glyph name="semicolon" format="1">
  <advance width="188"/>
  <unicode hex="003B"/>
  <outline>
    <contour>
      <point x="89" y="2" type="line"/>
      <point x="54" y="19" type="line"/>
      <point x="-8" y="-43" type="line"/>
      <point x="11" y="-72" type="line"/>
    </contour>
    <contour>
      <point x="83" y="-11"/>
      <point x="107" y="10"/>
      <point x="111" y="36" type="curve" smooth="yes"/>
      <point x="115" y="65"/>
      <point x="94" y="89"/>
      <point x="65" y="89" type="curve" smooth="yes"/>
      <point x="39" y="89"/>
      <point x="15" y="69"/>
      <point x="12" y="42" type="curve" smooth="yes"/>
      <point x="8" y="14"/>
      <point x="28" y="-11"/>
      <point x="58" y="-11" type="curve" smooth="yes"/>
    </contour>
    <contour>
      <point x="125" y="291"/>
      <point x="150" y="312"/>
      <point x="153" y="338" type="curve" smooth="yes"/>
      <point x="157" y="367"/>
      <point x="136" y="391"/>
      <point x="107" y="391" type="curve" smooth="yes"/>
      <point x="81" y="391"/>
      <point x="58" y="371"/>
      <point x="54" y="344" type="curve" smooth="yes"/>
      <point x="50" y="316"/>
      <point x="70" y="291"/>
      <point x="100" y="291" type="curve" smooth="yes"/>
    </contour>
  </outline>
</glyph>
<glyph name="less" format="1">
  <advance width="435"/>
  <unicode hex="003C"/>
  <outline>
    <contour>
      <point x="347" y="239" type="line"/>
      <point x="164" y="353" type="line"/>
      <point x="378" y="467" type="line"/>
      <point x="355" y="518" type="line"/>
      <point x="123" y="395" type="line" smooth="yes"/>
      <point x="101" y="383"/>
      <point x="90" y="370"/>
      <point x="88" y="356" type="curve" smooth="yes"/>
      <point x="86" y="341"/>
      <point x="96" y="325"/>
      <point x="114" y="313" type="curve" smooth="yes"/>
      <point x="310" y="188" type="line"/>
    </contour>
  </outline>
</glyph>
<glyph name="equal" format="1">
  <advance width="490"/>
  <unicode hex="003D"/>
  <outline>
    <contour>
      <point x="100" y="440" type="line"/>
      <point x="91" y="380" type="line"/>
      <point x="421" y="380" type="line"/>
      <point x="430" y="440" type="line"/>
    </contour>
    <contour>
      <point x="83" y="320" type="line"/>
      <point x="74" y="260" type="line"/>
      <point x="404" y="260" type="line"/>
      <point x="413" y="320" type="line"/>
    </contour>
  </outline>
</glyph>
<glyph name="greater" format="1">
  <advance width="435"/>
  <unicode hex="003E"/>
  <outline>
    <contour>
      <point x="327" y="311" type="line" smooth="yes"/>
      <point x="349" y="323"/>
      <point x="360" y="337"/>
      <point x="362" y="350" type="curve" smooth="yes"/>
      <point x="364" y="366"/>
      <point x="354" y="381"/>
      <point x="336" y="393" type="curve" smooth="yes"/>
      <point x="140" y="518" type="line"/>
      <point x="103" y="467" type="line"/>
      <point x="285" y="353" type="line"/>
      <point x="72" y="239" type="line"/>
      <point x="95" y="188" type="line"/>
    </contour>
  </outline>
</glyph>
<glyph name="question" format="1">
  <advance width="378"/>
  <unicode hex="003F"/>
  <outline>
    <contour>
      <point x="183" y="156" type="line"/>
      <point x="194" y="234"/>
      <point x="217" y="264"/>
      <point x="300" y="343" type="curve" smooth="yes"/>
      <point x="374" y="417"/>
      <point x="401" y="464"/>
      <point x="411" y="532" type="curve" smooth="yes"/>
      <point x="427" y="646"/>
      <point x="346" y="741"/>
      <point x="232" y="741" type="curve" smooth="yes"/>
      <point x="161" y="741"/>
      <point x="93" y="704"/>
      <point x="48" y="648" type="curve"/>
      <point x="96" y="613" type="line"/>
      <point x="127" y="653"/>
      <point x="177" y="681"/>
      <point x="230" y="681" type="curve" smooth="yes"/>
      <point x="308" y="681"/>
      <point x="363" y="617"/>
      <point x="351" y="538" type="curve" smooth="yes"/>
      <point x="344" y="487"/>
      <point x="318" y="446"/>
      <point x="253" y="384" type="curve" smooth="yes"/>
      <point x="161" y="290"/>
      <point x="137" y="255"/>
      <point x="123" y="160" type="curve"/>
    </contour>
    <contour>
      <point x="109" y="100"/>
      <point x="80" y="74"/>
      <point x="76" y="42" type="curve" smooth="yes"/>
      <point x="71" y="7"/>
      <point x="95" y="-22"/>
      <point x="131" y="-22" type="curve" smooth="yes"/>
      <point x="162" y="-22"/>
      <point x="192" y="3"/>
      <point x="197" y="36" type="curve" smooth="yes"/>
      <point x="202" y="70"/>
      <point x="176" y="100"/>
      <point x="142" y="100" type="curve" smooth="yes"/>
    </contour>
  </outline>
</glyph>
<glyph name="at" format="1">
  <advance width="1040"/>
  <unicode hex="0040"/>
  <outline>
    <contour>
      <point x="634" y="490" type="line" smooth="yes"/>
      <point x="626" y="535"/>
      <point x="592" y="560"/>
      <point x="553" y="560" type="curve" smooth="yes"/>
      <point x="519" y="560"/>
      <point x="480" y="539"/>
      <point x="459" y="494" type="curve" smooth="yes"/>
      <point x="275" y="101" type="line"/>
      <point x="331" y="81" type="line"/>
      <point x="516" y="478" type="line" smooth="yes"/>
      <point x="523" y="494"/>
      <point x="538" y="503"/>
      <point x="553" y="503" type="curve" smooth="yes"/>
      <point x="564" y="503"/>
      <point x="575" y="498"/>
      <point x="578" y="482" type="curve" smooth="yes"/>
      <point x="648" y="102" type="line"/>
      <point x="710" y="102" type="line"/>
    </contour>
    <contour>
      <point x="861" y="102"/>
      <point x="965" y="193"/>
      <point x="981" y="307" type="curve" smooth="yes"/>
      <point x="1017" y="562"/>
      <point x="838" y="770"/>
      <point x="583" y="770" type="curve" smooth="yes"/>
      <point x="330" y="770"/>
      <point x="97" y="566"/>
      <point x="62" y="313" type="curve" smooth="yes"/>
      <point x="26" y="58"/>
      <point x="205" y="-149"/>
      <point x="460" y="-150" type="curve" smooth="yes"/>
      <point x="585" y="-150"/>
      <point x="707" y="-99"/>
      <point x="802" y="-16" type="curve"/>
      <point x="763" y="28" type="line"/>
      <point x="680" y="-45"/>
      <point x="574" y="-90"/>
      <point x="462" y="-90" type="curve" smooth="yes"/>
      <point x="242" y="-90"/>
      <point x="90" y="87"/>
      <point x="121" y="307" type="curve" smooth="yes"/>
      <point x="152" y="529"/>
      <point x="358" y="710"/>
      <point x="581" y="710" type="curve" smooth="yes"/>
      <point x="800" y="710"/>
      <point x="953" y="533"/>
      <point x="922" y="313" type="curve" smooth="yes"/>
      <point x="910" y="230"/>
      <point x="833" y="162"/>
      <point x="751" y="162" type="curve" smooth="yes"/>
      <point x="656" y="162" type="line"/>
      <point x="647" y="102" type="line"/>
      <point x="746" y="102" type="line" smooth="yes"/>
    </contour>
  </outline>
</glyph>
<glyph name="A" format="1">
  <advance width="756"/>
  <unicode hex="0041"/>
  <outline>
    <contour>
      <point x="154" y="238" type="line"/>
      <point x="147" y="185" type="line"/>
      <point x="578" y="185" type="line"/>
      <point x="585" y="238" type="line"/>
    </contour>
    <contour>
      <point x="555" y="630" type="line"/>
      <point x="544" y="687"/>
      <point x="497" y="725"/>
      <point x="434" y="725" type="curve"/>
      <point x="375" y="725"/>
      <point x="319" y="691"/>
      <point x="291" y="634" type="curve"/>
      <point x="-3" y="0" type="line"/>
      <point x="62" y="0" type="line"/>
      <point x="346" y="610" type="line"/>
      <point x="362" y="641"/>
      <point x="398" y="665"/>
      <point x="433" y="665" type="curve"/>
      <point x="464" y="665"/>
      <point x="491" y="645"/>
      <point x="499" y="614" type="curve"/>
      <point x="611" y="0" type="line"/>
      <point x="673" y="0" type="line"/>
    </contour>
    <contour>
      <point x="312" y="-167" type="move" name="below"/>
    </contour>
    <contour>
      <point x="458" y="869" type="move" name="accent"/>
    </contour>
    <contour>
      <point x="487" y="1079" type="move" name="above"/>
    </contour>
    <contour>
      <point x="613" y="8" type="move" name="bottom"/>
    </contour>
  </outline>
</glyph>
<glyph name="B" format="1">
  <advance width="794"/>
  <unicode hex="0042"/>
  <outline>
    <contour>
      <point x="195" y="700" type="line" smooth="yes"/>
      <point x="156" y="700"/>
      <point x="134" y="681"/>
      <point x="128" y="642" type="curve" smooth="yes"/>
      <point x="47" y="62" type="line" smooth="yes"/>
      <point x="46" y="57"/>
      <point x="46" y="53"/>
      <point x="46" y="49" type="curve" smooth="yes"/>
      <point x="46" y="18"/>
      <point x="66" y="0"/>
      <point x="100" y="0" type="curve" smooth="yes"/>
      <point x="484" y="0" type="line" smooth="yes"/>
      <point x="598" y="0"/>
      <point x="700" y="96"/>
      <point x="700" y="218" type="curve" smooth="yes"/>
      <point x="700" y="295"/>
      <point x="657" y="355"/>
      <point x="585" y="374" type="curve"/>
      <point x="590" y="346" type="line"/>
      <point x="658" y="383"/>
      <point x="705" y="455"/>
      <point x="705" y="534" type="curve" smooth="yes"/>
      <point x="705" y="627"/>
      <point x="635" y="700"/>
      <point x="539" y="700" type="curve" smooth="yes"/>
    </contour>
    <contour>
      <point x="594" y="320"/>
      <point x="640" y="273"/>
      <point x="640" y="211" type="curve" smooth="yes"/>
      <point x="640" y="130"/>
      <point x="567" y="60"/>
      <point x="489" y="60" type="curve" smooth="yes"/>
      <point x="106" y="60" type="line"/>
      <point x="143" y="320" type="line"/>
      <point x="528" y="320" type="line" smooth="yes"/>
    </contour>
    <contour>
      <point x="599" y="640"/>
      <point x="645" y="593"/>
      <point x="645" y="531" type="curve" smooth="yes"/>
      <point x="645" y="450"/>
      <point x="572" y="380"/>
      <point x="494" y="380" type="curve" smooth="yes"/>
      <point x="151" y="380" type="line"/>
      <point x="188" y="640" type="line"/>
      <point x="533" y="640" type="line" smooth="yes"/>
    </contour>
  </outline>
</glyph>
<glyph name="C" format="1">
  <advance width="840"/>
  <unicode hex="0043"/>
  <outline>
    <contour>
      <point x="623" y="92"/>
      <point x="503" y="35"/>
      <point x="394" y="35" type="curve" smooth="yes"/>
      <point x="190" y="35"/>
      <point x="106" y="201"/>
      <point x="127" y="347" type="curve" smooth="yes"/>
      <point x="147" y="491"/>
      <point x="283" y="665"/>
      <point x="490" y="665" type="curve" smooth="yes"/>
      <point x="617" y="665"/>
      <point x="702" y="595"/>
      <point x="738" y="509" type="curve"/>
      <point x="793" y="537" type="line"/>
      <point x="743" y="649"/>
      <point x="632" y="725"/>
      <point x="491" y="725" type="curve" smooth="yes"/>
      <point x="286" y="725"/>
      <point x="96" y="559"/>
      <point x="67" y="353" type="curve" smooth="yes"/>
      <point x="38" y="145"/>
      <point x="184" y="-25"/>
      <point x="393" y="-25" type="curve" smooth="yes"/>
      <point x="530" y="-25"/>
      <point x="661" y="49"/>
      <point x="741" y="161" type="curve"/>
      <point x="692" y="193" type="line"/>
    </contour>
    <contour>
      <point x="391" y="-16" type="move" name="bottom"/>
    </contour>
    <contour>
      <point x="515" y="869" type="move" name="accent"/>
    </contour>
  </outline>
</glyph>
<glyph name="D" format="1">
  <advance width="800"/>
  <unicode hex="0044"/>
  <outline>
    <contour>
      <point x="350" y="0" type="line" smooth="yes"/>
      <point x="544" y="0"/>
      <point x="720" y="156"/>
      <point x="747" y="347" type="curve" smooth="yes"/>
      <point x="774" y="540"/>
      <point x="639" y="700"/>
      <point x="445" y="700" type="curve" smooth="yes"/>
      <point x="195" y="700" type="line" smooth="yes"/>
      <point x="156" y="700"/>
      <point x="134" y="681"/>
      <point x="128" y="642" type="curve" smooth="yes"/>
      <point x="47" y="62" type="line" smooth="yes"/>
      <point x="41" y="23"/>
      <point x="61" y="0"/>
      <point x="100" y="0" type="curve" smooth="yes"/>
    </contour>
    <contour>
      <point x="188" y="640" type="line"/>
      <point x="439" y="640" type="line" smooth="yes"/>
      <point x="600" y="640"/>
      <point x="710" y="511"/>
      <point x="687" y="353" type="curve" smooth="yes"/>
      <point x="665" y="193"/>
      <point x="516" y="60"/>
      <point x="355" y="60" type="curve" smooth="yes"/>
      <point x="106" y="60" type="line"/>
    </contour>
    <contour>
      <point x="118" y="360" type="move" name="bar"/>
    </contour>
    <contour>
      <point x="118" y="360" type="move" name="stroke"/>
    </contour>
    <contour>
      <point x="456" y="869" type="move" name="accent"/>
    </contour>
  </outline>
</glyph>
<glyph name="F" format="1">
  <advance width="685"/>
  <unicode hex="0046"/>
  <outline>
    <contour>
      <point x="195" y="700" type="line" smooth="yes"/>
      <point x="156" y="700"/>
      <point x="134" y="681"/>
      <point x="128" y="642" type="curve" smooth="yes"/>
      <point x="38" y="0" type="line"/>
      <point x="98" y="0" type="line"/>
      <point x="188" y="640" type="line"/>
      <point x="653" y="640" type="line"/>
      <point x="661" y="700" type="line"/>
    </contour>
    <contour>
      <point x="121" y="380" type="line"/>
      <point x="113" y="320" type="line"/>
      <point x="446" y="320" type="line"/>
      <point x="454" y="380" type="line"/>
    </contour>
  </outline>
</glyph>
<glyph name="G" format="1">
  <advance width="834"/>
  <unicode hex="0047"/>
  <outline>
    <contour>
      <point x="288" y="725"/>
      <point x="96" y="557"/>
      <point x="67" y="353" type="curve" smooth="yes"/>
      <point x="38" y="147"/>
      <point x="186" y="-25"/>
      <point x="393" y="-25" type="curve" smooth="yes"/>
      <point x="511" y="-25"/>
      <point x="624" y="31"/>
      <point x="707" y="118" type="curve" smooth="yes"/>
      <point x="728" y="143"/>
      <point x="735" y="163"/>
      <point x="739" y="193" type="curve" smooth="yes"/>
      <point x="757" y="318" type="line" smooth="yes"/>
      <point x="762" y="357"/>
      <point x="743" y="380"/>
      <point x="704" y="380" type="curve" smooth="yes"/>
      <point x="448" y="380" type="line"/>
      <point x="440" y="320" type="line"/>
      <point x="697" y="320" type="line"/>
      <point x="675" y="173" type="line"/>
      <point x="605" y="89"/>
      <point x="503" y="35"/>
      <point x="394" y="35" type="curve" smooth="yes"/>
      <point x="224" y="35"/>
      <point x="103" y="176"/>
      <point x="127" y="347" type="curve" smooth="yes"/>
      <point x="151" y="520"/>
      <point x="316" y="665"/>
      <point x="490" y="665" type="curve" smooth="yes"/>
      <point x="575" y="665"/>
      <point x="649" y="631"/>
      <point x="697" y="573" type="curve"/>
      <point x="743" y="613" type="line"/>
      <point x="685" y="682"/>
      <point x="597" y="725"/>
      <point x="491" y="725" type="curve" smooth="yes"/>
    </contour>
    <contour>
      <point x="517" y="869" type="move" name="accent"/>
    </contour>
  </outline>
</glyph>
<glyph name="H" format="1">
  <advance width="745"/>
  <unicode hex="0048"/>
  <outline>
    <contour>
      <point x="661" y="700" type="line"/>
      <point x="563" y="0" type="line"/>
      <point x="623" y="0" type="line"/>
      <point x="721" y="700" type="line"/>
    </contour>
    <contour>
      <point x="136" y="700" type="line"/>
      <point x="38" y="0" type="line"/>
      <point x="98" y="0" type="line"/>
      <point x="196" y="700" type="line"/>
    </contour>
    <contour>
      <point x="121" y="380" type="line"/>
      <point x="113" y="320" type="line"/>
      <point x="641" y="320" type="line"/>
      <point x="649" y="380" type="line"/>
    </contour>
    <contour>
      <point x="408" y="542" type="move" name="bar"/>
    </contour>
  </outline>
</glyph>
<glyph name="J" format="1">
  <advance width="595"/>
  <unicode hex="004A"/>
  <outline>
    <contour>
      <point x="511" y="700" type="line"/>
      <point x="458" y="322" type="line"/>
      <point x="435" y="161"/>
      <point x="321" y="60"/>
      <point x="160" y="60" type="curve"/>
      <point x="6" y="60" type="line"/>
      <point x="-2" y="0" type="line"/>
      <point x="155" y="0" type="line"/>
      <point x="349" y="0"/>
      <point x="490" y="124"/>
      <point x="518" y="318" type="curve"/>
      <point x="571" y="700" type="line"/>
    </contour>
  </outline>
</glyph>
<glyph name="K" format="1">
  <advance width="683"/>
  <unicode hex="004B"/>
  <outline>
    <contour>
      <point x="580" y="0" type="line"/>
      <point x="270" y="308" type="line" smooth="yes"/>
      <point x="259" y="320"/>
      <point x="255" y="334"/>
      <point x="257" y="347" type="curve" smooth="yes"/>
      <point x="259" y="363"/>
      <point x="269" y="378"/>
      <point x="285" y="390" type="curve" smooth="yes"/>
      <point x="680" y="700" type="line"/>
      <point x="587" y="700" type="line"/>
      <point x="249" y="438" type="line" smooth="yes"/>
      <point x="219" y="414"/>
      <point x="202" y="384"/>
      <point x="197" y="353" type="curve" smooth="yes"/>
      <point x="193" y="321"/>
      <point x="204" y="288"/>
      <point x="227" y="264" type="curve" smooth="yes"/>
      <point x="489" y="0" type="line"/>
    </contour>
    <contour>
      <point x="98" y="0" type="line"/>
      <point x="196" y="700" type="line"/>
      <point x="136" y="700" type="line"/>
      <point x="38" y="0" type="line"/>
    </contour>
    <contour>
      <point x="419" y="869" type="move" name="accent"/>
    </contour>
  </outline>
</glyph>
<glyph name="L" format="1">
  <advance width="655"/>
  <unicode hex="004C"/>
  <outline>
    <contour>
      <point x="136" y="700" type="line"/>
      <point x="47" y="62" type="line" smooth="yes"/>
      <point x="41" y="23"/>
      <point x="61" y="0"/>
      <point x="100" y="0" type="curve" smooth="yes"/>
      <point x="573" y="0" type="line"/>
      <point x="581" y="60" type="line"/>
      <point x="106" y="60" type="line"/>
      <point x="196" y="700" type="line"/>
    </contour>
    <contour>
      <point x="118" y="350" type="move" name="slash"/>
    </contour>
    <contour>
      <point x="193" y="869" type="move" name="accent"/>
    </contour>
  </outline>
</glyph>
<glyph name="N" format="1">
  <advance width="817"/>
  <unicode hex="004E"/>
  <outline>
    <contour>
      <point x="231" y="723"/>
      <point x="134" y="688"/>
      <point x="119" y="580" type="curve" smooth="yes"/>
      <point x="38" y="0" type="line"/>
      <point x="98" y="0" type="line"/>
      <point x="179" y="576" type="line" smooth="yes"/>
      <point x="186" y="625"/>
      <point x="230" y="663"/>
      <point x="281" y="663" type="curve" smooth="yes"/>
      <point x="317" y="663"/>
      <point x="344" y="642"/>
      <point x="351" y="603" type="curve"/>
      <point x="423" y="86" type="line" smooth="yes"/>
      <point x="432" y="19"/>
      <point x="484" y="-22"/>
      <point x="549" y="-22" type="curve" smooth="yes"/>
      <point x="628" y="-22"/>
      <point x="700" y="37"/>
      <point x="712" y="121" type="curve" smooth="yes"/>
      <point x="793" y="701" type="line"/>
      <point x="733" y="701" type="line"/>
      <point x="652" y="125" type="line" smooth="yes"/>
      <point x="646" y="77"/>
      <point x="606" y="38"/>
      <point x="551" y="38" type="curve" smooth="yes"/>
      <point x="517" y="38"/>
      <point x="487" y="58"/>
      <point x="481" y="98" type="curve" smooth="yes"/>
      <point x="408" y="615" type="line" smooth="yes"/>
      <point x="400" y="682"/>
      <point x="348" y="723"/>
      <point x="282" y="723" type="curve" smooth="yes"/>
    </contour>
    <contour>
      <point x="489" y="869" type="move" name="accent"/>
    </contour>
  </outline>
</glyph>
<glyph name="O" format="1">
  <advance width="863"/>
  <unicode hex="004F"/>
  <outline>
    <contour>
      <point x="284" y="725"/>
      <point x="96" y="559"/>
      <point x="67" y="353" type="curve" smooth="yes"/>
      <point x="38" y="145"/>
      <point x="182" y="-25"/>
      <point x="389" y="-25" type="curve" smooth="yes"/>
      <point x="593" y="-25"/>
      <point x="781" y="141"/>
      <point x="810" y="347" type="curve" smooth="yes"/>
      <point x="839" y="555"/>
      <point x="695" y="725"/>
      <point x="487" y="725" type="curve" smooth="yes"/>
    </contour>
    <contour>
      <point x="658" y="665"/>
      <point x="776" y="526"/>
      <point x="751" y="353" type="curve" smooth="yes"/>
      <point x="727" y="178"/>
      <point x="566" y="35"/>
      <point x="390" y="35" type="curve" smooth="yes"/>
      <point x="219" y="35"/>
      <point x="101" y="174"/>
      <point x="126" y="347" type="curve" smooth="yes"/>
      <point x="150" y="522"/>
      <point x="311" y="665"/>
      <point x="486" y="665" type="curve" smooth="yes"/>
    </contour>
    <contour>
      <point x="365" y="-167" type="move" name="below"/>
    </contour>
    <contour>
      <point x="511" y="869" type="move" name="accent"/>
    </contour>
    <contour>
      <point x="541" y="1079" type="move" name="above"/>
    </contour>
    <contour>
      <point x="438" y="350" type="move" name="slash"/>
    </contour>
    <contour>
      <point x="362" y="-17" type="move" name="bottom"/>
    </contour>
  </outline>
</glyph>
<glyph name="P" format="1">
  <advance width="735"/>
  <unicode hex="0050"/>
  <outline>
    <contour>
      <point x="194" y="699" type="line" smooth="yes"/>
      <point x="155" y="699"/>
      <point x="133" y="680"/>
      <point x="128" y="641" type="curve" smooth="yes"/>
      <point x="38" y="-1" type="line"/>
      <point x="98" y="-1" type="line"/>
      <point x="188" y="639" type="line"/>
      <point x="549" y="639" type="line" smooth="yes"/>
      <point x="613" y="639"/>
      <point x="656" y="590"/>
      <point x="647" y="527" type="curve" smooth="yes"/>
      <point x="638" y="463"/>
      <point x="578" y="409"/>
      <point x="514" y="409" type="curve" smooth="yes"/>
      <point x="126" y="409" type="line"/>
      <point x="118" y="349" type="line"/>
      <point x="509" y="349" type="line" smooth="yes"/>
      <point x="606" y="349"/>
      <point x="693" y="426"/>
      <point x="706" y="521" type="curve" smooth="yes"/>
      <point x="720" y="619"/>
      <point x="651" y="699"/>
      <point x="554" y="699" type="curve" smooth="yes"/>
    </contour>
  </outline>
</glyph>
<glyph name="Q" format="1">
  <advance width="863"/>
  <unicode hex="0051"/>
  <outline>
    <contour>
      <point x="440" y="252" type="line"/>
      <point x="680" y="-26" type="line"/>
      <point x="727" y="16" type="line"/>
      <point x="487" y="294" type="line"/>
    </contour>
    <contour>
      <point x="284" y="725"/>
      <point x="96" y="559"/>
      <point x="67" y="353" type="curve" smooth="yes"/>
      <point x="38" y="145"/>
      <point x="182" y="-25"/>
      <point x="389" y="-25" type="curve" smooth="yes"/>
      <point x="593" y="-25"/>
      <point x="781" y="141"/>
      <point x="810" y="347" type="curve" smooth="yes"/>
      <point x="839" y="555"/>
      <point x="695" y="725"/>
      <point x="487" y="725" type="curve" smooth="yes"/>
    </contour>
    <contour>
      <point x="658" y="665"/>
      <point x="776" y="526"/>
      <point x="751" y="353" type="curve" smooth="yes"/>
      <point x="727" y="178"/>
      <point x="566" y="35"/>
      <point x="390" y="35" type="curve" smooth="yes"/>
      <point x="219" y="35"/>
      <point x="101" y="174"/>
      <point x="126" y="347" type="curve" smooth="yes"/>
      <point x="150" y="522"/>
      <point x="311" y="665"/>
      <point x="486" y="665" type="curve" smooth="yes"/>
    </contour>
    <contour>
      <point x="438" y="350" type="move" name="slash"/>
    </contour>
    <contour>
      <point x="362" y="-17" type="move" name="bottom"/>
    </contour>
    <contour>
      <point x="511" y="869" type="move" name="accent"/>
    </contour>
  </outline>
</glyph>
<glyph name="R" format="1">
  <advance width="754"/>
  <unicode hex="0052"/>
  <outline>
    <contour>
      <point x="98" y="-1" type="line"/>
      <point x="188" y="639" type="line"/>
      <point x="542" y="639" type="line" smooth="yes"/>
      <point x="606" y="639"/>
      <point x="649" y="590"/>
      <point x="640" y="527" type="curve" smooth="yes"/>
      <point x="631" y="463"/>
      <point x="571" y="409"/>
      <point x="507" y="409" type="curve" smooth="yes"/>
      <point x="397" y="409" type="line" smooth="yes"/>
      <point x="339" y="409"/>
      <point x="299" y="371"/>
      <point x="293" y="327" type="curve" smooth="yes"/>
      <point x="289" y="302"/>
      <point x="298" y="275"/>
      <point x="318" y="254" type="curve" smooth="yes"/>
      <point x="562" y="0" type="line"/>
      <point x="651" y="0" type="line"/>
      <point x="361" y="297" type="line" smooth="yes"/>
      <point x="353" y="305"/>
      <point x="353" y="311"/>
      <point x="354" y="321" type="curve" smooth="yes"/>
      <point x="356" y="336"/>
      <point x="372" y="349"/>
      <point x="392" y="349" type="curve" smooth="yes"/>
      <point x="502" y="349" type="line" smooth="yes"/>
      <point x="599" y="349"/>
      <point x="686" y="426"/>
      <point x="699" y="521" type="curve" smooth="yes"/>
      <point x="713" y="619"/>
      <point x="644" y="699"/>
      <point x="547" y="699" type="curve" smooth="yes"/>
      <point x="194" y="699" type="line" smooth="yes"/>
      <point x="155" y="699"/>
      <point x="133" y="680"/>
      <point x="128" y="641" type="curve" smooth="yes"/>
      <point x="38" y="-1" type="line"/>
    </contour>
    <contour>
      <point x="439" y="869" type="move" name="accent"/>
    </contour>
  </outline>
</glyph>
<glyph name="S" format="1">
  <advance width="748"/>
  <unicode hex="0053"/>
  <outline>
    <contour>
      <point x="325" y="700" type="line" smooth="yes"/>
      <point x="220" y="700"/>
      <point x="125" y="617"/>
      <point x="110" y="513" type="curve" smooth="yes"/>
      <point x="95" y="407"/>
      <point x="169" y="320"/>
      <point x="274" y="320" type="curve" smooth="yes"/>
      <point x="502" y="320" type="line" smooth="yes"/>
      <point x="574" y="320"/>
      <point x="623" y="264"/>
      <point x="613" y="193" type="curve" smooth="yes"/>
      <point x="603" y="120"/>
      <point x="535" y="60"/>
      <point x="463" y="60" type="curve" smooth="yes"/>
      <point x="60" y="60" type="line"/>
      <point x="52" y="0" type="line"/>
      <point x="458" y="0" type="line" smooth="yes"/>
      <point x="563" y="0"/>
      <point x="658" y="83"/>
      <point x="672" y="187" type="curve" smooth="yes"/>
      <point x="687" y="293"/>
      <point x="613" y="380"/>
      <point x="508" y="380" type="curve" smooth="yes"/>
      <point x="280" y="380" type="line" smooth="yes"/>
      <point x="208" y="380"/>
      <point x="159" y="436"/>
      <point x="169" y="507" type="curve" smooth="yes"/>
      <point x="179" y="580"/>
      <point x="247" y="640"/>
      <point x="319" y="640" type="curve" smooth="yes"/>
      <point x="696" y="640" type="line"/>
      <point x="704" y="700" type="line"/>
    </contour>
    <contour>
      <point x="343" y="8" type="move" name="bottom"/>
    </contour>
    <contour>
      <point x="464" y="869" type="move" name="accent"/>
    </contour>
  </outline>
</glyph>
<glyph name="U" format="1">
  <advance width="745"/>
  <unicode hex="0055"/>
  <outline>
    <contour>
      <point x="661" y="700" type="line"/>
      <point x="601" y="269" type="line" smooth="yes"/>
      <point x="583" y="141"/>
      <point x="462" y="35"/>
      <point x="332" y="35" type="curve" smooth="yes"/>
      <point x="205" y="35"/>
      <point x="117" y="137"/>
      <point x="135" y="265" type="curve" smooth="yes"/>
      <point x="196" y="700" type="line"/>
      <point x="136" y="700" type="line"/>
      <point x="76" y="269" type="line" smooth="yes"/>
      <point x="53" y="108"/>
      <point x="167" y="-25"/>
      <point x="331" y="-25" type="curve" smooth="yes"/>
      <point x="490" y="-25"/>
      <point x="637" y="104"/>
      <point x="660" y="265" type="curve" smooth="yes"/>
      <point x="721" y="700" type="line"/>
    </contour>
    <contour>
      <point x="307" y="-167" type="move" name="below"/>
    </contour>
    <contour>
      <point x="453" y="869" type="move" name="accent"/>
    </contour>
    <contour>
      <point x="482" y="1079" type="move" name="above"/>
    </contour>
    <contour>
      <point x="304" y="-17" type="move" name="bottom"/>
    </contour>
  </outline>
</glyph>
<glyph name="V" format="1">
  <advance width="756"/>
  <unicode hex="0056"/>
  <outline>
    <contour>
      <point x="709" y="700" type="line"/>
      <point x="423" y="90" type="line"/>
      <point x="407" y="59"/>
      <point x="372" y="35"/>
      <point x="337" y="35" type="curve" smooth="yes"/>
      <point x="306" y="35"/>
      <point x="278" y="55"/>
      <point x="270" y="86" type="curve"/>
      <point x="160" y="700" type="line"/>
      <point x="97" y="700" type="line"/>
      <point x="214" y="70" type="line" smooth="yes"/>
      <point x="225" y="13"/>
      <point x="273" y="-25"/>
      <point x="336" y="-25" type="curve" smooth="yes"/>
      <point x="395" y="-25"/>
      <point x="450" y="9"/>
      <point x="478" y="66" type="curve" smooth="yes"/>
      <point x="773" y="700" type="line"/>
    </contour>
  </outline>
</glyph>
<glyph name="W" format="1">
  <advance width="961"/>
  <unicode hex="0057"/>
  <outline>
    <contour>
      <point x="136" y="700" type="line"/>
      <point x="65" y="191" type="line"/>
      <point x="48" y="72"/>
      <point x="133" y="-26"/>
      <point x="253" y="-26" type="curve"/>
      <point x="370" y="-26"/>
      <point x="478" y="68"/>
      <point x="495" y="187" type="curve"/>
      <point x="567" y="700" type="line"/>
      <point x="507" y="700" type="line"/>
      <point x="436" y="191" type="line"/>
      <point x="424" y="105"/>
      <point x="342" y="34"/>
      <point x="254" y="34" type="curve"/>
      <point x="170" y="34"/>
      <point x="112" y="101"/>
      <point x="124" y="187" type="curve"/>
      <point x="196" y="700" type="line"/>
    </contour>
    <contour>
      <point x="436" y="191" type="line"/>
      <point x="419" y="72"/>
      <point x="503" y="-26"/>
      <point x="624" y="-26" type="curve"/>
      <point x="741" y="-26"/>
      <point x="848" y="68"/>
      <point x="865" y="187" type="curve"/>
      <point x="937" y="700" type="line"/>
      <point x="877" y="700" type="line"/>
      <point x="806" y="191" type="line"/>
      <point x="794" y="105"/>
      <point x="713" y="34"/>
      <point x="625" y="34" type="curve"/>
      <point x="541" y="34"/>
      <point x="483" y="101"/>
      <point x="495" y="187" type="curve"/>
    </contour>
    <contour>
      <point x="561" y="869" type="move" name="accent"/>
    </contour>
  </outline>
</glyph>
<glyph name="X" format="1">
  <advance width="760"/>
  <unicode hex="0058"/>
  <outline>
    <contour>
      <point x="189" y="645"/>
      <point x="203" y="595"/>
      <point x="232" y="565" type="curve"/>
      <point x="593" y="181" type="line"/>
      <point x="631" y="140"/>
      <point x="648" y="72"/>
      <point x="638" y="0" type="curve"/>
      <point x="578" y="0" type="line"/>
      <point x="585" y="55"/>
      <point x="571" y="105"/>
      <point x="543" y="135" type="curve"/>
      <point x="181" y="519" type="line"/>
      <point x="143" y="560"/>
      <point x="126" y="628"/>
      <point x="136" y="700" type="curve"/>
      <point x="196" y="700" type="line"/>
    </contour>
    <contour>
      <point x="727" y="632"/>
      <point x="688" y="562"/>
      <point x="638" y="521" type="curve"/>
      <point x="168" y="137" type="line"/>
      <point x="132" y="107"/>
      <point x="106" y="59"/>
      <point x="98" y="0" type="curve"/>
      <point x="38" y="0" type="line"/>
      <point x="47" y="68"/>
      <point x="86" y="138"/>
      <point x="136" y="179" type="curve"/>
      <point x="606" y="563" type="line"/>
      <point x="642" y="593"/>
      <point x="668" y="641"/>
      <point x="676" y="700" type="curve"/>
      <point x="736" y="700" type="line"/>
    </contour>
  </outline>
</glyph>
<glyph name="Y" format="1">
  <advance width="764"/>
  <unicode hex="0059"/>
  <outline>
    <contour>
      <point x="680" y="700" type="line"/>
      <point x="623" y="294" type="line" smooth="yes"/>
      <point x="605" y="166"/>
      <point x="485" y="60"/>
      <point x="357" y="60" type="curve" smooth="yes"/>
      <point x="48" y="60" type="line"/>
      <point x="40" y="0" type="line"/>
      <point x="352" y="0" type="line" smooth="yes"/>
      <point x="513" y="0"/>
      <point x="660" y="129"/>
      <point x="683" y="290" type="curve" smooth="yes"/>
      <point x="740" y="700" type="line"/>
    </contour>
    <contour>
      <point x="136" y="700" type="line"/>
      <point x="122" y="602" type="line" smooth="yes"/>
      <point x="101" y="450"/>
      <point x="164" y="344"/>
      <point x="300" y="298" type="curve" smooth="yes"/>
      <point x="607" y="192" type="line"/>
      <point x="634" y="249" type="line"/>
      <point x="324" y="353" type="line" smooth="yes"/>
      <point x="210" y="391"/>
      <point x="164" y="471"/>
      <point x="182" y="598" type="curve" smooth="yes"/>
      <point x="196" y="700" type="line"/>
    </contour>
    <contour>
      <point x="488" y="1049" type="move" name="above"/>
    </contour>
    <contour>
      <point x="463" y="869" type="move" name="accent"/>
    </contour>
  </outline>
</glyph>
<glyph name="Z" format="1">
  <advance width="790"/>
  <unicode hex="005A"/>
  <outline>
    <contour>
      <point x="151" y="700" type="line"/>
      <point x="143" y="640" type="line"/>
      <point x="687" y="640" type="line" smooth="yes"/>
      <point x="707" y="640"/>
      <point x="716" y="626"/>
      <point x="714" y="611" type="curve" smooth="yes"/>
      <point x="712" y="601"/>
      <point x="706" y="591"/>
      <point x="696" y="584" type="curve" smooth="yes"/>
      <point x="76" y="166" type="line" smooth="yes"/>
      <point x="49" y="147"/>
      <point x="35" y="121"/>
      <point x="31" y="96" type="curve" smooth="yes"/>
      <point x="25" y="48"/>
      <point x="55" y="0"/>
      <point x="111" y="0" type="curve" smooth="yes"/>
      <point x="685" y="0" type="line"/>
      <point x="693" y="60" type="line"/>
      <point x="116" y="60" type="line" smooth="yes"/>
      <point x="97" y="60"/>
      <point x="88" y="74"/>
      <point x="90" y="89" type="curve" smooth="yes"/>
      <point x="92" y="99"/>
      <point x="98" y="110"/>
      <point x="108" y="116" type="curve" smooth="yes"/>
      <point x="728" y="534" type="line" smooth="yes"/>
      <point x="755" y="553"/>
      <point x="769" y="579"/>
      <point x="773" y="604" type="curve" smooth="yes"/>
      <point x="780" y="652"/>
      <point x="749" y="700"/>
      <point x="693" y="700" type="curve" smooth="yes"/>
    </contour>
    <contour>
      <point x="492" y="869" type="move" name="accent"/>
    </contour>
  </outline>
</glyph>
<glyph name="bracketleft" format="1">
  <advance width="310"/>
  <unicode hex="005B"/>
  <outline>
    <contour>
      <point x="220" y="-59" type="line"/>
      <point x="50" y="-59" type="line"/>
      <point x="154" y="681" type="line"/>
      <point x="324" y="681" type="line"/>
      <point x="332" y="741" type="line"/>
      <point x="102" y="741" type="line"/>
      <point x="-19" y="-119" type="line"/>
      <point x="211" y="-119" type="line"/>
    </contour>
  </outline>
</glyph>
<glyph name="backslash" format="1">
  <advance width="354"/>
  <unicode hex="005C"/>
  <outline>
    <contour>
      <point x="223" y="-75" type="line"/>
      <point x="103" y="856" type="line"/>
      <point x="43" y="841" type="line"/>
      <point x="164" y="-90" type="line"/>
    </contour>
  </outline>
</glyph>
<glyph name="bracketright" format="1">
  <advance width="310"/>
  <unicode hex="005D"/>
  <outline>
    <contour>
      <point x="211" y="-119" type="line"/>
      <point x="332" y="741" type="line"/>
      <point x="102" y="741" type="line"/>
      <point x="94" y="681" type="line"/>
      <point x="264" y="681" type="line"/>
      <point x="160" y="-59" type="line"/>
      <point x="-10" y="-59" type="line"/>
      <point x="-19" y="-119" type="line"/>
    </contour>
  </outline>
</glyph>
<glyph name="asciicircum" format="1">
  <advance width="450"/>
  <unicode hex="005E"/>
  <outline>
    <contour>
      <point x="139" y="492" type="line"/>
      <point x="281" y="690" type="line"/>
      <point x="367" y="492" type="line"/>
      <point x="421" y="522" type="line"/>
      <point x="326" y="735" type="line" smooth="yes"/>
      <point x="317" y="755"/>
      <point x="304" y="767"/>
      <point x="287" y="767" type="curve" smooth="yes"/>
      <point x="275" y="767"/>
      <point x="259" y="757"/>
      <point x="245" y="737" type="curve" smooth="yes"/>
      <point x="91" y="522" type="line"/>
    </contour>
  </outline>
</glyph>
<glyph name="underscore" format="1">
  <advance width="620"/>
  <unicode hex="005F"/>
  <outline>
    <contour>
      <point x="26" y="60" type="line"/>
      <point x="18" y="0" type="line"/>
      <point x="518" y="0" type="line"/>
      <point x="526" y="60" type="line"/>
    </contour>
  </outline>
</glyph>
<glyph name="a" format="1">
  <advance width="689"/>
  <unicode hex="0061"/>
  <outline>
    <contour>
      <point x="449" y="0" type="line" smooth="yes"/>
      <point x="518" y="0"/>
      <point x="574" y="49"/>
      <point x="583" y="118" type="curve" smooth="yes"/>
      <point x="621" y="383" type="line" smooth="yes"/>
      <point x="637" y="501"/>
      <point x="552" y="600"/>
      <point x="434" y="600" type="curve" smooth="yes"/>
      <point x="166" y="600" type="line"/>
      <point x="158" y="540" type="line"/>
      <point x="429" y="540" type="line" smooth="yes"/>
      <point x="514" y="540"/>
      <point x="573" y="472"/>
      <point x="561" y="387" type="curve" smooth="yes"/>
      <point x="524" y="123" type="line" smooth="yes"/>
      <point x="519" y="88"/>
      <point x="488" y="60"/>
      <point x="453" y="60" type="curve" smooth="yes"/>
      <point x="200" y="60" type="line" smooth="yes"/>
      <point x="128" y="60"/>
      <point x="92" y="101"/>
      <point x="102" y="172" type="curve" smooth="yes"/>
      <point x="111" y="236"/>
      <point x="172" y="290"/>
      <point x="235" y="290" type="curve" smooth="yes"/>
      <point x="571" y="290" type="line"/>
      <point x="579" y="350" type="line"/>
      <point x="240" y="350" type="line" smooth="yes"/>
      <point x="144" y="350"/>
      <point x="56" y="274"/>
      <point x="43" y="178" type="curve" smooth="yes"/>
      <point x="28" y="71"/>
      <point x="90" y="0"/>
      <point x="195" y="0" type="curve" smooth="yes"/>
    </contour>
    <contour>
      <point x="275" y="-167" type="move" name="below"/>
    </contour>
    <contour>
      <point x="406" y="759" type="move" name="accent"/>
    </contour>
    <contour>
      <point x="435" y="969" type="move" name="above"/>
    </contour>
    <contour>
      <point x="294" y="8" type="move" name="bottom"/>
    </contour>
  </outline>
</glyph>
<glyph name="b" format="1">
  <advance width="714"/>
  <unicode hex="0062"/>
  <outline>
    <contour>
      <point x="472" y="-9"/>
      <point x="630" y="130"/>
      <point x="654" y="298" type="curve" smooth="yes"/>
      <point x="678" y="468"/>
      <point x="556" y="611"/>
      <point x="384" y="611" type="curve" smooth="yes"/>
      <point x="282" y="611"/>
      <point x="185" y="560"/>
      <point x="117" y="481" type="curve"/>
      <point x="156" y="439" type="line"/>
      <point x="215" y="510"/>
      <point x="300" y="551"/>
      <point x="383" y="551" type="curve" smooth="yes"/>
      <point x="518" y="551"/>
      <point x="614" y="440"/>
      <point x="595" y="304" type="curve" smooth="yes"/>
      <point x="575" y="166"/>
      <point x="444" y="51"/>
      <point x="306" y="51" type="curve" smooth="yes"/>
      <point x="233" y="51"/>
      <point x="168" y="83"/>
      <point x="127" y="139" type="curve"/>
      <point x="121" y="151"/>
      <point x="120" y="158"/>
      <point x="123" y="182" type="curve" smooth="yes"/>
      <point x="210" y="800" type="line"/>
      <point x="150" y="800" type="line"/>
      <point x="64" y="186" type="line" smooth="yes"/>
      <point x="59" y="154"/>
      <point x="62" y="128"/>
      <point x="81" y="106" type="curve" smooth="yes"/>
      <point x="127" y="36"/>
      <point x="207" y="-9"/>
      <point x="304" y="-9" type="curve" smooth="yes"/>
    </contour>
  </outline>
</glyph>
<glyph name="c" format="1">
  <advance width="718"/>
  <unicode hex="0063"/>
  <outline>
    <contour>
      <point x="567" y="176" type="line"/>
      <point x="513" y="99"/>
      <point x="423" y="51"/>
      <point x="332" y="51" type="curve" smooth="yes"/>
      <point x="195" y="51"/>
      <point x="101" y="161"/>
      <point x="120" y="298" type="curve" smooth="yes"/>
      <point x="139" y="437"/>
      <point x="269" y="550"/>
      <point x="408" y="550" type="curve" smooth="yes"/>
      <point x="497" y="550"/>
      <point x="572" y="504"/>
      <point x="605" y="427" type="curve"/>
      <point x="659" y="455" type="line"/>
      <point x="619" y="548"/>
      <point x="526" y="610"/>
      <point x="410" y="610" type="curve" smooth="yes"/>
      <point x="241" y="610"/>
      <point x="84" y="474"/>
      <point x="61" y="304" type="curve" smooth="yes"/>
      <point x="36" y="132"/>
      <point x="157" y="-9"/>
      <point x="330" y="-9" type="curve" smooth="yes"/>
      <point x="442" y="-9"/>
      <point x="551" y="52"/>
      <point x="617" y="144" type="curve"/>
    </contour>
    <contour>
      <point x="310" y="3" type="move" name="bottom"/>
    </contour>
    <contour>
      <point x="435" y="759" type="move" name="accent"/>
    </contour>
  </outline>
</glyph>
<glyph name="d" format="1">
  <advance width="714"/>
  <unicode hex="0064"/>
  <outline>
    <contour>
      <point x="423" y="-9"/>
      <point x="515" y="34"/>
      <point x="582" y="100" type="curve" smooth="yes"/>
      <point x="606" y="126"/>
      <point x="613" y="150"/>
      <point x="617" y="182" type="curve" smooth="yes"/>
      <point x="704" y="800" type="line"/>
      <point x="644" y="800" type="line"/>
      <point x="558" y="186" type="line" smooth="yes"/>
      <point x="555" y="162"/>
      <point x="549" y="153"/>
      <point x="538" y="145" type="curve"/>
      <point x="483" y="85"/>
      <point x="407" y="51"/>
      <point x="332" y="51" type="curve" smooth="yes"/>
      <point x="196" y="51"/>
      <point x="101" y="162"/>
      <point x="120" y="298" type="curve" smooth="yes"/>
      <point x="139" y="436"/>
      <point x="270" y="551"/>
      <point x="409" y="551" type="curve" smooth="yes"/>
      <point x="488" y="551"/>
      <point x="560" y="512"/>
      <point x="600" y="441" type="curve"/>
      <point x="647" y="479" type="line"/>
      <point x="600" y="558"/>
      <point x="516" y="611"/>
      <point x="410" y="611" type="curve" smooth="yes"/>
      <point x="242" y="611"/>
      <point x="84" y="472"/>
      <point x="61" y="304" type="curve" smooth="yes"/>
      <point x="37" y="134"/>
      <point x="158" y="-9"/>
      <point x="330" y="-9" type="curve" smooth="yes"/>
    </contour>
    <contour>
      <point x="753" y="681" type="move" name="accentside"/>
    </contour>
    <contour>
      <point x="655" y="681" type="move" name="bar"/>
    </contour>
  </outline>
</glyph>
<glyph name="e" format="1">
  <advance width="739"/>
  <unicode hex="0065"/>
  <outline>
    <contour>
      <point x="443" y="-8"/>
      <point x="551" y="54"/>
      <point x="618" y="146" type="curve"/>
      <point x="569" y="178" type="line"/>
      <point x="513" y="101"/>
      <point x="423" y="52"/>
      <point x="332" y="51" type="curve" smooth="yes"/>
      <point x="195" y="51"/>
      <point x="101" y="161"/>
      <point x="120" y="298" type="curve" smooth="yes"/>
      <point x="139" y="437"/>
      <point x="269" y="550"/>
      <point x="408" y="550" type="curve" smooth="yes"/>
      <point x="545" y="549"/>
      <point x="639" y="440"/>
      <point x="621" y="301" type="curve"/>
      <point x="636" y="309"/>
      <point x="652" y="320"/>
      <point x="668" y="330" type="curve"/>
      <point x="109" y="331" type="line"/>
      <point x="101" y="271" type="line"/>
      <point x="646" y="271" type="line" smooth="yes"/>
      <point x="663" y="271"/>
      <point x="677" y="282"/>
      <point x="679" y="297" type="curve" smooth="yes"/>
      <point x="703" y="469"/>
      <point x="583" y="609"/>
      <point x="410" y="610" type="curve" smooth="yes"/>
      <point x="241" y="610"/>
      <point x="84" y="474"/>
      <point x="61" y="304" type="curve" smooth="yes"/>
      <point x="36" y="132"/>
      <point x="157" y="-9"/>
      <point x="330" y="-9" type="curve" smooth="yes"/>
    </contour>
    <contour>
      <point x="304" y="-167" type="move" name="below"/>
    </contour>
    <contour>
      <point x="435" y="759" type="move" name="accent"/>
    </contour>
    <contour>
      <point x="464" y="969" type="move" name="above"/>
    </contour>
    <contour>
      <point x="305" y="-1" type="move" name="bottom"/>
    </contour>
  </outline>
</glyph>
<glyph name="f" format="1">
  <advance width="456"/>
  <unicode hex="0066"/>
  <outline>
    <contour>
      <point x="98" y="0" type="line"/>
      <point x="167" y="492" type="line" smooth="yes"/>
      <point x="179" y="579"/>
      <point x="261" y="650"/>
      <point x="349" y="650" type="curve" smooth="yes"/>
      <point x="367" y="650"/>
      <point x="386" y="647"/>
      <point x="403" y="640" type="curve"/>
      <point x="430" y="694" type="line"/>
      <point x="406" y="704"/>
      <point x="380" y="710"/>
      <point x="350" y="710" type="curve" smooth="yes"/>
      <point x="233" y="710"/>
      <point x="124" y="615"/>
      <point x="108" y="496" type="curve" smooth="yes"/>
      <point x="38" y="0" type="line"/>
    </contour>
    <contour>
      <point x="347" y="320" type="line"/>
      <point x="355" y="380" type="line"/>
      <point x="108" y="380" type="line"/>
      <point x="100" y="320" type="line"/>
    </contour>
  </outline>
</glyph>
<glyph name="g" format="1">
  <advance width="714"/>
  <unicode hex="0067"/>
  <outline>
    <contour>
      <point x="346" y="-229" type="line" smooth="yes"/>
      <point x="464" y="-229"/>
      <point x="573" y="-134"/>
      <point x="590" y="-16" type="curve" smooth="yes"/>
      <point x="650" y="416" type="line" smooth="yes"/>
      <point x="655" y="448"/>
      <point x="651" y="474"/>
      <point x="633" y="496" type="curve" smooth="yes"/>
      <point x="587" y="566"/>
      <point x="507" y="611"/>
      <point x="410" y="611" type="curve" smooth="yes"/>
      <point x="242" y="611"/>
      <point x="84" y="472"/>
      <point x="61" y="304" type="curve" smooth="yes"/>
      <point x="37" y="134"/>
      <point x="158" y="-9"/>
      <point x="330" y="-9" type="curve" smooth="yes"/>
      <point x="432" y="-9"/>
      <point x="530" y="42"/>
      <point x="598" y="121" type="curve"/>
      <point x="552" y="158" type="line"/>
      <point x="495" y="90"/>
      <point x="414" y="51"/>
      <point x="332" y="51" type="curve" smooth="yes"/>
      <point x="196" y="51"/>
      <point x="101" y="162"/>
      <point x="120" y="298" type="curve" smooth="yes"/>
      <point x="139" y="436"/>
      <point x="270" y="551"/>
      <point x="409" y="551" type="curve" smooth="yes"/>
      <point x="481" y="551"/>
      <point x="546" y="519"/>
      <point x="587" y="464" type="curve" smooth="yes"/>
      <point x="593" y="451"/>
      <point x="594" y="443"/>
      <point x="591" y="420" type="curve" smooth="yes"/>
      <point x="530" y="-12" type="line" smooth="yes"/>
      <point x="518" y="-97"/>
      <point x="436" y="-169"/>
      <point x="351" y="-169" type="curve" smooth="yes"/>
      <point x="83" y="-169" type="line"/>
      <point x="75" y="-229" type="line"/>
    </contour>
    <contour>
      <point x="435" y="759" type="move" name="accent"/>
    </contour>
  </outline>
</glyph>
<glyph name="k" format="1">
  <advance width="631"/>
  <unicode hex="006B"/>
  <outline>
    <contour>
      <point x="528" y="0" type="line"/>
      <point x="257" y="287" type="line" smooth="yes"/>
      <point x="248" y="298"/>
      <point x="244" y="306"/>
      <point x="245" y="314" type="curve" smooth="yes"/>
      <point x="246" y="324"/>
      <point x="255" y="334"/>
      <point x="266" y="345" type="curve" smooth="yes"/>
      <point x="539" y="600" type="line"/>
      <point x="457" y="600" type="line"/>
      <point x="227" y="388" type="line" smooth="yes"/>
      <point x="202" y="365"/>
      <point x="190" y="342"/>
      <point x="187" y="320" type="curve" smooth="yes"/>
      <point x="183" y="294"/>
      <point x="193" y="269"/>
      <point x="215" y="246" type="curve" smooth="yes"/>
      <point x="442" y="0" type="line"/>
    </contour>
    <contour>
      <point x="98" y="0" type="line"/>
      <point x="210" y="800" type="line"/>
      <point x="150" y="800" type="line"/>
      <point x="38" y="0" type="line"/>
    </contour>
    <contour>
      <point x="385" y="759" type="move" name="accent"/>
    </contour>
  </outline>
</glyph>
<glyph name="m" format="1">
  <advance width="868"/>
  <unicode hex="006D"/>
  <outline>
    <contour>
      <point x="746" y="0" type="line"/>
      <point x="804" y="417" type="line" smooth="yes"/>
      <point x="819" y="523"/>
      <point x="744" y="610"/>
      <point x="636" y="610" type="curve" smooth="yes"/>
      <point x="533" y="610"/>
      <point x="436" y="527"/>
      <point x="421" y="421" type="curve"/>
      <point x="480" y="417" type="line"/>
      <point x="491" y="489"/>
      <point x="560" y="550"/>
      <point x="634" y="550" type="curve" smooth="yes"/>
      <point x="706" y="550"/>
      <point x="755" y="494"/>
      <point x="745" y="421" type="curve" smooth="yes"/>
      <point x="686" y="0" type="line"/>
    </contour>
    <contour>
      <point x="98" y="0" type="line"/>
      <point x="156" y="417" type="line" smooth="yes"/>
      <point x="167" y="489"/>
      <point x="236" y="550"/>
      <point x="310" y="550" type="curve" smooth="yes"/>
      <point x="382" y="550"/>
      <point x="431" y="494"/>
      <point x="421" y="421" type="curve" smooth="yes"/>
      <point x="362" y="0" type="line"/>
      <point x="422" y="0" type="line"/>
      <point x="480" y="417" type="line" smooth="yes"/>
      <point x="495" y="523"/>
      <point x="420" y="610"/>
      <point x="312" y="610" type="curve" smooth="yes"/>
      <point x="209" y="610"/>
      <point x="112" y="527"/>
      <point x="97" y="421" type="curve" smooth="yes"/>
      <point x="38" y="0" type="line"/>
    </contour>
  </outline>
</glyph>
<glyph name="n" format="1">
  <advance width="734"/>
  <unicode hex="006E"/>
  <outline>
    <contour>
      <point x="98" y="0" type="line"/>
      <point x="156" y="416" type="line" smooth="yes"/>
      <point x="160" y="439"/>
      <point x="165" y="449"/>
      <point x="176" y="457" type="curve" smooth="yes"/>
      <point x="231" y="517"/>
      <point x="307" y="551"/>
      <point x="383" y="551" type="curve" smooth="yes"/>
      <point x="518" y="551"/>
      <point x="614" y="440"/>
      <point x="594" y="303" type="curve" smooth="yes"/>
      <point x="552" y="0" type="line"/>
      <point x="612" y="0" type="line"/>
      <point x="654" y="299" type="line" smooth="yes"/>
      <point x="678" y="468"/>
      <point x="556" y="611"/>
      <point x="384" y="611" type="curve" smooth="yes"/>
      <point x="291" y="611"/>
      <point x="200" y="568"/>
      <point x="132" y="502" type="curve" smooth="yes"/>
      <point x="110" y="476"/>
      <point x="101" y="452"/>
      <point x="97" y="420" type="curve" smooth="yes"/>
      <point x="38" y="0" type="line"/>
    </contour>
    <contour>
      <point x="409" y="759" type="move" name="accent"/>
    </contour>
  </outline>
</glyph>
<glyph name="o" format="1">
  <advance width="741"/>
  <unicode hex="006F"/>
  <outline>
    <contour>
      <point x="545" y="551"/>
      <point x="641" y="441"/>
      <point x="622" y="304" type="curve" smooth="yes"/>
      <point x="602" y="165"/>
      <point x="472" y="51"/>
      <point x="332" y="51" type="curve" smooth="yes"/>
      <point x="195" y="51"/>
      <point x="101" y="161"/>
      <point x="120" y="298" type="curve" smooth="yes"/>
      <point x="139" y="437"/>
      <point x="269" y="551"/>
      <point x="409" y="551" type="curve" smooth="yes"/>
    </contour>
    <contour>
      <point x="241" y="611"/>
      <point x="84" y="474"/>
      <point x="61" y="304" type="curve" smooth="yes"/>
      <point x="36" y="132"/>
      <point x="157" y="-9"/>
      <point x="330" y="-9" type="curve" smooth="yes"/>
      <point x="500" y="-9"/>
      <point x="657" y="128"/>
      <point x="681" y="298" type="curve" smooth="yes"/>
      <point x="705" y="470"/>
      <point x="583" y="611"/>
      <point x="410" y="611" type="curve" smooth="yes"/>
    </contour>
    <contour>
      <point x="304" y="-167" type="move" name="below"/>
    </contour>
    <contour>
      <point x="435" y="759" type="move" name="accent"/>
    </contour>
    <contour>
      <point x="464" y="969" type="move" name="above"/>
    </contour>
    <contour>
      <point x="370" y="301" type="move" name="slash"/>
    </contour>
    <contour>
      <point x="305" y="-2" type="move" name="bottom"/>
    </contour>
  </outline>
</glyph>
<glyph name="p" format="1">
  <advance width="714"/>
  <unicode hex="0070"/>
  <outline>
    <contour>
      <point x="291" y="609"/>
      <point x="199" y="566"/>
      <point x="132" y="500" type="curve" smooth="yes"/>
      <point x="108" y="474"/>
      <point x="101" y="450"/>
      <point x="97" y="418" type="curve" smooth="yes"/>
      <point x="10" y="-200" type="line"/>
      <point x="70" y="-200" type="line"/>
      <point x="156" y="414" type="line" smooth="yes"/>
      <point x="159" y="438"/>
      <point x="165" y="447"/>
      <point x="176" y="455" type="curve"/>
      <point x="231" y="515"/>
      <point x="307" y="549"/>
      <point x="382" y="549" type="curve" smooth="yes"/>
      <point x="518" y="549"/>
      <point x="613" y="438"/>
      <point x="594" y="302" type="curve" smooth="yes"/>
      <point x="575" y="164"/>
      <point x="444" y="49"/>
      <point x="305" y="49" type="curve" smooth="yes"/>
      <point x="226" y="49"/>
      <point x="154" y="88"/>
      <point x="114" y="159" type="curve"/>
      <point x="67" y="121" type="line"/>
      <point x="114" y="42"/>
      <point x="198" y="-11"/>
      <point x="304" y="-11" type="curve" smooth="yes"/>
      <point x="472" y="-11"/>
      <point x="630" y="128"/>
      <point x="653" y="296" type="curve" smooth="yes"/>
      <point x="677" y="466"/>
      <point x="556" y="609"/>
      <point x="384" y="609" type="curve" smooth="yes"/>
    </contour>
  </outline>
</glyph>
<glyph name="r" format="1">
  <advance width="580"/>
  <unicode hex="0072"/>
  <outline>
    <contour>
      <point x="98" y="0" type="line"/>
      <point x="156" y="416" type="line" smooth="yes"/>
      <point x="160" y="439"/>
      <point x="165" y="449"/>
      <point x="176" y="457" type="curve" smooth="yes"/>
      <point x="231" y="517"/>
      <point x="307" y="551"/>
      <point x="383" y="551" type="curve" smooth="yes"/>
      <point x="428" y="551"/>
      <point x="470" y="539"/>
      <point x="504" y="516" type="curve"/>
      <point x="537" y="567" type="line"/>
      <point x="494" y="594"/>
      <point x="443" y="611"/>
      <point x="384" y="611" type="curve" smooth="yes"/>
      <point x="291" y="611"/>
      <point x="200" y="568"/>
      <point x="132" y="502" type="curve" smooth="yes"/>
      <point x="110" y="476"/>
      <point x="101" y="452"/>
      <point x="97" y="420" type="curve" smooth="yes"/>
      <point x="38" y="0" type="line"/>
    </contour>
    <contour>
      <point x="359" y="759" type="move" name="accent"/>
    </contour>
  </outline>
</glyph>
<glyph name="s" format="1">
  <advance width="648"/>
  <unicode hex="0073"/>
  <outline>
    <contour>
      <point x="381" y="0" type="line" smooth="yes"/>
      <point x="473" y="0"/>
      <point x="556" y="73"/>
      <point x="569" y="166" type="curve" smooth="yes"/>
      <point x="582" y="259"/>
      <point x="516" y="336"/>
      <point x="424" y="336" type="curve" smooth="yes"/>
      <point x="246" y="336" type="line" smooth="yes"/>
      <point x="189" y="336"/>
      <point x="151" y="380"/>
      <point x="159" y="436" type="curve" smooth="yes"/>
      <point x="167" y="494"/>
      <point x="222" y="542"/>
      <point x="279" y="542" type="curve" smooth="yes"/>
      <point x="592" y="542" type="line"/>
      <point x="600" y="602" type="line"/>
      <point x="284" y="602" type="line" smooth="yes"/>
      <point x="194" y="602"/>
      <point x="112" y="531"/>
      <point x="100" y="442" type="curve" smooth="yes"/>
      <point x="87" y="351"/>
      <point x="151" y="276"/>
      <point x="241" y="276" type="curve" smooth="yes"/>
      <point x="419" y="276" type="line" smooth="yes"/>
      <point x="478" y="276"/>
      <point x="518" y="230"/>
      <point x="510" y="172" type="curve" smooth="yes"/>
      <point x="501" y="110"/>
      <point x="445" y="60"/>
      <point x="386" y="60" type="curve" smooth="yes"/>
      <point x="58" y="60" type="line"/>
      <point x="50" y="0" type="line"/>
    </contour>
    <contour>
      <point x="293" y="8" type="move" name="bottom"/>
    </contour>
    <contour>
      <point x="399" y="759" type="move" name="accent"/>
    </contour>
  </outline>
</glyph>
<glyph name="t" format="1">
  <advance width="530"/>
  <unicode hex="0074"/>
  <outline>
    <contour>
      <point x="408" y="0" type="line"/>
      <point x="416" y="60" type="line"/>
      <point x="235" y="60" type="line" smooth="yes"/>
      <point x="163" y="60"/>
      <point x="114" y="116"/>
      <point x="124" y="188" type="curve" smooth="yes"/>
      <point x="196" y="700" type="line"/>
      <point x="136" y="700" type="line"/>
      <point x="65" y="192" type="line" smooth="yes"/>
      <point x="50" y="87"/>
      <point x="126" y="0"/>
      <point x="230" y="0" type="curve" smooth="yes"/>
    </contour>
    <contour>
      <point x="484" y="540" type="line"/>
      <point x="492" y="600" type="line"/>
      <point x="153" y="600" type="line"/>
      <point x="145" y="540" type="line"/>
    </contour>
    <contour>
      <point x="117" y="362" type="move" name="bar"/>
    </contour>
    <contour>
      <point x="233" y="8" type="move" name="bottom"/>
    </contour>
    <contour>
      <point x="344" y="799" type="move" name="accent"/>
    </contour>
  </outline>
</glyph>
<glyph name="u" format="1">
  <advance width="684"/>
  <unicode hex="0075"/>
  <outline>
    <contour>
      <point x="444" y="-9"/>
      <point x="577" y="107"/>
      <point x="597" y="252" type="curve" smooth="yes"/>
      <point x="646" y="600" type="line"/>
      <point x="586" y="600" type="line"/>
      <point x="538" y="256" type="line" smooth="yes"/>
      <point x="522" y="144"/>
      <point x="416" y="51"/>
      <point x="304" y="51" type="curve" smooth="yes"/>
      <point x="194" y="51"/>
      <point x="118" y="140"/>
      <point x="133" y="252" type="curve" smooth="yes"/>
      <point x="182" y="600" type="line"/>
      <point x="122" y="600" type="line"/>
      <point x="74" y="256" type="line" smooth="yes"/>
      <point x="53" y="111"/>
      <point x="156" y="-9"/>
      <point x="302" y="-9" type="curve" smooth="yes"/>
    </contour>
    <contour>
      <point x="276" y="-167" type="move" name="below"/>
    </contour>
    <contour>
      <point x="407" y="759" type="move" name="accent"/>
    </contour>
    <contour>
      <point x="436" y="969" type="move" name="above"/>
    </contour>
    <contour>
      <point x="282" y="-1" type="move" name="bottom"/>
    </contour>
  </outline>
</glyph>
<glyph name="v" format="1">
  <advance width="633"/>
  <unicode hex="0076"/>
  <outline>
    <contour>
      <point x="323" y="-7"/>
      <point x="366" y="20"/>
      <point x="386" y="64" type="curve" smooth="yes"/>
      <point x="636" y="600" type="line"/>
      <point x="571" y="600" type="line"/>
      <point x="330" y="86" type="line" smooth="yes"/>
      <point x="322" y="67"/>
      <point x="302" y="53"/>
      <point x="278" y="53" type="curve" smooth="yes"/>
      <point x="258" y="53"/>
      <point x="243" y="63"/>
      <point x="240" y="82" type="curve" smooth="yes"/>
      <point x="146" y="600" type="line"/>
      <point x="83" y="600" type="line"/>
      <point x="181" y="68" type="line" smooth="yes"/>
      <point x="189" y="24"/>
      <point x="227" y="-7"/>
      <point x="276" y="-7" type="curve" smooth="yes"/>
    </contour>
  </outline>
</glyph>
<glyph name="w" format="1">
  <advance width="868"/>
  <unicode hex="0077"/>
  <outline>
    <contour>
      <point x="712" y="183" type="line" smooth="yes"/>
      <point x="701" y="110"/>
      <point x="632" y="50"/>
      <point x="558" y="50" type="curve" smooth="yes"/>
      <point x="486" y="50"/>
      <point x="437" y="107"/>
      <point x="447" y="179" type="curve"/>
      <point x="388" y="183" type="line"/>
      <point x="373" y="77"/>
      <point x="449" y="-10"/>
      <point x="556" y="-10" type="curve" smooth="yes"/>
      <point x="660" y="-10"/>
      <point x="756" y="73"/>
      <point x="771" y="179" type="curve" smooth="yes"/>
      <point x="830" y="600" type="line"/>
      <point x="770" y="600" type="line"/>
    </contour>
    <contour>
      <point x="64" y="183" type="line" smooth="yes"/>
      <point x="49" y="77"/>
      <point x="125" y="-10"/>
      <point x="232" y="-10" type="curve" smooth="yes"/>
      <point x="336" y="-10"/>
      <point x="432" y="73"/>
      <point x="447" y="179" type="curve" smooth="yes"/>
      <point x="506" y="600" type="line"/>
      <point x="446" y="600" type="line"/>
      <point x="388" y="183" type="line" smooth="yes"/>
      <point x="377" y="110"/>
      <point x="308" y="50"/>
      <point x="234" y="50" type="curve" smooth="yes"/>
      <point x="162" y="50"/>
      <point x="113" y="107"/>
      <point x="123" y="179" type="curve" smooth="yes"/>
      <point x="182" y="600" type="line"/>
      <point x="122" y="600" type="line"/>
    </contour>
    <contour>
      <point x="499" y="759" type="move" name="accent"/>
    </contour>
  </outline>
</glyph>
<glyph name="x" format="1">
  <advance width="770"/>
  <unicode hex="0078"/>
  <outline>
    <contour>
      <point x="648" y="-2" type="line"/>
      <point x="661" y="95"/>
      <point x="623" y="182"/>
      <point x="547" y="231" type="curve" smooth="yes"/>
      <point x="256" y="419" type="line" smooth="yes"/>
      <point x="197" y="458"/>
      <point x="171" y="521"/>
      <point x="182" y="598" type="curve"/>
      <point x="122" y="602" type="line"/>
      <point x="109" y="504"/>
      <point x="146" y="418"/>
      <point x="222" y="369" type="curve" smooth="yes"/>
      <point x="513" y="181" type="line" smooth="yes"/>
      <point x="572" y="142"/>
      <point x="599" y="78"/>
      <point x="588" y="2" type="curve"/>
    </contour>
    <contour>
      <point x="98" y="-2" type="line"/>
      <point x="108" y="74"/>
      <point x="156" y="140"/>
      <point x="226" y="179" type="curve" smooth="yes"/>
      <point x="570" y="367" type="line" smooth="yes"/>
      <point x="660" y="416"/>
      <point x="718" y="500"/>
      <point x="732" y="598" type="curve"/>
      <point x="672" y="602" type="line"/>
      <point x="662" y="525"/>
      <point x="615" y="460"/>
      <point x="545" y="421" type="curve" smooth="yes"/>
      <point x="201" y="233" type="line" smooth="yes"/>
      <point x="111" y="184"/>
      <point x="52" y="99"/>
      <point x="38" y="2" type="curve"/>
    </contour>
  </outline>
</glyph>
<glyph name="y" format="1">
  <advance width="684"/>
  <unicode hex="0079"/>
  <outline>
    <contour>
      <point x="316" y="-229" type="line" smooth="yes"/>
      <point x="434" y="-229"/>
      <point x="543" y="-134"/>
      <point x="560" y="-16" type="curve" smooth="yes"/>
      <point x="646" y="600" type="line"/>
      <point x="586" y="600" type="line"/>
      <point x="500" y="-12" type="line" smooth="yes"/>
      <point x="488" y="-97"/>
      <point x="406" y="-169"/>
      <point x="321" y="-169" type="curve" smooth="yes"/>
      <point x="53" y="-169" type="line"/>
      <point x="45" y="-229" type="line"/>
    </contour>
    <contour>
      <point x="444" y="-9"/>
      <point x="577" y="107"/>
      <point x="597" y="252" type="curve"/>
      <point x="538" y="256" type="line"/>
      <point x="522" y="144"/>
      <point x="416" y="51"/>
      <point x="304" y="51" type="curve" smooth="yes"/>
      <point x="194" y="51"/>
      <point x="118" y="140"/>
      <point x="133" y="252" type="curve" smooth="yes"/>
      <point x="182" y="600" type="line"/>
      <point x="122" y="600" type="line"/>
      <point x="74" y="256" type="line" smooth="yes"/>
      <point x="53" y="111"/>
      <point x="156" y="-9"/>
      <point x="302" y="-9" type="curve" smooth="yes"/>
    </contour>
    <contour>
      <point x="433" y="939" type="move" name="above"/>
    </contour>
    <contour>
      <point x="408" y="759" type="move" name="accent"/>
    </contour>
  </outline>
</glyph>
<glyph name="z" format="1">
  <advance width="701"/>
  <unicode hex="007A"/>
  <outline>
    <contour>
      <point x="579" y="0" type="line"/>
      <point x="587" y="60" type="line"/>
      <point x="123" y="60" type="line" smooth="yes"/>
      <point x="113" y="60"/>
      <point x="109" y="64"/>
      <point x="110" y="71" type="curve" smooth="yes"/>
      <point x="111" y="77"/>
      <point x="115" y="82"/>
      <point x="119" y="86" type="curve" smooth="yes"/>
      <point x="617" y="466" type="line" smooth="yes"/>
      <point x="639" y="483"/>
      <point x="650" y="504"/>
      <point x="652" y="523" type="curve" smooth="yes"/>
      <point x="658" y="562"/>
      <point x="631" y="600"/>
      <point x="583" y="600" type="curve" smooth="yes"/>
      <point x="142" y="600" type="line"/>
      <point x="134" y="540" type="line"/>
      <point x="578" y="540" type="line" smooth="yes"/>
      <point x="588" y="540"/>
      <point x="592" y="536"/>
      <point x="591" y="529" type="curve" smooth="yes"/>
      <point x="590" y="523"/>
      <point x="586" y="518"/>
      <point x="582" y="514" type="curve" smooth="yes"/>
      <point x="84" y="134" type="line" smooth="yes"/>
      <point x="62" y="117"/>
      <point x="51" y="96"/>
      <point x="49" y="77" type="curve" smooth="yes"/>
      <point x="43" y="38"/>
      <point x="70" y="0"/>
      <point x="118" y="0" type="curve" smooth="yes"/>
    </contour>
    <contour>
      <point x="433" y="759" type="move" name="accent"/>
    </contour>
  </outline>
</glyph>
<glyph name="braceleft" format="1">
  <advance width="362"/>
  <unicode hex="007B"/>
  <outline>
    <contour>
      <point x="165" y="282"/>
      <point x="234" y="343"/>
      <point x="245" y="419" type="curve" smooth="yes"/>
      <point x="270" y="595" type="line" smooth="yes"/>
      <point x="277" y="647"/>
      <point x="326" y="690"/>
      <point x="378" y="690" type="curve"/>
      <point x="384" y="750" type="line"/>
      <point x="299" y="750"/>
      <point x="222" y="684"/>
      <point x="210" y="599" type="curve" smooth="yes"/>
      <point x="185" y="423" type="line" smooth="yes"/>
      <point x="179" y="380"/>
      <point x="137" y="342"/>
      <point x="94" y="342" type="curve"/>
      <point x="89" y="282" type="line"/>
    </contour>
    <contour>
      <point x="269" y="-66" type="line"/>
      <point x="217" y="-66"/>
      <point x="182" y="-27"/>
      <point x="189" y="25" type="curve" smooth="yes"/>
      <point x="214" y="201" type="line" smooth="yes"/>
      <point x="225" y="277"/>
      <point x="170" y="342"/>
      <point x="94" y="342" type="curve"/>
      <point x="89" y="282" type="line"/>
      <point x="132" y="282"/>
      <point x="161" y="248"/>
      <point x="155" y="205" type="curve" smooth="yes"/>
      <point x="130" y="29" type="line" smooth="yes"/>
      <point x="118" y="-56"/>
      <point x="179" y="-126"/>
      <point x="264" y="-126" type="curve"/>
    </contour>
    <contour>
      <point x="37" y="282" type="line"/>
      <point x="87" y="282" type="line"/>
      <point x="96" y="342" type="line"/>
      <point x="46" y="342" type="line"/>
    </contour>
  </outline>
</glyph>
<glyph name="bar" format="1">
  <advance width="180"/>
  <unicode hex="007C"/>
  <outline>
    <contour>
      <point x="2" y="-110" type="line"/>
      <point x="62" y="-110" type="line"/>
      <point x="190" y="800" type="line"/>
      <point x="130" y="800" type="line"/>
    </contour>
  </outline>
</glyph>
<glyph name="braceright" format="1">
  <advance width="362"/>
  <unicode hex="007D"/>
  <outline>
    <contour>
      <point x="276" y="342" type="line"/>
      <point x="233" y="342"/>
      <point x="205" y="376"/>
      <point x="211" y="419" type="curve" smooth="yes"/>
      <point x="236" y="595" type="line" smooth="yes"/>
      <point x="247" y="680"/>
      <point x="187" y="750"/>
      <point x="102" y="750" type="curve"/>
      <point x="97" y="690" type="line"/>
      <point x="148" y="690"/>
      <point x="183" y="651"/>
      <point x="176" y="599" type="curve" smooth="yes"/>
      <point x="151" y="423" type="line" smooth="yes"/>
      <point x="141" y="347"/>
      <point x="195" y="282"/>
      <point x="271" y="282" type="curve"/>
    </contour>
    <contour>
      <point x="67" y="-126"/>
      <point x="143" y="-60"/>
      <point x="155" y="25" type="curve" smooth="yes"/>
      <point x="180" y="201" type="line" smooth="yes"/>
      <point x="186" y="244"/>
      <point x="228" y="282"/>
      <point x="271" y="282" type="curve"/>
      <point x="276" y="342" type="line"/>
      <point x="200" y="342"/>
      <point x="131" y="281"/>
      <point x="121" y="205" type="curve" smooth="yes"/>
      <point x="96" y="29" type="line" smooth="yes"/>
      <point x="89" y="-23"/>
      <point x="39" y="-66"/>
      <point x="-13" y="-66" type="curve"/>
      <point x="-18" y="-126" type="line"/>
    </contour>
    <contour>
      <point x="278" y="342" type="line"/>
      <point x="269" y="282" type="line"/>
      <point x="319" y="282" type="line"/>
      <point x="328" y="342" type="line"/>
    </contour>
  </outline>
</glyph>
<glyph name="asciitilde" format="1">
  <advance width="505"/>
  <unicode hex="007E"/>
  <outline>
    <contour>
      <point x="360" y="306"/>
      <point x="400" y="324"/>
      <point x="434" y="359" type="curve"/>
      <point x="390" y="399" type="line"/>
      <point x="372" y="380"/>
      <point x="348" y="368"/>
      <point x="320" y="368" type="curve" smooth="yes"/>
      <point x="277" y="368"/>
      <point x="263" y="402"/>
      <point x="200" y="402" type="curve" smooth="yes"/>
      <point x="160" y="402"/>
      <point x="118" y="385"/>
      <point x="86" y="351" type="curve"/>
      <point x="129" y="309" type="line"/>
      <point x="146" y="329"/>
      <point x="170" y="341"/>
      <point x="198" y="341" type="curve" smooth="yes"/>
      <point x="242" y="341"/>
      <point x="253" y="306"/>
      <point x="318" y="306" type="curve" smooth="yes"/>
    </contour>
  </outline>
</glyph>
<glyph name="exclamdown" format="1">
  <advance width="180"/>
  <unicode hex="00A1"/>
  <outline>
    <contour>
      <point x="16" y="-11" type="line"/>
      <point x="76" y="-11" type="line"/>
      <point x="153" y="532" type="line"/>
      <point x="93" y="532" type="line"/>
    </contour>
    <contour>
      <point x="165" y="589"/>
      <point x="195" y="615"/>
      <point x="200" y="647" type="curve" smooth="yes"/>
      <point x="205" y="682"/>
      <point x="179" y="711"/>
      <point x="144" y="711" type="curve" smooth="yes"/>
      <point x="112" y="711"/>
      <point x="83" y="686"/>
      <point x="79" y="653" type="curve" smooth="yes"/>
      <point x="74" y="619"/>
      <point x="98" y="589"/>
      <point x="134" y="589" type="curve" smooth="yes"/>
    </contour>
  </outline>
</glyph>
<glyph name="cent" format="1">
  <advance width="580"/>
  <unicode hex="00A2"/>
  <outline>
    <contour>
      <point x="378" y="84"/>
      <point x="472" y="137"/>
      <point x="529" y="216" type="curve"/>
      <point x="480" y="248" type="line"/>
      <point x="434" y="184"/>
      <point x="359" y="144"/>
      <point x="283" y="144" type="curve" smooth="yes"/>
      <point x="169" y="144"/>
      <point x="91" y="235"/>
      <point x="107" y="349" type="curve" smooth="yes"/>
      <point x="123" y="464"/>
      <point x="231" y="559"/>
      <point x="348" y="559" type="curve" smooth="yes"/>
      <point x="421" y="559"/>
      <point x="483" y="521"/>
      <point x="511" y="457" type="curve"/>
      <point x="565" y="485" type="line"/>
      <point x="530" y="565"/>
      <point x="450" y="619"/>
      <point x="349" y="619" type="curve" smooth="yes"/>
      <point x="203" y="619"/>
      <point x="68" y="502"/>
      <point x="48" y="355" type="curve" smooth="yes"/>
      <point x="27" y="206"/>
      <point x="131" y="84"/>
      <point x="281" y="84" type="curve" smooth="yes"/>
    </contour>
    <contour>
      <point x="292" y="-26" type="line"/>
      <point x="315" y="134" type="line"/>
      <point x="255" y="134" type="line"/>
      <point x="232" y="-26" type="line"/>
    </contour>
    <contour>
      <point x="376" y="569" type="line"/>
      <point x="398" y="729" type="line"/>
      <point x="338" y="729" type="line"/>
      <point x="316" y="569" type="line"/>
    </contour>
  </outline>
</glyph>
<glyph name="sterling" format="1">
  <advance width="530"/>
  <unicode hex="00A3"/>
  <outline>
    <contour>
      <point x="103" y="29"/>
      <point x="193" y="108"/>
      <point x="207" y="208" type="curve" smooth="yes"/>
      <point x="235" y="402" type="line" smooth="yes"/>
      <point x="252" y="517"/>
      <point x="358" y="610"/>
      <point x="473" y="610" type="curve"/>
      <point x="478" y="670" type="line"/>
      <point x="330" y="670"/>
      <point x="197" y="553"/>
      <point x="176" y="406" type="curve" smooth="yes"/>
      <point x="148" y="212" type="line" smooth="yes"/>
      <point x="138" y="146"/>
      <point x="75" y="90"/>
      <point x="9" y="90" type="curve"/>
      <point x="4" y="30" type="line"/>
    </contour>
    <contour>
      <point x="452" y="30" type="line"/>
      <point x="460" y="90" type="line"/>
      <point x="10" y="90" type="line"/>
      <point x="2" y="30" type="line"/>
    </contour>
    <contour>
      <point x="431" y="320" type="line"/>
      <point x="439" y="380" type="line"/>
      <point x="51" y="380" type="line"/>
      <point x="43" y="320" type="line"/>
    </contour>
  </outline>
</glyph>
<glyph name="currency" format="1">
  <advance width="656"/>
  <unicode hex="00A4"/>
  <outline>
    <contour>
      <point x="432" y="112"/>
      <point x="552" y="217"/>
      <point x="571" y="349" type="curve" smooth="yes"/>
      <point x="590" y="483"/>
      <point x="496" y="592"/>
      <point x="362" y="592" type="curve" smooth="yes"/>
      <point x="230" y="592"/>
      <point x="110" y="487"/>
      <point x="92" y="355" type="curve" smooth="yes"/>
      <point x="73" y="221"/>
      <point x="166" y="112"/>
      <point x="301" y="112" type="curve" smooth="yes"/>
    </contour>
    <contour>
      <point x="178" y="177" type="line"/>
      <point x="140" y="219" type="line"/>
      <point x="13" y="106" type="line"/>
      <point x="50" y="63" type="line"/>
    </contour>
    <contour>
      <point x="204" y="172"/>
      <point x="137" y="250"/>
      <point x="151" y="349" type="curve" smooth="yes"/>
      <point x="165" y="450"/>
      <point x="258" y="532"/>
      <point x="360" y="532" type="curve" smooth="yes"/>
      <point x="458" y="532"/>
      <point x="526" y="454"/>
      <point x="512" y="355" type="curve" smooth="yes"/>
      <point x="497" y="254"/>
      <point x="404" y="172"/>
      <point x="303" y="172" type="curve" smooth="yes"/>
    </contour>
    <contour>
      <point x="589" y="106" type="line"/>
      <point x="490" y="219" type="line"/>
      <point x="444" y="177" type="line"/>
      <point x="542" y="63" type="line"/>
    </contour>
    <contour>
      <point x="227" y="527" type="line"/>
      <point x="129" y="640" type="line"/>
      <point x="82" y="597" type="line"/>
      <point x="180" y="484" type="line"/>
    </contour>
    <contour>
      <point x="658" y="597" type="line"/>
      <point x="621" y="640" type="line"/>
      <point x="493" y="527" type="line"/>
      <point x="530" y="484" type="line"/>
    </contour>
  </outline>
</glyph>
<glyph name="yen" format="1">
  <advance width="600"/>
  <unicode hex="00A5"/>
  <outline>
    <contour>
      <point x="382" y="269" type="line"/>
      <point x="569" y="670" type="line"/>
      <point x="505" y="670" type="line"/>
      <point x="348" y="338" type="line" smooth="yes"/>
      <point x="340" y="319"/>
      <point x="320" y="305"/>
      <point x="296" y="305" type="curve" smooth="yes"/>
      <point x="276" y="305"/>
      <point x="262" y="315"/>
      <point x="258" y="334" type="curve" smooth="yes"/>
      <point x="198" y="670" type="line"/>
      <point x="134" y="670" type="line"/>
      <point x="208" y="269" type="line"/>
    </contour>
    <contour>
      <point x="284" y="-26" type="line"/>
      <point x="310" y="160" type="line"/>
      <point x="250" y="160" type="line"/>
      <point x="224" y="-26" type="line"/>
    </contour>
    <contour>
      <point x="485" y="129" type="line"/>
      <point x="493" y="189" type="line"/>
      <point x="73" y="189" type="line"/>
      <point x="65" y="129" type="line"/>
    </contour>
    <contour>
      <point x="502" y="249" type="line"/>
      <point x="510" y="309" type="line"/>
      <point x="374" y="309" type="line"/>
      <point x="373" y="299" type="line"/>
      <point x="224" y="299" type="line"/>
      <point x="225" y="309" type="line"/>
      <point x="90" y="309" type="line"/>
      <point x="82" y="249" type="line"/>
    </contour>
  </outline>
</glyph>
<glyph name="brokenbar" format="1">
  <advance width="180"/>
  <unicode hex="00A6"/>
  <outline>
    <contour>
      <point x="141" y="448" type="line"/>
      <point x="190" y="800" type="line"/>
      <point x="130" y="800" type="line"/>
      <point x="81" y="448" type="line"/>
    </contour>
    <contour>
      <point x="62" y="-110" type="line"/>
      <point x="112" y="242" type="line"/>
      <point x="52" y="242" type="line"/>
      <point x="2" y="-110" type="line"/>
    </contour>
  </outline>
</glyph>
<glyph name="section" format="1">
  <advance width="520"/>
  <unicode hex="00A7"/>
  <outline>
    <contour>
      <point x="346" y="216" type="line" smooth="yes"/>
      <point x="418" y="216"/>
      <point x="484" y="274"/>
      <point x="495" y="347" type="curve" smooth="yes"/>
      <point x="505" y="423"/>
      <point x="454" y="484"/>
      <point x="380" y="484" type="curve" smooth="yes"/>
      <point x="188" y="484" type="line" smooth="yes"/>
      <point x="116" y="484"/>
      <point x="50" y="426"/>
      <point x="39" y="353" type="curve" smooth="yes"/>
      <point x="29" y="277"/>
      <point x="80" y="216"/>
      <point x="154" y="216" type="curve" smooth="yes"/>
    </contour>
    <contour>
      <point x="316" y="7" type="line" smooth="yes"/>
      <point x="390" y="7"/>
      <point x="457" y="65"/>
      <point x="467" y="139" type="curve" smooth="yes"/>
      <point x="478" y="213"/>
      <point x="424" y="276"/>
      <point x="351" y="276" type="curve"/>
      <point x="346" y="216" type="line"/>
      <point x="386" y="216"/>
      <point x="414" y="184"/>
      <point x="408" y="145" type="curve" smooth="yes"/>
      <point x="402" y="102"/>
      <point x="363" y="67"/>
      <point x="322" y="67" type="curve" smooth="yes"/>
      <point x="36" y="67" type="line"/>
      <point x="28" y="7" type="line"/>
    </contour>
    <contour>
      <point x="118" y="276"/>
      <point x="93" y="306"/>
      <point x="99" y="347" type="curve" smooth="yes"/>
      <point x="104" y="388"/>
      <point x="144" y="424"/>
      <point x="183" y="424" type="curve" smooth="yes"/>
      <point x="375" y="424" type="line" smooth="yes"/>
      <point x="416" y="424"/>
      <point x="441" y="394"/>
      <point x="435" y="353" type="curve" smooth="yes"/>
      <point x="430" y="312"/>
      <point x="390" y="276"/>
      <point x="351" y="276" type="curve" smooth="yes"/>
      <point x="159" y="276" type="line" smooth="yes"/>
    </contour>
    <contour>
      <point x="188" y="484" type="line"/>
      <point x="148" y="484"/>
      <point x="120" y="516"/>
      <point x="126" y="555" type="curve" smooth="yes"/>
      <point x="132" y="598"/>
      <point x="171" y="633"/>
      <point x="212" y="633" type="curve" smooth="yes"/>
      <point x="518" y="633" type="line"/>
      <point x="526" y="693" type="line"/>
      <point x="218" y="693" type="line" smooth="yes"/>
      <point x="144" y="693"/>
      <point x="77" y="635"/>
      <point x="67" y="561" type="curve" smooth="yes"/>
      <point x="56" y="487"/>
      <point x="110" y="424"/>
      <point x="183" y="424" type="curve"/>
    </contour>
  </outline>
</glyph>
<glyph name="dieresis" format="1">
  <advance width="341"/>
  <unicode hex="00A8"/>
  <outline>
    <contour>
      <point x="151" y="610"/>
      <point x="177" y="633"/>
      <point x="181" y="660" type="curve" smooth="yes"/>
      <point x="185" y="688"/>
      <point x="165" y="710"/>
      <point x="138" y="710" type="curve" smooth="yes"/>
      <point x="110" y="710"/>
      <point x="85" y="688"/>
      <point x="81" y="660" type="curve" smooth="yes"/>
      <point x="77" y="633"/>
      <point x="96" y="610"/>
      <point x="124" y="610" type="curve" smooth="yes"/>
    </contour>
    <contour>
      <point x="332" y="610"/>
      <point x="358" y="633"/>
      <point x="362" y="660" type="curve" smooth="yes"/>
      <point x="366" y="688"/>
      <point x="346" y="710"/>
      <point x="319" y="710" type="curve" smooth="yes"/>
      <point x="291" y="710"/>
      <point x="266" y="688"/>
      <point x="262" y="660" type="curve" smooth="yes"/>
      <point x="258" y="633"/>
      <point x="277" y="610"/>
      <point x="305" y="610" type="curve" smooth="yes"/>
    </contour>
    <contour>
      <point x="224" y="680" type="move" name="_accent"/>
    </contour>
    <contour>
      <point x="170" y="680" type="move" name="_above"/>
    </contour>
  </outline>
</glyph>
<glyph name="copyright" format="1">
  <advance width="761"/>
  <unicode hex="00A9"/>
  <outline>
    <contour>
      <point x="544" y="-25"/>
      <point x="734" y="141"/>
      <point x="763" y="347" type="curve" smooth="yes"/>
      <point x="792" y="555"/>
      <point x="646" y="725"/>
      <point x="436" y="725" type="curve" smooth="yes"/>
      <point x="231" y="725"/>
      <point x="41" y="559"/>
      <point x="12" y="353" type="curve" smooth="yes"/>
      <point x="-17" y="145"/>
      <point x="129" y="-25"/>
      <point x="338" y="-25" type="curve" smooth="yes"/>
    </contour>
    <contour>
      <point x="433" y="149"/>
      <point x="503" y="188"/>
      <point x="545" y="247" type="curve"/>
      <point x="496" y="279" type="line"/>
      <point x="466" y="236"/>
      <point x="416" y="209"/>
      <point x="364" y="209" type="curve" smooth="yes"/>
      <point x="289" y="209"/>
      <point x="236" y="270"/>
      <point x="246" y="346" type="curve" smooth="yes"/>
      <point x="257" y="424"/>
      <point x="330" y="488"/>
      <point x="410" y="488" type="curve" smooth="yes"/>
      <point x="458" y="488"/>
      <point x="500" y="463"/>
      <point x="518" y="420" type="curve"/>
      <point x="572" y="448" type="line"/>
      <point x="546" y="508"/>
      <point x="486" y="548"/>
      <point x="412" y="548" type="curve" smooth="yes"/>
      <point x="302" y="548"/>
      <point x="203" y="461"/>
      <point x="187" y="352" type="curve" smooth="yes"/>
      <point x="172" y="241"/>
      <point x="249" y="149"/>
      <point x="362" y="149" type="curve" smooth="yes"/>
    </contour>
    <contour>
      <point x="167" y="35"/>
      <point x="47" y="174"/>
      <point x="72" y="347" type="curve" smooth="yes"/>
      <point x="96" y="522"/>
      <point x="259" y="665"/>
      <point x="435" y="665" type="curve" smooth="yes"/>
      <point x="608" y="665"/>
      <point x="728" y="526"/>
      <point x="703" y="353" type="curve" smooth="yes"/>
      <point x="679" y="178"/>
      <point x="516" y="35"/>
      <point x="339" y="35" type="curve" smooth="yes"/>
    </contour>
  </outline>
</glyph>
<glyph name="guillemetleft" format="1">
  <advance width="536"/>
  <unicode hex="00AB"/>
  <outline>
    <contour>
      <point x="305" y="125" type="line"/>
      <point x="110" y="353" type="line"/>
      <point x="368" y="580" type="line"/>
      <point x="331" y="622" type="line"/>
      <point x="72" y="396" type="line" smooth="yes"/>
      <point x="58" y="383"/>
      <point x="50" y="369"/>
      <point x="48" y="356" type="curve" smooth="yes"/>
      <point x="46" y="341"/>
      <point x="52" y="326"/>
      <point x="63" y="312" type="curve" smooth="yes"/>
      <point x="258" y="83" type="line"/>
    </contour>
    <contour>
      <point x="471" y="125" type="line"/>
      <point x="276" y="353" type="line"/>
      <point x="534" y="580" type="line"/>
      <point x="497" y="622" type="line"/>
      <point x="238" y="396" type="line" smooth="yes"/>
      <point x="224" y="383"/>
      <point x="216" y="369"/>
      <point x="214" y="356" type="curve" smooth="yes"/>
      <point x="212" y="341"/>
      <point x="218" y="326"/>
      <point x="229" y="312" type="curve" smooth="yes"/>
      <point x="424" y="83" type="line"/>
    </contour>
  </outline>
</glyph>
<glyph name="logicalnot" format="1">
  <advance width="590"/>
  <unicode hex="00AC"/>
  <outline>
    <contour>
      <point x="91" y="380" type="line"/>
      <point x="83" y="320" type="line"/>
      <point x="513" y="320" type="line"/>
      <point x="521" y="380" type="line"/>
    </contour>
    <contour>
      <point x="521" y="380" type="line"/>
      <point x="461" y="380" type="line"/>
      <point x="432" y="170" type="line"/>
      <point x="492" y="170" type="line"/>
    </contour>
  </outline>
</glyph>
<glyph name="registered" format="1">
  <advance width="433"/>
  <unicode hex="00AE"/>
  <outline>
    <contour>
      <point x="330" y="377"/>
      <point x="421" y="456"/>
      <point x="435" y="557" type="curve" smooth="yes"/>
      <point x="449" y="659"/>
      <point x="378" y="742"/>
      <point x="276" y="742" type="curve" smooth="yes"/>
      <point x="175" y="742"/>
      <point x="85" y="663"/>
      <point x="71" y="563" type="curve" smooth="yes"/>
      <point x="56" y="460"/>
      <point x="127" y="377"/>
      <point x="231" y="377" type="curve" smooth="yes"/>
    </contour>
    <contour>
      <point x="155" y="422"/>
      <point x="104" y="481"/>
      <point x="115" y="557" type="curve" smooth="yes"/>
      <point x="126" y="634"/>
      <point x="197" y="697"/>
      <point x="276" y="697" type="curve" smooth="yes"/>
      <point x="350" y="697"/>
      <point x="401" y="638"/>
      <point x="391" y="563" type="curve" smooth="yes"/>
      <point x="380" y="485"/>
      <point x="308" y="422"/>
      <point x="231" y="422" type="curve" smooth="yes"/>
    </contour>
    <contour>
      <point x="204" y="476" type="line"/>
      <point x="223" y="614" type="line"/>
      <point x="295" y="614" type="line" smooth="yes"/>
      <point x="303" y="614"/>
      <point x="307" y="609"/>
      <point x="306" y="603" type="curve"/>
      <point x="305" y="594"/>
      <point x="296" y="586"/>
      <point x="288" y="586" type="curve" smooth="yes"/>
      <point x="278" y="586" type="line" smooth="yes"/>
      <point x="238" y="586"/>
      <point x="212" y="536"/>
      <point x="236" y="507" type="curve" smooth="yes"/>
      <point x="262" y="476" type="line"/>
      <point x="318" y="476" type="line"/>
      <point x="266" y="534" type="line" smooth="yes"/>
      <point x="263" y="538"/>
      <point x="270" y="545"/>
      <point x="275" y="545" type="curve" smooth="yes"/>
      <point x="285" y="545" type="line" smooth="yes"/>
      <point x="316" y="545"/>
      <point x="342" y="567"/>
      <point x="346" y="597" type="curve" smooth="yes"/>
      <point x="350" y="628"/>
      <point x="327" y="655"/>
      <point x="297" y="655" type="curve" smooth="yes"/>
      <point x="227" y="655" type="line" smooth="yes"/>
      <point x="201" y="655"/>
      <point x="187" y="642"/>
      <point x="183" y="616" type="curve" smooth="yes"/>
      <point x="164" y="476" type="line"/>
    </contour>
  </outline>
</glyph>
<glyph name="macron" format="1">
  <advance width="340"/>
  <unicode hex="00AF"/>
  <outline>
    <contour>
      <point x="68" y="640" type="line"/>
      <point x="368" y="640" type="line"/>
      <point x="376" y="700" type="line"/>
      <point x="76" y="700" type="line"/>
    </contour>
    <contour>
      <point x="226" y="690" type="move" name="_accent"/>
    </contour>
    <contour>
      <point x="226" y="690" type="move" name="_above"/>
    </contour>
  </outline>
</glyph>
<glyph name="degree" format="1">
  <advance width="380"/>
  <unicode hex="00B0"/>
  <outline>
    <contour>
      <point x="283" y="446"/>
      <point x="349" y="503"/>
      <point x="358" y="573" type="curve" smooth="yes"/>
      <point x="369" y="645"/>
      <point x="316" y="706"/>
      <point x="244" y="706" type="curve" smooth="yes"/>
      <point x="174" y="706"/>
      <point x="109" y="649"/>
      <point x="99" y="579" type="curve" smooth="yes"/>
      <point x="89" y="507"/>
      <point x="141" y="446"/>
      <point x="214" y="446" type="curve" smooth="yes"/>
    </contour>
    <contour>
      <point x="179" y="506"/>
      <point x="153" y="536"/>
      <point x="158" y="573" type="curve" smooth="yes"/>
      <point x="164" y="612"/>
      <point x="202" y="646"/>
      <point x="242" y="646" type="curve" smooth="yes"/>
      <point x="278" y="646"/>
      <point x="304" y="616"/>
      <point x="299" y="579" type="curve" smooth="yes"/>
      <point x="294" y="540"/>
      <point x="255" y="506"/>
      <point x="216" y="506" type="curve" smooth="yes"/>
    </contour>
  </outline>
</glyph>
<glyph name="plusminus" format="1">
  <advance width="490"/>
  <unicode hex="00B1"/>
  <outline>
    <contour>
      <point x="215" y="299" type="line"/>
      <point x="275" y="299" type="line"/>
      <point x="305" y="515" type="line"/>
      <point x="245" y="515" type="line"/>
    </contour>
    <contour>
      <point x="99" y="437" type="line"/>
      <point x="91" y="377" type="line"/>
      <point x="421" y="377" type="line"/>
      <point x="429" y="437" type="line"/>
    </contour>
    <contour>
      <point x="74" y="255" type="line"/>
      <point x="65" y="195" type="line"/>
      <point x="395" y="195" type="line"/>
      <point x="404" y="255" type="line"/>
    </contour>
  </outline>
</glyph>
<glyph name="paragraph" format="1">
  <advance width="567"/>
  <unicode hex="00B6"/>
  <outline>
    <contour>
      <point x="249" y="-110" type="line"/>
      <point x="309" y="-110" type="line"/>
      <point x="437" y="800" type="line"/>
      <point x="377" y="800" type="line"/>
    </contour>
    <contour>
      <point x="389" y="-110" type="line"/>
      <point x="449" y="-110" type="line"/>
      <point x="577" y="800" type="line"/>
      <point x="517" y="800" type="line"/>
    </contour>
    <contour>
      <point x="376" y="800" type="line"/>
      <point x="240" y="800"/>
      <point x="115" y="691"/>
      <point x="96" y="556" type="curve" smooth="yes"/>
      <point x="77" y="419"/>
      <point x="174" y="306"/>
      <point x="310" y="306" type="curve"/>
    </contour>
  </outline>
</glyph>
<glyph name="guillemetright" format="1">
  <advance width="536"/>
  <unicode hex="00BB"/>
  <outline>
    <contour>
      <point x="479" y="310" type="line" smooth="yes"/>
      <point x="493" y="324"/>
      <point x="501" y="337"/>
      <point x="503" y="350" type="curve" smooth="yes"/>
      <point x="505" y="365"/>
      <point x="499" y="381"/>
      <point x="488" y="394" type="curve" smooth="yes"/>
      <point x="293" y="622" type="line"/>
      <point x="246" y="580" type="line"/>
      <point x="440" y="353" type="line"/>
      <point x="181" y="125" type="line"/>
      <point x="220" y="83" type="line"/>
    </contour>
    <contour>
      <point x="313" y="310" type="line" smooth="yes"/>
      <point x="327" y="324"/>
      <point x="335" y="337"/>
      <point x="337" y="350" type="curve" smooth="yes"/>
      <point x="339" y="365"/>
      <point x="333" y="381"/>
      <point x="322" y="394" type="curve" smooth="yes"/>
      <point x="127" y="622" type="line"/>
      <point x="80" y="580" type="line"/>
      <point x="274" y="353" type="line"/>
      <point x="15" y="125" type="line"/>
      <point x="54" y="83" type="line"/>
    </contour>
  </outline>
</glyph>
<glyph name="questiondown" format="1">
  <advance width="378"/>
  <unicode hex="00BF"/>
  <outline>
    <contour>
      <point x="208" y="534" type="line"/>
      <point x="197" y="456"/>
      <point x="174" y="426"/>
      <point x="90" y="347" type="curve" smooth="yes"/>
      <point x="17" y="273"/>
      <point x="-10" y="226"/>
      <point x="-20" y="158" type="curve" smooth="yes"/>
      <point x="-36" y="44"/>
      <point x="44" y="-51"/>
      <point x="159" y="-51" type="curve" smooth="yes"/>
      <point x="229" y="-51"/>
      <point x="298" y="-14"/>
      <point x="343" y="42" type="curve"/>
      <point x="294" y="77" type="line"/>
      <point x="263" y="37"/>
      <point x="213" y="9"/>
      <point x="161" y="9" type="curve" smooth="yes"/>
      <point x="82" y="9"/>
      <point x="28" y="73"/>
      <point x="39" y="152" type="curve" smooth="yes"/>
      <point x="46" y="203"/>
      <point x="72" y="244"/>
      <point x="138" y="306" type="curve" smooth="yes"/>
      <point x="230" y="400"/>
      <point x="254" y="435"/>
      <point x="267" y="530" type="curve"/>
    </contour>
    <contour>
      <point x="281" y="590"/>
      <point x="310" y="616"/>
      <point x="315" y="648" type="curve" smooth="yes"/>
      <point x="320" y="683"/>
      <point x="295" y="712"/>
      <point x="260" y="712" type="curve" smooth="yes"/>
      <point x="228" y="712"/>
      <point x="198" y="687"/>
      <point x="194" y="654" type="curve" smooth="yes"/>
      <point x="189" y="620"/>
      <point x="214" y="590"/>
      <point x="249" y="590" type="curve" smooth="yes"/>
    </contour>
  </outline>
</glyph>
<glyph name="AE" format="1">
  <advance width="1030"/>
  <unicode hex="00C6"/>
  <outline>
    <contour>
      <point x="62" y="0" type="line"/>
      <point x="334" y="585" type="line" smooth="yes"/>
      <point x="350" y="616"/>
      <point x="386" y="640"/>
      <point x="419" y="640" type="curve" smooth="yes"/>
      <point x="998" y="640" type="line"/>
      <point x="1006" y="700" type="line"/>
      <point x="425" y="700" type="line" smooth="yes"/>
      <point x="364" y="700"/>
      <point x="308" y="666"/>
      <point x="280" y="609" type="curve" smooth="yes"/>
      <point x="-3" y="0" type="line"/>
    </contour>
    <contour>
      <point x="508" y="320" type="line"/>
      <point x="831" y="320" type="line"/>
      <point x="839" y="380" type="line"/>
      <point x="516" y="380" type="line"/>
      <point x="555" y="655" type="line"/>
      <point x="495" y="655" type="line"/>
      <point x="436" y="238" type="line"/>
      <point x="131" y="238" type="line"/>
      <point x="124" y="185" type="line"/>
      <point x="429" y="185" type="line"/>
      <point x="412" y="62" type="line" smooth="yes"/>
      <point x="406" y="23"/>
      <point x="426" y="0"/>
      <point x="465" y="0" type="curve" smooth="yes"/>
      <point x="908" y="0" type="line"/>
      <point x="916" y="60" type="line"/>
      <point x="471" y="60" type="line"/>
    </contour>
  </outline>
</glyph>
<glyph name="multiply" format="1">
  <advance width="457"/>
  <unicode hex="00D7"/>
  <outline>
    <contour>
      <point x="72" y="246" type="line"/>
      <point x="111" y="203" type="line"/>
      <point x="399" y="458" type="line"/>
      <point x="362" y="500" type="line"/>
    </contour>
    <contour>
      <point x="150" y="500" type="line"/>
      <point x="102" y="458" type="line"/>
      <point x="323" y="203" type="line"/>
      <point x="369" y="246" type="line"/>
    </contour>
  </outline>
</glyph>
<glyph name="Thorn" format="1">
  <advance width="733"/>
  <unicode hex="00DE"/>
  <outline>
    <contour>
      <point x="430" y="130" type="line" smooth="yes"/>
      <point x="552" y="130"/>
      <point x="663" y="226"/>
      <point x="680" y="347" type="curve" smooth="yes"/>
      <point x="697" y="470"/>
      <point x="609" y="570"/>
      <point x="487" y="570" type="curve" smooth="yes"/>
      <point x="162" y="570" type="line"/>
      <point x="154" y="510" type="line"/>
      <point x="482" y="510" type="line" smooth="yes"/>
      <point x="571" y="510"/>
      <point x="633" y="440"/>
      <point x="620" y="353" type="curve" smooth="yes"/>
      <point x="608" y="264"/>
      <point x="524" y="190"/>
      <point x="435" y="190" type="curve" smooth="yes"/>
      <point x="109" y="190" type="line"/>
      <point x="100" y="130" type="line"/>
    </contour>
    <contour>
      <point x="98" y="0" type="line"/>
      <point x="196" y="700" type="line"/>
      <point x="136" y="700" type="line"/>
      <point x="38" y="0" type="line"/>
    </contour>
  </outline>
</glyph>
<glyph name="germandbls" format="1">
  <advance width="648"/>
  <unicode hex="00DF"/>
  <outline>
    <contour>
      <point x="373" y="0" type="line" smooth="yes"/>
      <point x="469" y="0"/>
      <point x="557" y="77"/>
      <point x="570" y="175" type="curve" smooth="yes"/>
      <point x="584" y="272"/>
      <point x="515" y="353"/>
      <point x="420" y="353" type="curve"/>
      <point x="558" y="657" type="line"/>
      <point x="515" y="685"/>
      <point x="446" y="710"/>
      <point x="370" y="710" type="curve" smooth="yes"/>
      <point x="233" y="710"/>
      <point x="124" y="615"/>
      <point x="108" y="496" type="curve" smooth="yes"/>
      <point x="38" y="0" type="line"/>
      <point x="98" y="0" type="line"/>
      <point x="167" y="492" type="line" smooth="yes"/>
      <point x="179" y="579"/>
      <point x="261" y="650"/>
      <point x="369" y="650" type="curve" smooth="yes"/>
      <point x="422" y="650"/>
      <point x="466" y="636"/>
      <point x="483" y="627" type="curve"/>
      <point x="358" y="355" type="line" smooth="yes"/>
      <point x="355" y="349"/>
      <point x="354" y="344"/>
      <point x="354" y="340" type="curve" smooth="yes"/>
      <point x="350" y="315"/>
      <point x="369" y="293"/>
      <point x="394" y="293" type="curve" smooth="yes"/>
      <point x="400" y="293"/>
      <point x="408" y="293"/>
      <point x="416" y="293" type="curve" smooth="yes"/>
      <point x="477" y="293"/>
      <point x="520" y="243"/>
      <point x="511" y="181" type="curve" smooth="yes"/>
      <point x="502" y="115"/>
      <point x="441" y="60"/>
      <point x="378" y="60" type="curve" smooth="yes"/>
      <point x="206" y="60" type="line"/>
      <point x="198" y="0" type="line"/>
    </contour>
  </outline>
</glyph>
<glyph name="ae" format="1">
  <advance width="1228"/>
  <unicode hex="00E6"/>
  <outline>
    <contour>
      <point x="449" y="0" type="line" smooth="yes"/>
      <point x="518" y="0"/>
      <point x="574" y="49"/>
      <point x="583" y="118" type="curve" smooth="yes"/>
      <point x="621" y="383" type="line" smooth="yes"/>
      <point x="637" y="501"/>
      <point x="552" y="600"/>
      <point x="434" y="600" type="curve" smooth="yes"/>
      <point x="166" y="600" type="line"/>
      <point x="158" y="540" type="line"/>
      <point x="429" y="540" type="line" smooth="yes"/>
      <point x="514" y="540"/>
      <point x="573" y="472"/>
      <point x="561" y="387" type="curve" smooth="yes"/>
      <point x="524" y="123" type="line" smooth="yes"/>
      <point x="519" y="88"/>
      <point x="488" y="60"/>
      <point x="453" y="60" type="curve" smooth="yes"/>
      <point x="200" y="60" type="line" smooth="yes"/>
      <point x="128" y="60"/>
      <point x="92" y="101"/>
      <point x="102" y="172" type="curve" smooth="yes"/>
      <point x="111" y="236"/>
      <point x="172" y="290"/>
      <point x="235" y="290" type="curve" smooth="yes"/>
      <point x="571" y="290" type="line"/>
      <point x="579" y="350" type="line"/>
      <point x="240" y="350" type="line" smooth="yes"/>
      <point x="144" y="350"/>
      <point x="56" y="274"/>
      <point x="43" y="178" type="curve" smooth="yes"/>
      <point x="28" y="71"/>
      <point x="90" y="0"/>
      <point x="195" y="0" type="curve" smooth="yes"/>
    </contour>
    <contour>
      <point x="932" y="-9"/>
      <point x="1040" y="54"/>
      <point x="1107" y="146" type="curve"/>
      <point x="1058" y="178" type="line"/>
      <point x="1002" y="101"/>
      <point x="912" y="52"/>
      <point x="821" y="51" type="curve" smooth="yes"/>
      <point x="684" y="49"/>
      <point x="590" y="161"/>
      <point x="609" y="298" type="curve" smooth="yes"/>
      <point x="628" y="437"/>
      <point x="758" y="550"/>
      <point x="897" y="550" type="curve" smooth="yes"/>
      <point x="1034" y="550"/>
      <point x="1128" y="440"/>
      <point x="1110" y="301" type="curve"/>
      <point x="1125" y="309"/>
      <point x="1141" y="320"/>
      <point x="1157" y="330" type="curve"/>
      <point x="598" y="331" type="line"/>
      <point x="590" y="271" type="line"/>
      <point x="1135" y="271" type="line" smooth="yes"/>
      <point x="1152" y="271"/>
      <point x="1166" y="282"/>
      <point x="1168" y="297" type="curve" smooth="yes"/>
      <point x="1192" y="469"/>
      <point x="1072" y="609"/>
      <point x="899" y="610" type="curve" smooth="yes"/>
      <point x="730" y="611"/>
      <point x="573" y="474"/>
      <point x="550" y="304" type="curve" smooth="yes"/>
      <point x="525" y="132"/>
      <point x="646" y="-9"/>
      <point x="819" y="-9" type="curve" smooth="yes"/>
    </contour>
  </outline>
</glyph>
<glyph name="eth" format="1">
  <advance width="761"/>
  <unicode hex="00F0"/>
  <outline>
    <contour>
      <point x="500" y="-9"/>
      <point x="657" y="128"/>
      <point x="681" y="298" type="curve" smooth="yes"/>
      <point x="705" y="470"/>
      <point x="583" y="611"/>
      <point x="410" y="611" type="curve" smooth="yes"/>
      <point x="241" y="611"/>
      <point x="84" y="474"/>
      <point x="61" y="304" type="curve" smooth="yes"/>
      <point x="36" y="132"/>
      <point x="157" y="-9"/>
      <point x="330" y="-9" type="curve" smooth="yes"/>
    </contour>
    <contour>
      <point x="195" y="51"/>
      <point x="101" y="161"/>
      <point x="120" y="298" type="curve" smooth="yes"/>
      <point x="139" y="437"/>
      <point x="269" y="551"/>
      <point x="409" y="551" type="curve" smooth="yes"/>
      <point x="545" y="551"/>
      <point x="641" y="441"/>
      <point x="622" y="304" type="curve" smooth="yes"/>
      <point x="602" y="165"/>
      <point x="472" y="51"/>
      <point x="332" y="51" type="curve" smooth="yes"/>
    </contour>
    <contour>
      <point x="681" y="299" type="line"/>
      <point x="709" y="498"/>
      <point x="681" y="685"/>
      <point x="612" y="847" type="curve"/>
      <point x="555" y="823" type="line"/>
      <point x="624" y="663"/>
      <point x="647" y="486"/>
      <point x="621" y="303" type="curve"/>
    </contour>
    <contour>
      <point x="721" y="777" type="line"/>
      <point x="703" y="831" type="line"/>
      <point x="497" y="740" type="line"/>
      <point x="515" y="686" type="line"/>
    </contour>
  </outline>
</glyph>
<glyph name="divide" format="1">
  <advance width="520"/>
  <unicode hex="00F7"/>
  <outline>
    <contour>
      <point x="91" y="380" type="line"/>
      <point x="83" y="320" type="line"/>
      <point x="443" y="320" type="line"/>
      <point x="451" y="380" type="line"/>
    </contour>
    <contour>
      <point x="308" y="440"/>
      <point x="333" y="461"/>
      <point x="336" y="487" type="curve" smooth="yes"/>
      <point x="340" y="516"/>
      <point x="319" y="540"/>
      <point x="290" y="540" type="curve" smooth="yes"/>
      <point x="264" y="540"/>
      <point x="241" y="520"/>
      <point x="237" y="493" type="curve" smooth="yes"/>
      <point x="233" y="465"/>
      <point x="253" y="440"/>
      <point x="283" y="440" type="curve" smooth="yes"/>
    </contour>
    <contour>
      <point x="269" y="160"/>
      <point x="293" y="181"/>
      <point x="297" y="207" type="curve" smooth="yes"/>
      <point x="301" y="236"/>
      <point x="280" y="260"/>
      <point x="251" y="260" type="curve" smooth="yes"/>
      <point x="225" y="260"/>
      <point x="202" y="240"/>
      <point x="198" y="213" type="curve" smooth="yes"/>
      <point x="194" y="185"/>
      <point x="214" y="160"/>
      <point x="244" y="160" type="curve" smooth="yes"/>
    </contour>
  </outline>
</glyph>
<glyph name="thorn" format="1">
  <advance width="714"/>
  <unicode hex="00FE"/>
  <outline>
    <contour>
      <point x="210" y="800" type="line"/>
      <point x="150" y="800" type="line"/>
      <point x="10" y="-199" type="line"/>
      <point x="70" y="-199" type="line"/>
    </contour>
    <contour>
      <point x="575" y="166"/>
      <point x="444" y="51"/>
      <point x="306" y="51" type="curve" smooth="yes"/>
      <point x="226" y="51"/>
      <point x="154" y="90"/>
      <point x="114" y="161" type="curve"/>
      <point x="68" y="123" type="line"/>
      <point x="114" y="44"/>
      <point x="198" y="-9"/>
      <point x="304" y="-9" type="curve" smooth="yes"/>
      <point x="472" y="-9"/>
      <point x="630" y="130"/>
      <point x="654" y="298" type="curve" smooth="yes"/>
      <point x="678" y="468"/>
      <point x="556" y="611"/>
      <point x="384" y="611" type="curve" smooth="yes"/>
      <point x="282" y="611"/>
      <point x="185" y="560"/>
      <point x="117" y="481" type="curve"/>
      <point x="156" y="439" type="line"/>
      <point x="215" y="510"/>
      <point x="300" y="551"/>
      <point x="383" y="551" type="curve" smooth="yes"/>
      <point x="518" y="551"/>
      <point x="614" y="440"/>
      <point x="595" y="304" type="curve" smooth="yes"/>
    </contour>
  </outline>
</glyph>
<glyph name="idotless" format="1">
  <advance width="260"/>
  <unicode hex="0131"/>
  <outline>
    <contour>
      <point x="58" y="0" type="line"/>
      <point x="118" y="0" type="line"/>
      <point x="202" y="600" type="line"/>
      <point x="142" y="600" type="line"/>
    </contour>
    <contour>
      <point x="64" y="-167" type="move" name="below"/>
    </contour>
    <contour>
      <point x="195" y="759" type="move" name="accent"/>
    </contour>
    <contour>
      <point x="224" y="969" type="move" name="above"/>
    </contour>
    <contour>
      <point x="95" y="8" type="move" name="bottom"/>
    </contour>
  </outline>
</glyph>
<glyph name="Eng" format="1">
  <advance width="817"/>
  <unicode hex="014A"/>
  <outline>
    <contour>
      <point x="664" y="-22" type="line"/>
      <point x="672" y="38" type="line"/>
      <point x="553" y="38" type="line"/>
      <point x="517" y="38"/>
      <point x="487" y="58"/>
      <point x="481" y="98" type="curve" smooth="yes"/>
      <point x="408" y="615" type="line" smooth="yes"/>
      <point x="400" y="682"/>
      <point x="348" y="723"/>
      <point x="282" y="723" type="curve" smooth="yes"/>
      <point x="231" y="723"/>
      <point x="134" y="688"/>
      <point x="119" y="580" type="curve" smooth="yes"/>
      <point x="38" y="0" type="line"/>
      <point x="98" y="0" type="line"/>
      <point x="179" y="576" type="line" smooth="yes"/>
      <point x="186" y="625"/>
      <point x="230" y="663"/>
      <point x="281" y="663" type="curve" smooth="yes"/>
      <point x="317" y="663"/>
      <point x="344" y="642"/>
      <point x="351" y="603" type="curve"/>
      <point x="423" y="86" type="line" smooth="yes"/>
      <point x="432" y="19"/>
      <point x="484" y="-22"/>
      <point x="547" y="-22" type="curve"/>
    </contour>
    <contour>
      <point x="464" y="-230" type="line" smooth="yes"/>
      <point x="594" y="-230"/>
      <point x="672" y="-162"/>
      <point x="690" y="-32" type="curve" smooth="yes"/>
      <point x="793" y="701" type="line"/>
      <point x="733" y="701" type="line"/>
      <point x="631" y="-28" type="line" smooth="yes"/>
      <point x="617" y="-125"/>
      <point x="565" y="-170"/>
      <point x="469" y="-170" type="curve" smooth="yes"/>
      <point x="402" y="-170" type="line"/>
      <point x="394" y="-230" type="line"/>
    </contour>
    <contour>
      <point x="489" y="869" type="move" name="accent"/>
    </contour>
  </outline>
</glyph>
<glyph name="eng" format="1">
  <advance width="734"/>
  <unicode hex="014B"/>
  <outline>
    <contour>
      <point x="381" y="-230" type="line" smooth="yes"/>
      <point x="511" y="-230"/>
      <point x="589" y="-162"/>
      <point x="607" y="-32" type="curve"/>
      <point x="654" y="299" type="line" smooth="yes"/>
      <point x="678" y="468"/>
      <point x="556" y="611"/>
      <point x="384" y="611" type="curve" smooth="yes"/>
      <point x="291" y="611"/>
      <point x="200" y="568"/>
      <point x="132" y="502" type="curve" smooth="yes"/>
      <point x="110" y="476"/>
      <point x="101" y="452"/>
      <point x="97" y="420" type="curve" smooth="yes"/>
      <point x="38" y="0" type="line"/>
      <point x="98" y="0" type="line"/>
      <point x="156" y="416" type="line" smooth="yes"/>
      <point x="160" y="439"/>
      <point x="165" y="449"/>
      <point x="176" y="457" type="curve" smooth="yes"/>
      <point x="231" y="517"/>
      <point x="307" y="551"/>
      <point x="383" y="551" type="curve" smooth="yes"/>
      <point x="518" y="551"/>
      <point x="614" y="440"/>
      <point x="594" y="303" type="curve" smooth="yes"/>
      <point x="548" y="-28" type="line" smooth="yes"/>
      <point x="534" y="-125"/>
      <point x="482" y="-170"/>
      <point x="386" y="-170" type="curve" smooth="yes"/>
      <point x="319" y="-170" type="line"/>
      <point x="311" y="-230" type="line"/>
    </contour>
    <contour>
      <point x="409" y="759" type="move" name="accent"/>
    </contour>
  </outline>
</glyph>
<glyph name="OE" format="1">
  <advance width="1215"/>
  <unicode hex="0152"/>
  <outline>
    <contour>
      <point x="599" y="-25"/>
      <point x="789" y="141"/>
      <point x="818" y="347" type="curve"/>
      <point x="847" y="555"/>
      <point x="701" y="725"/>
      <point x="491" y="725" type="curve"/>
      <point x="286" y="725"/>
      <point x="96" y="559"/>
      <point x="67" y="353" type="curve"/>
      <point x="38" y="145"/>
      <point x="184" y="-25"/>
      <point x="393" y="-25" type="curve"/>
    </contour>
    <contour>
      <point x="222" y="35"/>
      <point x="102" y="174"/>
      <point x="127" y="347" type="curve"/>
      <point x="151" y="522"/>
      <point x="314" y="665"/>
      <point x="490" y="665" type="curve"/>
      <point x="663" y="665"/>
      <point x="783" y="526"/>
      <point x="758" y="353" type="curve"/>
      <point x="734" y="178"/>
      <point x="571" y="35"/>
      <point x="394" y="35" type="curve"/>
    </contour>
    <contour>
      <point x="1093" y="0" type="line"/>
      <point x="1101" y="60" type="line"/>
      <point x="551" y="62" type="line"/>
      <point x="545" y="23"/>
      <point x="565" y="0"/>
      <point x="604" y="0" type="curve" smooth="yes"/>
    </contour>
    <contour>
      <point x="976" y="320" type="line"/>
      <point x="984" y="380" type="line"/>
      <point x="795" y="380" type="line"/>
      <point x="787" y="320" type="line"/>
    </contour>
    <contour>
      <point x="1183" y="640" type="line"/>
      <point x="1191" y="700" type="line"/>
      <point x="699" y="700" type="line" smooth="yes"/>
      <point x="660" y="700"/>
      <point x="638" y="681"/>
      <point x="632" y="642" type="curve"/>
    </contour>
  </outline>
</glyph>
<glyph name="oe" format="1">
  <advance width="1300"/>
  <unicode hex="0153"/>
  <outline>
    <contour>
      <point x="1004" y="-9"/>
      <point x="1112" y="54"/>
      <point x="1179" y="146" type="curve"/>
      <point x="1130" y="178" type="line"/>
      <point x="1074" y="101"/>
      <point x="984" y="52"/>
      <point x="893" y="51" type="curve" smooth="yes"/>
      <point x="756" y="49"/>
      <point x="662" y="161"/>
      <point x="681" y="298" type="curve" smooth="yes"/>
      <point x="700" y="437"/>
      <point x="830" y="550"/>
      <point x="969" y="550" type="curve" smooth="yes"/>
      <point x="1106" y="550"/>
      <point x="1200" y="440"/>
      <point x="1182" y="301" type="curve"/>
      <point x="1197" y="309"/>
      <point x="1213" y="320"/>
      <point x="1229" y="330" type="curve"/>
      <point x="670" y="331" type="line"/>
      <point x="662" y="271" type="line"/>
      <point x="1207" y="271" type="line" smooth="yes"/>
      <point x="1224" y="271"/>
      <point x="1238" y="282"/>
      <point x="1240" y="297" type="curve" smooth="yes"/>
      <point x="1264" y="469"/>
      <point x="1144" y="609"/>
      <point x="971" y="610" type="curve" smooth="yes"/>
      <point x="802" y="611"/>
      <point x="645" y="474"/>
      <point x="622" y="304" type="curve" smooth="yes"/>
      <point x="597" y="132"/>
      <point x="718" y="-9"/>
      <point x="891" y="-9" type="curve" smooth="yes"/>
    </contour>
    <contour>
      <point x="545" y="551"/>
      <point x="641" y="441"/>
      <point x="622" y="304" type="curve" smooth="yes"/>
      <point x="602" y="165"/>
      <point x="472" y="51"/>
      <point x="332" y="51" type="curve" smooth="yes"/>
      <point x="195" y="51"/>
      <point x="101" y="161"/>
      <point x="120" y="298" type="curve" smooth="yes"/>
      <point x="139" y="437"/>
      <point x="269" y="551"/>
      <point x="409" y="551" type="curve" smooth="yes"/>
    </contour>
    <contour>
      <point x="241" y="611"/>
      <point x="84" y="474"/>
      <point x="61" y="304" type="curve"/>
      <point x="36" y="132"/>
      <point x="157" y="-9"/>
      <point x="330" y="-9" type="curve"/>
      <point x="500" y="-9"/>
      <point x="657" y="128"/>
      <point x="681" y="298" type="curve"/>
      <point x="705" y="470"/>
      <point x="583" y="611"/>
      <point x="410" y="611" type="curve"/>
    </contour>
    <contour>
      <point x="1097" y="759" type="move" name="accent"/>
    </contour>
  </outline>
</glyph>
<glyph name="jdotless" format="1">
  <advance width="220"/>
  <unicode hex="0237"/>
  <outline>
    <contour>
      <point x="-133" y="-230" type="line" smooth="yes"/>
      <point x="-3" y="-230"/>
      <point x="75" y="-162"/>
      <point x="93" y="-32" type="curve" smooth="yes"/>
      <point x="182" y="600" type="line"/>
      <point x="122" y="600" type="line"/>
      <point x="34" y="-28" type="line" smooth="yes"/>
      <point x="20" y="-125"/>
      <point x="-32" y="-170"/>
      <point x="-128" y="-170" type="curve" smooth="yes"/>
      <point x="-195" y="-170" type="line"/>
      <point x="-203" y="-230" type="line"/>
    </contour>
    <contour>
      <point x="174" y="759" type="move" name="accent"/>
    </contour>
  </outline>
</glyph>
<glyph name="breve" format="1">
  <advance width="370"/>
  <unicode hex="02D8"/>
  <outline>
    <contour>
      <point x="265" y="615"/>
      <point x="330" y="679"/>
      <point x="330" y="760" type="curve"/>
      <point x="270" y="760" type="line"/>
      <point x="270" y="712"/>
      <point x="233" y="675"/>
      <point x="185" y="675" type="curve" smooth="yes"/>
      <point x="137" y="675"/>
      <point x="100" y="712"/>
      <point x="100" y="760" type="curve"/>
      <point x="40" y="760" type="line"/>
      <point x="40" y="679"/>
      <point x="104" y="615"/>
      <point x="185" y="615" type="curve" smooth="yes"/>
    </contour>
    <contour>
      <point x="185" y="700" type="move" name="_accent"/>
    </contour>
    <contour>
      <point x="185" y="700" type="move" name="_below"/>
    </contour>
  </outline>
</glyph>
<glyph name="ogonek" format="1">
  <advance width="222"/>
  <unicode hex="02DB"/>
  <outline>
    <contour>
      <point x="118" y="-126" type="line"/>
      <point x="104" y="-139"/>
      <point x="84" y="-148"/>
      <point x="64" y="-148" type="curve" smooth="yes"/>
      <point x="26" y="-148"/>
      <point x="1" y="-119"/>
      <point x="6" y="-81" type="curve" smooth="yes"/>
      <point x="12" y="-43"/>
      <point x="46" y="-10"/>
      <point x="82" y="-8" type="curve"/>
      <point x="81" y="51" type="line"/>
      <point x="15" y="45"/>
      <point x="-43" y="-8"/>
      <point x="-53" y="-75" type="curve" smooth="yes"/>
      <point x="-63" y="-148"/>
      <point x="-12" y="-208"/>
      <point x="62" y="-208" type="curve" smooth="yes"/>
      <point x="96" y="-208"/>
      <point x="131" y="-194"/>
      <point x="157" y="-170" type="curve"/>
    </contour>
    <contour>
      <point x="58" y="0" type="move" name="_bottom"/>
    </contour>
  </outline>
</glyph>
<glyph name="gravecomb" format="1">
  <advance width="203"/>
  <unicode hex="0300"/>
  <outline>
    <component base="grave" xOffset="-84" yxScale="0.141"/>
    <contour>
      <point x="134" y="680" type="move" name="_accent"/>
    </contour>
    <contour>
      <point x="134" y="680" type="move" name="_below"/>
    </contour>
    <contour>
      <point x="134" y="680" type="move" name="_above"/>
    </contour>
  </outline>
</glyph>
<glyph name="acutecomb" format="1">
  <advance width="203"/>
  <unicode hex="0301"/>
  <outline>
    <component base="acute" xOffset="-84" yxScale="0.141"/>
    <contour>
      <point x="80" y="680" type="move" name="_accent"/>
    </contour>
    <contour>
      <point x="73" y="625" type="move" name="_accentside"/>
    </contour>
    <contour>
      <point x="80" y="680" type="move" name="_above"/>
    </contour>
    <contour>
      <point x="80" y="680" type="move" name="_below"/>
    </contour>
  </outline>
</glyph>
<glyph name="tildecomb" format="1">
  <advance width="600"/>
  <unicode hex="0303"/>
  <outline>
    <contour>
      <point x="500" y="708"/>
      <point x="552" y="729"/>
      <point x="586" y="761" type="curve"/>
      <point x="548" y="799" type="line"/>
      <point x="527" y="778"/>
      <point x="492" y="763"/>
      <point x="462" y="763" type="curve" smooth="yes"/>
      <point x="446" y="763"/>
      <point x="420" y="770"/>
      <point x="396" y="781" type="curve" smooth="yes"/>
      <point x="369" y="795"/>
      <point x="335" y="805"/>
      <point x="313" y="805" type="curve" smooth="yes"/>
      <point x="270" y="805"/>
      <point x="218" y="784"/>
      <point x="183" y="750" type="curve"/>
      <point x="221" y="712" type="line"/>
      <point x="243" y="734"/>
      <point x="278" y="750"/>
      <point x="307" y="750" type="curve" smooth="yes"/>
      <point x="324" y="750"/>
      <point x="354" y="743"/>
      <point x="379" y="731" type="curve" smooth="yes"/>
      <point x="404" y="716"/>
      <point x="435" y="708"/>
      <point x="455" y="708" type="curve" smooth="yes"/>
    </contour>
    <contour>
      <point x="385" y="776" type="move" name="_accent"/>
    </contour>
    <contour>
      <point x="385" y="775" type="move" name="_below"/>
    </contour>
    <contour>
      <point x="385" y="775" type="move" name="_above"/>
    </contour>
  </outline>
</glyph>
<glyph name="brevecomb" format="1">
  <advance width="370"/>
  <unicode hex="0306"/>
  <outline>
    <contour>
      <point x="309" y="615"/>
      <point x="383" y="679"/>
      <point x="395" y="760" type="curve"/>
      <point x="335" y="760" type="line"/>
      <point x="328" y="712"/>
      <point x="286" y="675"/>
      <point x="238" y="675" type="curve" smooth="yes"/>
      <point x="192" y="675"/>
      <point x="164" y="703"/>
      <point x="164" y="760" type="curve"/>
      <point x="105" y="760" type="line"/>
      <point x="104" y="753"/>
      <point x="103" y="746"/>
      <point x="103" y="739" type="curve" smooth="yes"/>
      <point x="103" y="668"/>
      <point x="156" y="615"/>
      <point x="229" y="615" type="curve" smooth="yes"/>
    </contour>
    <contour>
      <point x="241" y="700" type="move" name="_accent"/>
    </contour>
    <contour>
      <point x="241" y="700" type="move" name="_below"/>
    </contour>
    <contour>
      <point x="241" y="700" type="move" name="_above"/>
    </contour>
  </outline>
</glyph>
<glyph name="ringcomb" format="1">
  <advance width="252"/>
  <unicode hex="030A"/>
  <outline>
    <contour>
      <point x="226" y="605"/>
      <point x="278" y="654"/>
      <point x="278" y="714" type="curve" smooth="yes"/>
      <point x="278" y="760"/>
      <point x="244" y="795"/>
      <point x="196" y="795" type="curve" smooth="yes"/>
      <point x="138" y="795"/>
      <point x="86" y="746"/>
      <point x="86" y="686" type="curve" smooth="yes"/>
      <point x="86" y="640"/>
      <point x="121" y="605"/>
      <point x="169" y="605" type="curve" smooth="yes"/>
    </contour>
    <contour>
      <point x="157" y="661"/>
      <point x="143" y="675"/>
      <point x="143" y="694" type="curve" smooth="yes"/>
      <point x="143" y="719"/>
      <point x="164" y="739"/>
      <point x="188" y="739" type="curve" smooth="yes"/>
      <point x="208" y="739"/>
      <point x="222" y="725"/>
      <point x="222" y="706" type="curve" smooth="yes"/>
      <point x="222" y="681"/>
      <point x="201" y="661"/>
      <point x="177" y="661" type="curve" smooth="yes"/>
    </contour>
    <contour>
      <point x="182" y="700" type="move" name="_accent"/>
    </contour>
  </outline>
</glyph>
<glyph name="cedillacomb" format="1">
  <advance width="242"/>
  <unicode hex="0327"/>
  <outline>
    <component base="cedilla"/>
    <contour>
      <point x="89" y="0" type="move" name="_bottom"/>
    </contour>
  </outline>
</glyph>
<glyph name="ogonekcomb" format="1">
  <advance width="222"/>
  <unicode hex="0328"/>
  <outline>
    <component base="ogonek"/>
    <contour>
      <point x="100" y="0" type="move" name="_bottom"/>
    </contour>
  </outline>
</glyph>
<glyph name="strokelongcomb" format="1">
  <advance width="700"/>
  <unicode hex="0336"/>
  <outline>
    <contour>
      <point x="0" y="321" type="line"/>
      <point x="700" y="321" type="line"/>
      <point x="700" y="381" type="line"/>
      <point x="0" y="381" type="line"/>
    </contour>
    <contour>
      <point x="350" y="351" type="move" name="_bar"/>
    </contour>
  </outline>
</glyph>
<glyph name="Dje-cy" format="1">
  <advance width="838"/>
  <unicode hex="0402"/>
  <outline>
    <contour>
      <point x="654" y="0"/>
      <point x="767" y="107"/>
      <point x="767" y="235" type="curve" smooth="yes"/>
      <point x="767" y="338"/>
      <point x="690" y="418"/>
      <point x="582" y="418" type="curve" smooth="yes"/>
      <point x="468" y="418"/>
      <point x="364" y="327"/>
      <point x="347" y="211" type="curve"/>
      <point x="407" y="207" type="line"/>
      <point x="419" y="290"/>
      <point x="496" y="358"/>
      <point x="581" y="358" type="curve" smooth="yes"/>
      <point x="655" y="358"/>
      <point x="707" y="304"/>
      <point x="707" y="233" type="curve" smooth="yes"/>
      <point x="707" y="140"/>
      <point x="623" y="60"/>
      <point x="533" y="60" type="curve"/>
      <point x="528" y="0" type="line"/>
    </contour>
    <contour>
      <point x="378" y="0" type="line"/>
      <point x="472" y="670" type="line"/>
      <point x="412" y="670" type="line"/>
      <point x="318" y="0" type="line"/>
    </contour>
    <contour>
      <point x="748" y="640" type="line"/>
      <point x="756" y="700" type="line"/>
      <point x="136" y="700" type="line"/>
      <point x="128" y="640" type="line"/>
    </contour>
    <contour>
      <point x="325" y="-167" type="move" name="below"/>
    </contour>
    <contour>
      <point x="471" y="869" type="move" name="accent"/>
    </contour>
    <contour>
      <point x="496" y="1049" type="move" name="above"/>
    </contour>
    <contour>
      <point x="398" y="350" type="move" name="slash"/>
    </contour>
    <contour>
      <point x="346" y="-18" type="move" name="bottom"/>
    </contour>
  </outline>
</glyph>
<glyph name="E-cy" format="1">
  <advance width="840"/>
  <unicode hex="0404"/>
  <outline>
    <contour>
      <point x="528" y="-25"/>
      <point x="660" y="50"/>
      <point x="740" y="162" type="curve"/>
      <point x="692" y="192" type="line"/>
      <point x="623" y="91"/>
      <point x="504" y="35"/>
      <point x="397" y="35" type="curve" smooth="yes"/>
      <point x="211" y="35"/>
      <point x="124" y="172"/>
      <point x="124" y="306" type="curve" smooth="yes"/>
      <point x="124" y="493"/>
      <point x="290" y="665"/>
      <point x="486" y="665" type="curve" smooth="yes"/>
      <point x="615" y="665"/>
      <point x="701" y="594"/>
      <point x="737" y="508" type="curve"/>
      <point x="793" y="538" type="line"/>
      <point x="744" y="650"/>
      <point x="633" y="725"/>
      <point x="494" y="725" type="curve" smooth="yes"/>
      <point x="267" y="725"/>
      <point x="63" y="523"/>
      <point x="63" y="297" type="curve" smooth="yes"/>
      <point x="63" y="115"/>
      <point x="200" y="-25"/>
      <point x="389" y="-25" type="curve" smooth="yes"/>
    </contour>
    <contour>
      <point x="446" y="381" type="line"/>
      <point x="100" y="381" type="line"/>
      <point x="92" y="321" type="line"/>
      <point x="438" y="321" type="line"/>
    </contour>
    <contour>
      <point x="368" y="-167" type="move" name="below"/>
    </contour>
    <contour>
      <point x="514" y="869" type="move" name="accent"/>
    </contour>
    <contour>
      <point x="539" y="1049" type="move" name="above"/>
    </contour>
    <contour>
      <point x="441" y="350" type="move" name="slash"/>
    </contour>
    <contour>
      <point x="389" y="-18" type="move" name="bottom"/>
    </contour>
  </outline>
</glyph>
<glyph name="Dze-cy" format="1">
  <advance width="748"/>
  <unicode hex="0405"/>
  <outline>
    <contour>
      <point x="325" y="700" type="line" smooth="yes"/>
      <point x="211" y="700"/>
      <point x="108" y="602"/>
      <point x="108" y="486" type="curve" smooth="yes"/>
      <point x="108" y="393"/>
      <point x="178" y="320"/>
      <point x="274" y="320" type="curve" smooth="yes"/>
      <point x="502" y="320" type="line" smooth="yes"/>
      <point x="568" y="320"/>
      <point x="614" y="273"/>
      <point x="614" y="211" type="curve" smooth="yes"/>
      <point x="614" y="130"/>
      <point x="541" y="60"/>
      <point x="463" y="60" type="curve" smooth="yes"/>
      <point x="60" y="60" type="line"/>
      <point x="52" y="0" type="line"/>
      <point x="458" y="0" type="line" smooth="yes"/>
      <point x="572" y="0"/>
      <point x="674" y="98"/>
      <point x="674" y="214" type="curve" smooth="yes"/>
      <point x="674" y="307"/>
      <point x="604" y="380"/>
      <point x="508" y="380" type="curve" smooth="yes"/>
      <point x="280" y="380" type="line" smooth="yes"/>
      <point x="214" y="380"/>
      <point x="168" y="427"/>
      <point x="168" y="489" type="curve" smooth="yes"/>
      <point x="168" y="570"/>
      <point x="241" y="640"/>
      <point x="319" y="640" type="curve" smooth="yes"/>
      <point x="696" y="640" type="line"/>
      <point x="704" y="700" type="line"/>
    </contour>
    <contour>
      <point x="318" y="-167" type="move" name="below"/>
    </contour>
    <contour>
      <point x="464" y="869" type="move" name="accent"/>
    </contour>
    <contour>
      <point x="489" y="1049" type="move" name="above"/>
    </contour>
    <contour>
      <point x="391" y="350" type="move" name="slash"/>
    </contour>
    <contour>
      <point x="339" y="-18" type="move" name="bottom"/>
    </contour>
  </outline>
</glyph>
<glyph name="I-cy" format="1">
  <advance width="260"/>
  <unicode hex="0406"/>
  <outline>
    <contour>
      <point x="156" y="700" type="line"/>
      <point x="58" y="0" type="line"/>
      <point x="118" y="0" type="line"/>
      <point x="216" y="700" type="line"/>
    </contour>
    <contour>
      <point x="63" y="-167" type="move" name="below"/>
    </contour>
    <contour>
      <point x="209" y="869" type="move" name="accent"/>
    </contour>
    <contour>
      <point x="234" y="1049" type="move" name="above"/>
    </contour>
    <contour>
      <point x="136" y="350" type="move" name="slash"/>
    </contour>
    <contour>
      <point x="84" y="-18" type="move" name="bottom"/>
    </contour>
  </outline>
</glyph>
<glyph name="Je-cy" format="1">
  <advance width="595"/>
  <unicode hex="0408"/>
  <outline>
    <contour>
      <point x="511" y="700" type="line"/>
      <point x="458" y="322" type="line"/>
      <point x="435" y="161"/>
      <point x="321" y="60"/>
      <point x="160" y="60" type="curve"/>
      <point x="6" y="60" type="line"/>
      <point x="-2" y="0" type="line"/>
      <point x="155" y="0" type="line"/>
      <point x="349" y="0"/>
      <point x="490" y="124"/>
      <point x="518" y="318" type="curve"/>
      <point x="571" y="700" type="line"/>
    </contour>
    <contour>
      <point x="418" y="-167" type="move" name="below"/>
    </contour>
    <contour>
      <point x="564" y="869" type="move" name="accent"/>
    </contour>
    <contour>
      <point x="589" y="1049" type="move" name="above"/>
    </contour>
    <contour>
      <point x="491" y="350" type="move" name="slash"/>
    </contour>
    <contour>
      <point x="439" y="-18" type="move" name="bottom"/>
    </contour>
  </outline>
</glyph>
<glyph name="Lje-cy" format="1">
  <advance width="1060"/>
  <unicode hex="0409"/>
  <outline>
    <contour>
      <point x="645" y="606" type="line"/>
      <point x="646" y="611"/>
      <point x="646" y="615"/>
      <point x="646" y="620" type="curve" smooth="yes"/>
      <point x="646" y="666"/>
      <point x="613" y="700"/>
      <point x="565" y="700" type="curve" smooth="yes"/>
      <point x="314" y="700" type="line" smooth="yes"/>
      <point x="261" y="700"/>
      <point x="218" y="663"/>
      <point x="211" y="610" type="curve" smooth="yes"/>
      <point x="153" y="200" type="line" smooth="yes"/>
      <point x="140" y="103"/>
      <point x="88" y="60"/>
      <point x="-8" y="60" type="curve" smooth="yes"/>
      <point x="-14" y="60" type="line"/>
      <point x="-22" y="0" type="line"/>
      <point x="-13" y="0" type="line" smooth="yes"/>
      <point x="117" y="0"/>
      <point x="194" y="70"/>
      <point x="213" y="200" type="curve" smooth="yes"/>
      <point x="270" y="607" type="line"/>
      <point x="273" y="624"/>
      <point x="290" y="640"/>
      <point x="307" y="640" type="curve" smooth="yes"/>
      <point x="560" y="640" type="line" smooth="yes"/>
      <point x="577" y="640"/>
      <point x="588" y="628"/>
      <point x="586" y="611" type="curve" smooth="yes"/>
      <point x="509" y="62" type="line"/>
      <point x="508" y="57"/>
      <point x="508" y="53"/>
      <point x="508" y="49" type="curve" smooth="yes"/>
      <point x="508" y="18"/>
      <point x="528" y="0"/>
      <point x="562" y="0" type="curve" smooth="yes"/>
      <point x="761" y="0" type="line"/>
      <point x="882" y="7"/>
      <point x="989" y="111"/>
      <point x="989" y="235" type="curve" smooth="yes"/>
      <point x="989" y="338"/>
      <point x="912" y="418"/>
      <point x="806" y="418" type="curve" smooth="yes"/>
      <point x="604" y="418" type="line"/>
      <point x="595" y="358" type="line"/>
      <point x="801" y="358" type="line" smooth="yes"/>
      <point x="877" y="358"/>
      <point x="929" y="304"/>
      <point x="929" y="233" type="curve" smooth="yes"/>
      <point x="929" y="140"/>
      <point x="845" y="60"/>
      <point x="755" y="60" type="curve" smooth="yes"/>
      <point x="570" y="60" type="line" smooth="yes"/>
      <point x="569" y="60"/>
      <point x="568" y="60"/>
      <point x="568" y="62" type="curve" smooth="yes"/>
      <point x="612" y="373" type="line"/>
    </contour>
    <contour>
      <point x="458" y="-167" type="move" name="below"/>
    </contour>
    <contour>
      <point x="604" y="869" type="move" name="accent"/>
    </contour>
    <contour>
      <point x="629" y="1049" type="move" name="above"/>
    </contour>
    <contour>
      <point x="531" y="350" type="move" name="slash"/>
    </contour>
    <contour>
      <point x="479" y="-18" type="move" name="bottom"/>
    </contour>
  </outline>
</glyph>
<glyph name="Nje-cy" format="1">
  <advance width="1043"/>
  <unicode hex="040A"/>
  <outline>
    <contour>
      <point x="136" y="700" type="line"/>
      <point x="38" y="0" type="line"/>
      <point x="98" y="0" type="line"/>
      <point x="196" y="700" type="line"/>
    </contour>
    <contour>
      <point x="121" y="380" type="line"/>
      <point x="113" y="320" type="line"/>
      <point x="561" y="320" type="line"/>
      <point x="569" y="380" type="line"/>
    </contour>
    <contour>
      <point x="744" y="0" type="line"/>
      <point x="865" y="7"/>
      <point x="972" y="111"/>
      <point x="972" y="235" type="curve" smooth="yes"/>
      <point x="972" y="338"/>
      <point x="895" y="418"/>
      <point x="789" y="418" type="curve" smooth="yes"/>
      <point x="587" y="418" type="line"/>
      <point x="578" y="358" type="line"/>
      <point x="784" y="358" type="line" smooth="yes"/>
      <point x="860" y="358"/>
      <point x="912" y="304"/>
      <point x="912" y="233" type="curve" smooth="yes"/>
      <point x="912" y="140"/>
      <point x="828" y="60"/>
      <point x="738" y="60" type="curve" smooth="yes"/>
      <point x="553" y="60" type="line" smooth="yes"/>
      <point x="552" y="60"/>
      <point x="551" y="60"/>
      <point x="551" y="62" type="curve" smooth="yes"/>
      <point x="641" y="700" type="line"/>
      <point x="581" y="700" type="line"/>
      <point x="492" y="62" type="line" smooth="yes"/>
      <point x="491" y="57"/>
      <point x="491" y="53"/>
      <point x="491" y="49" type="curve" smooth="yes"/>
      <point x="491" y="18"/>
      <point x="511" y="0"/>
      <point x="545" y="0" type="curve" smooth="yes"/>
    </contour>
    <contour>
      <point x="438" y="-167" type="move" name="below"/>
    </contour>
    <contour>
      <point x="584" y="869" type="move" name="accent"/>
    </contour>
    <contour>
      <point x="609" y="1049" type="move" name="above"/>
    </contour>
    <contour>
      <point x="511" y="350" type="move" name="slash"/>
    </contour>
    <contour>
      <point x="459" y="-18" type="move" name="bottom"/>
    </contour>
  </outline>
</glyph>
<glyph name="Tshe-cy" format="1">
  <advance width="976"/>
  <unicode hex="040B"/>
  <outline>
    <contour>
      <point x="708" y="640" type="line"/>
      <point x="716" y="700" type="line"/>
      <point x="96" y="700" type="line"/>
      <point x="88" y="640" type="line"/>
    </contour>
    <component base="Shha-cy" xOffset="240"/>
    <contour>
      <point x="283" y="-167" type="move" name="below"/>
    </contour>
    <contour>
      <point x="429" y="869" type="move" name="accent"/>
    </contour>
    <contour>
      <point x="454" y="1049" type="move" name="above"/>
    </contour>
    <contour>
      <point x="356" y="350" type="move" name="slash"/>
    </contour>
    <contour>
      <point x="304" y="-18" type="move" name="bottom"/>
    </contour>
  </outline>
</glyph>
<glyph name="Dzhe-cy" format="1">
  <advance width="745"/>
  <unicode hex="040F"/>
  <outline>
    <contour>
      <point x="533" y="0" type="line" smooth="yes"/>
      <point x="586" y="0"/>
      <point x="628" y="37"/>
      <point x="636" y="90" type="curve" smooth="yes"/>
      <point x="721" y="700" type="line"/>
      <point x="661" y="700" type="line"/>
      <point x="576" y="93" type="line" smooth="yes"/>
      <point x="573" y="76"/>
      <point x="556" y="60"/>
      <point x="539" y="60" type="curve" smooth="yes"/>
      <point x="136" y="60" type="line" smooth="yes"/>
      <point x="119" y="60"/>
      <point x="108" y="72"/>
      <point x="110" y="89" type="curve" smooth="yes"/>
      <point x="196" y="700" type="line"/>
      <point x="136" y="700" type="line"/>
      <point x="51" y="94" type="line" smooth="yes"/>
      <point x="50" y="89"/>
      <point x="50" y="85"/>
      <point x="50" y="81" type="curve" smooth="yes"/>
      <point x="50" y="34"/>
      <point x="84" y="0"/>
      <point x="132" y="0" type="curve" smooth="yes"/>
    </contour>
    <contour>
      <point x="347" y="-100" type="line"/>
      <point x="365" y="31" type="line"/>
      <point x="305" y="31" type="line"/>
      <point x="287" y="-100" type="line"/>
    </contour>
    <contour>
      <point x="308" y="-167" type="move" name="below"/>
    </contour>
    <contour>
      <point x="454" y="869" type="move" name="accent"/>
    </contour>
    <contour>
      <point x="479" y="1049" type="move" name="above"/>
    </contour>
    <contour>
      <point x="381" y="350" type="move" name="slash"/>
    </contour>
    <contour>
      <point x="329" y="-18" type="move" name="bottom"/>
    </contour>
  </outline>
</glyph>
<glyph name="Be-cy" format="1">
  <advance width="838"/>
  <unicode hex="0411"/>
  <outline>
    <contour>
      <point x="488" y="0" type="line" smooth="yes"/>
      <point x="614" y="0"/>
      <point x="727" y="107"/>
      <point x="727" y="235" type="curve" smooth="yes"/>
      <point x="727" y="338"/>
      <point x="650" y="418"/>
      <point x="544" y="418" type="curve" smooth="yes"/>
      <point x="147" y="418" type="line"/>
      <point x="138" y="358" type="line"/>
      <point x="539" y="358" type="line" smooth="yes"/>
      <point x="615" y="358"/>
      <point x="667" y="304"/>
      <point x="667" y="233" type="curve" smooth="yes"/>
      <point x="667" y="140"/>
      <point x="583" y="60"/>
      <point x="493" y="60" type="curve" smooth="yes"/>
      <point x="225" y="60" type="line" smooth="yes"/>
      <point x="164" y="60"/>
      <point x="138" y="80"/>
      <point x="138" y="130" type="curve" smooth="yes"/>
      <point x="138" y="139"/>
      <point x="139" y="148"/>
      <point x="140" y="158" type="curve" smooth="yes"/>
      <point x="193" y="535" type="line" smooth="yes"/>
      <point x="202" y="600"/>
      <point x="247" y="640"/>
      <point x="312" y="640" type="curve" smooth="yes"/>
      <point x="661" y="640" type="line"/>
      <point x="669" y="700" type="line"/>
      <point x="318" y="700" type="line" smooth="yes"/>
      <point x="220" y="700"/>
      <point x="147" y="637"/>
      <point x="134" y="539" type="curve" smooth="yes"/>
      <point x="81" y="162" type="line" smooth="yes"/>
      <point x="79" y="150"/>
      <point x="78" y="138"/>
      <point x="78" y="128" type="curve" smooth="yes"/>
      <point x="78" y="45"/>
      <point x="128" y="0"/>
      <point x="220" y="0" type="curve" smooth="yes"/>
    </contour>
  </outline>
</glyph>
<glyph name="Ge-cy" format="1">
  <advance width="694"/>
  <unicode hex="0413"/>
  <outline>
    <contour>
      <point x="227" y="700" type="line" smooth="yes"/>
      <point x="174" y="700"/>
      <point x="131" y="663"/>
      <point x="124" y="610" type="curve" smooth="yes"/>
      <point x="38" y="0" type="line"/>
      <point x="98" y="0" type="line"/>
      <point x="183" y="607" type="line" smooth="yes"/>
      <point x="186" y="624"/>
      <point x="203" y="640"/>
      <point x="220" y="640" type="curve" smooth="yes"/>
      <point x="702" y="640" type="line"/>
      <point x="710" y="700" type="line"/>
    </contour>
    <contour>
      <point x="476" y="1079" type="move" name="above"/>
    </contour>
    <contour>
      <point x="301" y="-167" type="move" name="below"/>
    </contour>
    <contour>
      <point x="447" y="869" type="move" name="accent"/>
    </contour>
  </outline>
</glyph>
<glyph name="De-cy" format="1">
  <advance width="817"/>
  <unicode hex="0414"/>
  <outline>
    <contour>
      <point x="276" y="700"/>
      <point x="233" y="663"/>
      <point x="226" y="610" type="curve" smooth="yes"/>
      <point x="183" y="307" type="line" smooth="yes"/>
      <point x="168" y="198"/>
      <point x="128" y="123"/>
      <point x="40" y="46" type="curve"/>
      <point x="74" y="-1" type="line"/>
      <point x="174" y="86"/>
      <point x="225" y="179"/>
      <point x="242" y="303" type="curve" smooth="yes"/>
      <point x="285" y="607" type="line" smooth="yes"/>
      <point x="288" y="624"/>
      <point x="305" y="640"/>
      <point x="322" y="640" type="curve" smooth="yes"/>
      <point x="655" y="640" type="line" smooth="yes"/>
      <point x="672" y="640"/>
      <point x="683" y="628"/>
      <point x="681" y="611" type="curve" smooth="yes"/>
      <point x="595" y="0" type="line"/>
      <point x="655" y="0" type="line"/>
      <point x="740" y="606" type="line" smooth="yes"/>
      <point x="741" y="611"/>
      <point x="741" y="615"/>
      <point x="741" y="620" type="curve" smooth="yes"/>
      <point x="741" y="666"/>
      <point x="708" y="700"/>
      <point x="660" y="700" type="curve" smooth="yes"/>
      <point x="329" y="700" type="line" smooth="yes"/>
    </contour>
    <contour>
      <point x="46" y="60"/>
      <point x="24" y="41"/>
      <point x="18" y="2" type="curve" smooth="yes"/>
      <point x="4" y="-100" type="line"/>
      <point x="64" y="-100" type="line"/>
      <point x="77" y="0" type="line"/>
      <point x="654" y="0" type="line"/>
      <point x="641" y="-100" type="line"/>
      <point x="701" y="-100" type="line"/>
      <point x="715" y="-4" type="line" smooth="yes"/>
      <point x="716" y="2"/>
      <point x="716" y="6"/>
      <point x="716" y="10" type="curve" smooth="yes"/>
      <point x="716" y="42"/>
      <point x="697" y="60"/>
      <point x="662" y="60" type="curve" smooth="yes"/>
      <point x="85" y="60" type="line" smooth="yes"/>
    </contour>
  </outline>
</glyph>
<glyph name="Ie-cy" format="1">
  <advance width="745"/>
  <unicode hex="0415"/>
  <outline>
    <contour>
      <point x="106" y="60" type="line"/>
      <point x="188" y="640" type="line"/>
      <point x="713" y="640" type="line"/>
      <point x="721" y="700" type="line"/>
      <point x="195" y="700" type="line" smooth="yes"/>
      <point x="156" y="700"/>
      <point x="134" y="681"/>
      <point x="128" y="642" type="curve" smooth="yes"/>
      <point x="47" y="62" type="line" smooth="yes"/>
      <point x="46" y="57"/>
      <point x="46" y="53"/>
      <point x="46" y="49" type="curve" smooth="yes"/>
      <point x="46" y="18"/>
      <point x="66" y="0"/>
      <point x="100" y="0" type="curve" smooth="yes"/>
      <point x="623" y="0" type="line"/>
      <point x="631" y="60" type="line"/>
    </contour>
    <contour>
      <point x="121" y="380" type="line"/>
      <point x="113" y="320" type="line"/>
      <point x="506" y="320" type="line"/>
      <point x="514" y="380" type="line"/>
    </contour>
    <contour>
      <point x="307" y="-167" type="move" name="below"/>
    </contour>
    <contour>
      <point x="453" y="869" type="move" name="accent"/>
    </contour>
    <contour>
      <point x="482" y="1079" type="move" name="above"/>
    </contour>
    <contour>
      <point x="331" y="8" type="move" name="bottom"/>
    </contour>
  </outline>
</glyph>
<glyph name="Zhe-cy" format="1">
  <advance width="904"/>
  <unicode hex="0416"/>
  <outline>
    <contour>
      <point x="801" y="0" type="line"/>
      <point x="624" y="275" type="line" smooth="yes"/>
      <point x="613" y="293"/>
      <point x="608" y="312"/>
      <point x="608" y="330" type="curve" smooth="yes"/>
      <point x="608" y="364"/>
      <point x="622" y="396"/>
      <point x="646" y="424" type="curve" smooth="yes"/>
      <point x="896" y="700" type="line"/>
      <point x="820" y="700" type="line"/>
      <point x="601" y="462" type="line" smooth="yes"/>
      <point x="564" y="422"/>
      <point x="548" y="374"/>
      <point x="548" y="330" type="curve" smooth="yes"/>
      <point x="548" y="298"/>
      <point x="557" y="268"/>
      <point x="574" y="241" type="curve" smooth="yes"/>
      <point x="726" y="0" type="line"/>
    </contour>
    <contour>
      <point x="98" y="0" type="line"/>
      <point x="317" y="238" type="line" smooth="yes"/>
      <point x="354" y="279"/>
      <point x="370" y="327"/>
      <point x="370" y="372" type="curve" smooth="yes"/>
      <point x="370" y="402"/>
      <point x="361" y="432"/>
      <point x="344" y="459" type="curve" smooth="yes"/>
      <point x="192" y="700" type="line"/>
      <point x="117" y="700" type="line"/>
      <point x="294" y="425" type="line" smooth="yes"/>
      <point x="305" y="407"/>
      <point x="310" y="388"/>
      <point x="310" y="370" type="curve" smooth="yes"/>
      <point x="310" y="336"/>
      <point x="296" y="304"/>
      <point x="272" y="276" type="curve" smooth="yes"/>
      <point x="22" y="0" type="line"/>
    </contour>
    <contour>
      <point x="440" y="0" type="line"/>
      <point x="538" y="700" type="line"/>
      <point x="478" y="700" type="line"/>
      <point x="380" y="0" type="line"/>
    </contour>
    <contour>
      <point x="578" y="321" type="line"/>
      <point x="586" y="381" type="line"/>
      <point x="340" y="381" type="line"/>
      <point x="332" y="321" type="line"/>
    </contour>
    <contour>
      <point x="533" y="869" type="move" name="accent"/>
    </contour>
  </outline>
</glyph>
<glyph name="Ze-cy" format="1">
  <advance width="801"/>
  <unicode hex="0417"/>
  <outline>
    <contour>
      <point x="491" y="0" type="line" smooth="yes"/>
      <point x="605" y="0"/>
      <point x="707" y="96"/>
      <point x="707" y="218" type="curve" smooth="yes"/>
      <point x="707" y="295"/>
      <point x="664" y="355"/>
      <point x="592" y="374" type="curve"/>
      <point x="597" y="346" type="line"/>
      <point x="665" y="383"/>
      <point x="712" y="455"/>
      <point x="712" y="534" type="curve" smooth="yes"/>
      <point x="712" y="627"/>
      <point x="642" y="700"/>
      <point x="546" y="700" type="curve" smooth="yes"/>
      <point x="322" y="700" type="line" smooth="yes"/>
      <point x="256" y="700"/>
      <point x="195" y="668"/>
      <point x="154" y="617" type="curve"/>
      <point x="200" y="582" type="line"/>
      <point x="228" y="617"/>
      <point x="271" y="640"/>
      <point x="316" y="640" type="curve" smooth="yes"/>
      <point x="540" y="640" type="line" smooth="yes"/>
      <point x="606" y="640"/>
      <point x="652" y="593"/>
      <point x="652" y="531" type="curve" smooth="yes"/>
      <point x="652" y="450"/>
      <point x="579" y="380"/>
      <point x="501" y="380" type="curve" smooth="yes"/>
      <point x="238" y="380" type="line"/>
      <point x="230" y="320" type="line"/>
      <point x="535" y="320" type="line" smooth="yes"/>
      <point x="601" y="320"/>
      <point x="647" y="273"/>
      <point x="647" y="211" type="curve" smooth="yes"/>
      <point x="647" y="130"/>
      <point x="574" y="60"/>
      <point x="496" y="60" type="curve" smooth="yes"/>
      <point x="202" y="60" type="line" smooth="yes"/>
      <point x="157" y="60"/>
      <point x="121" y="82"/>
      <point x="102" y="116" type="curve"/>
      <point x="50" y="85" type="line"/>
      <point x="78" y="34"/>
      <point x="131" y="0"/>
      <point x="197" y="0" type="curve" smooth="yes"/>
    </contour>
    <contour>
      <point x="308" y="-167" type="move" name="below"/>
    </contour>
    <contour>
      <point x="454" y="869" type="move" name="accent"/>
    </contour>
    <contour>
      <point x="479" y="1049" type="move" name="above"/>
    </contour>
    <contour>
      <point x="381" y="350" type="move" name="slash"/>
    </contour>
    <contour>
      <point x="333" y="8" type="move" name="bottom"/>
    </contour>
  </outline>
</glyph>
<glyph name="Ii-cy" format="1">
  <advance width="818"/>
  <unicode hex="0418"/>
  <outline>
    <contour>
      <point x="144" y="-16"/>
      <point x="189" y="8"/>
      <point x="219" y="47" type="curve" smooth="yes"/>
      <point x="659" y="619" type="line" smooth="yes"/>
      <point x="676" y="642"/>
      <point x="700" y="654"/>
      <point x="729" y="654" type="curve" smooth="yes"/>
      <point x="735" y="654"/>
      <point x="742" y="653"/>
      <point x="749" y="652" type="curve"/>
      <point x="732" y="681" type="line"/>
      <point x="636" y="0" type="line"/>
      <point x="696" y="0" type="line"/>
      <point x="788" y="654" type="line" smooth="yes"/>
      <point x="789" y="658"/>
      <point x="789" y="663"/>
      <point x="789" y="667" type="curve" smooth="yes"/>
      <point x="789" y="698"/>
      <point x="772" y="714"/>
      <point x="737" y="714" type="curve" smooth="yes"/>
      <point x="689" y="714"/>
      <point x="644" y="690"/>
      <point x="614" y="651" type="curve" smooth="yes"/>
      <point x="173" y="79" type="line" smooth="yes"/>
      <point x="156" y="56"/>
      <point x="132" y="44"/>
      <point x="104" y="44" type="curve" smooth="yes"/>
      <point x="98" y="44"/>
      <point x="91" y="45"/>
      <point x="84" y="46" type="curve"/>
      <point x="101" y="17" type="line"/>
      <point x="197" y="700" type="line"/>
      <point x="137" y="700" type="line"/>
      <point x="44" y="44" type="line" smooth="yes"/>
      <point x="43" y="39"/>
      <point x="43" y="35"/>
      <point x="43" y="31" type="curve" smooth="yes"/>
      <point x="43" y="0"/>
      <point x="62" y="-16"/>
      <point x="96" y="-16" type="curve" smooth="yes"/>
    </contour>
    <contour>
      <point x="487" y="869" type="move" name="accent"/>
    </contour>
  </outline>
</glyph>
<glyph name="Ka-cy" format="1">
  <advance width="683"/>
  <unicode hex="041A"/>
  <outline>
    <contour>
      <point x="580" y="0" type="line"/>
      <point x="270" y="308" type="line" smooth="yes"/>
      <point x="261" y="318"/>
      <point x="257" y="329"/>
      <point x="257" y="341" type="curve" smooth="yes"/>
      <point x="257" y="359"/>
      <point x="267" y="376"/>
      <point x="285" y="390" type="curve" smooth="yes"/>
      <point x="680" y="700" type="line"/>
      <point x="587" y="700" type="line"/>
      <point x="249" y="438" type="line" smooth="yes"/>
      <point x="215" y="411"/>
      <point x="196" y="376"/>
      <point x="196" y="340" type="curve" smooth="yes"/>
      <point x="196" y="312"/>
      <point x="207" y="285"/>
      <point x="227" y="264" type="curve" smooth="yes"/>
      <point x="489" y="0" type="line"/>
    </contour>
    <contour>
      <point x="98" y="0" type="line"/>
      <point x="196" y="700" type="line"/>
      <point x="136" y="700" type="line"/>
      <point x="38" y="0" type="line"/>
    </contour>
    <contour>
      <point x="268" y="-167" type="move" name="below"/>
    </contour>
    <contour>
      <point x="414" y="869" type="move" name="accent"/>
    </contour>
    <contour>
      <point x="439" y="1049" type="move" name="above"/>
    </contour>
    <contour>
      <point x="341" y="350" type="move" name="slash"/>
    </contour>
    <contour>
      <point x="289" y="-18" type="move" name="bottom"/>
    </contour>
  </outline>
</glyph>
<glyph name="El-cy" format="1">
  <advance width="762"/>
  <unicode hex="041B"/>
  <outline>
    <contour>
      <point x="-13" y="0" type="line" smooth="yes"/>
      <point x="117" y="0"/>
      <point x="194" y="70"/>
      <point x="213" y="200" type="curve" smooth="yes"/>
      <point x="270" y="607" type="line"/>
      <point x="273" y="624"/>
      <point x="290" y="640"/>
      <point x="307" y="640" type="curve" smooth="yes"/>
      <point x="640" y="640" type="line" smooth="yes"/>
      <point x="657" y="640"/>
      <point x="668" y="628"/>
      <point x="666" y="611" type="curve" smooth="yes"/>
      <point x="580" y="0" type="line"/>
      <point x="640" y="0" type="line"/>
      <point x="725" y="606" type="line" smooth="yes"/>
      <point x="726" y="611"/>
      <point x="726" y="615"/>
      <point x="726" y="620" type="curve" smooth="yes"/>
      <point x="726" y="666"/>
      <point x="693" y="700"/>
      <point x="645" y="700" type="curve" smooth="yes"/>
      <point x="314" y="700" type="line" smooth="yes"/>
      <point x="261" y="700"/>
      <point x="219" y="663"/>
      <point x="211" y="610" type="curve" smooth="yes"/>
      <point x="153" y="202" type="line" smooth="yes"/>
      <point x="140" y="105"/>
      <point x="88" y="60"/>
      <point x="-8" y="60" type="curve" smooth="yes"/>
      <point x="-14" y="60" type="line"/>
      <point x="-22" y="0" type="line"/>
    </contour>
  </outline>
</glyph>
<glyph name="Em-cy" format="1">
  <advance width="1020"/>
  <unicode hex="041C"/>
  <outline>
    <contour>
      <point x="736" y="727"/>
      <point x="668" y="688"/>
      <point x="647" y="608" type="curve" smooth="yes"/>
      <point x="495" y="54" type="line" smooth="yes"/>
      <point x="493" y="43"/>
      <point x="481" y="35"/>
      <point x="470" y="35" type="curve" smooth="yes"/>
      <point x="463" y="35"/>
      <point x="456" y="39"/>
      <point x="456" y="50" type="curve" smooth="yes"/>
      <point x="458" y="604" type="line" smooth="yes"/>
      <point x="460" y="684"/>
      <point x="400" y="726"/>
      <point x="335" y="726" type="curve" smooth="yes"/>
      <point x="272" y="726"/>
      <point x="204" y="688"/>
      <point x="182" y="607" type="curve" smooth="yes"/>
      <point x="18" y="0" type="line"/>
      <point x="78" y="0" type="line"/>
      <point x="240" y="595" type="line" smooth="yes"/>
      <point x="253" y="642"/>
      <point x="294" y="667"/>
      <point x="333" y="667" type="curve" smooth="yes"/>
      <point x="367" y="667"/>
      <point x="400" y="646"/>
      <point x="399" y="600" type="curve" smooth="yes"/>
      <point x="396" y="46" type="line" smooth="yes"/>
      <point x="396" y="0"/>
      <point x="430" y="-25"/>
      <point x="469" y="-25" type="curve" smooth="yes"/>
      <point x="503" y="-25"/>
      <point x="542" y="-4"/>
      <point x="554" y="42" type="curve" smooth="yes"/>
      <point x="705" y="596" type="line" smooth="yes"/>
      <point x="717" y="642"/>
      <point x="759" y="667"/>
      <point x="798" y="667" type="curve" smooth="yes"/>
      <point x="832" y="667"/>
      <point x="865" y="646"/>
      <point x="864" y="599" type="curve" smooth="yes"/>
      <point x="858" y="0" type="line"/>
      <point x="918" y="0" type="line"/>
      <point x="923" y="603" type="line" smooth="yes"/>
      <point x="924" y="684"/>
      <point x="864" y="727"/>
      <point x="799" y="727" type="curve" smooth="yes"/>
    </contour>
  </outline>
</glyph>
<glyph name="En-cy" format="1">
  <advance width="745"/>
  <unicode hex="041D"/>
  <outline>
    <contour>
      <point x="661" y="700" type="line"/>
      <point x="563" y="0" type="line"/>
      <point x="623" y="0" type="line"/>
      <point x="721" y="700" type="line"/>
    </contour>
    <contour>
      <point x="136" y="700" type="line"/>
      <point x="38" y="0" type="line"/>
      <point x="98" y="0" type="line"/>
      <point x="196" y="700" type="line"/>
    </contour>
    <contour>
      <point x="121" y="380" type="line"/>
      <point x="113" y="320" type="line"/>
      <point x="641" y="320" type="line"/>
      <point x="649" y="380" type="line"/>
    </contour>
    <contour>
      <point x="308" y="-167" type="move" name="below"/>
    </contour>
    <contour>
      <point x="408" y="542" type="move" name="bar"/>
    </contour>
    <contour>
      <point x="454" y="869" type="move" name="accent"/>
    </contour>
    <contour>
      <point x="479" y="1049" type="move" name="above"/>
    </contour>
    <contour>
      <point x="381" y="350" type="move" name="slash"/>
    </contour>
    <contour>
      <point x="329" y="-18" type="move" name="bottom"/>
    </contour>
  </outline>
</glyph>
<glyph name="O-cy" format="1">
  <advance width="863"/>
  <unicode hex="041E"/>
  <outline>
    <contour>
      <point x="262" y="725"/>
      <point x="63" y="523"/>
      <point x="63" y="300" type="curve" smooth="yes"/>
      <point x="63" y="117"/>
      <point x="200" y="-25"/>
      <point x="389" y="-25" type="curve" smooth="yes"/>
      <point x="615" y="-25"/>
      <point x="814" y="176"/>
      <point x="814" y="400" type="curve" smooth="yes"/>
      <point x="814" y="583"/>
      <point x="677" y="725"/>
      <point x="487" y="725" type="curve" smooth="yes"/>
    </contour>
    <contour>
      <point x="643" y="665"/>
      <point x="754" y="550"/>
      <point x="754" y="399" type="curve" smooth="yes"/>
      <point x="754" y="206"/>
      <point x="583" y="35"/>
      <point x="390" y="35" type="curve" smooth="yes"/>
      <point x="234" y="35"/>
      <point x="123" y="150"/>
      <point x="123" y="301" type="curve" smooth="yes"/>
      <point x="123" y="494"/>
      <point x="293" y="665"/>
      <point x="486" y="665" type="curve" smooth="yes"/>
    </contour>
    <contour>
      <point x="369" y="-167" type="move" name="below"/>
    </contour>
    <contour>
      <point x="515" y="869" type="move" name="accent"/>
    </contour>
    <contour>
      <point x="547" y="1079" type="move" name="above"/>
    </contour>
    <contour>
      <point x="442" y="350" type="move" name="slash"/>
    </contour>
    <contour>
      <point x="390" y="-18" type="move" name="bottom"/>
    </contour>
  </outline>
</glyph>
<glyph name="Pe-cy" format="1">
  <advance width="745"/>
  <unicode hex="041F"/>
  <outline>
    <contour>
      <point x="227" y="700" type="line" smooth="yes"/>
      <point x="174" y="700"/>
      <point x="131" y="663"/>
      <point x="124" y="610" type="curve" smooth="yes"/>
      <point x="38" y="0" type="line"/>
      <point x="98" y="0" type="line"/>
      <point x="183" y="607" type="line"/>
      <point x="186" y="624"/>
      <point x="203" y="640"/>
      <point x="220" y="640" type="curve" smooth="yes"/>
      <point x="623" y="640" type="line" smooth="yes"/>
      <point x="640" y="640"/>
      <point x="651" y="628"/>
      <point x="649" y="611" type="curve" smooth="yes"/>
      <point x="563" y="0" type="line"/>
      <point x="623" y="0" type="line"/>
      <point x="708" y="606" type="line" smooth="yes"/>
      <point x="709" y="611"/>
      <point x="709" y="615"/>
      <point x="709" y="620" type="curve" smooth="yes"/>
      <point x="709" y="666"/>
      <point x="676" y="700"/>
      <point x="628" y="700" type="curve" smooth="yes"/>
    </contour>
  </outline>
</glyph>
<glyph name="Er-cy" format="1">
  <advance width="735"/>
  <unicode hex="0420"/>
  <outline>
    <contour>
      <point x="194" y="699" type="line" smooth="yes"/>
      <point x="155" y="699"/>
      <point x="133" y="680"/>
      <point x="128" y="641" type="curve" smooth="yes"/>
      <point x="38" y="-1" type="line"/>
      <point x="98" y="-1" type="line"/>
      <point x="188" y="639" type="line"/>
      <point x="549" y="639" type="line" smooth="yes"/>
      <point x="607" y="639"/>
      <point x="648" y="598"/>
      <point x="648" y="543" type="curve" smooth="yes"/>
      <point x="648" y="472"/>
      <point x="583" y="409"/>
      <point x="514" y="409" type="curve" smooth="yes"/>
      <point x="126" y="409" type="line"/>
      <point x="118" y="349" type="line"/>
      <point x="509" y="349" type="line" smooth="yes"/>
      <point x="614" y="349"/>
      <point x="708" y="440"/>
      <point x="708" y="546" type="curve" smooth="yes"/>
      <point x="708" y="632"/>
      <point x="643" y="699"/>
      <point x="554" y="699" type="curve" smooth="yes"/>
    </contour>
  </outline>
</glyph>
<glyph name="Te-cy" format="1">
  <advance width="700"/>
  <unicode hex="0422"/>
  <outline>
    <contour>
      <point x="338" y="0" type="line"/>
      <point x="432" y="670" type="line"/>
      <point x="372" y="670" type="line"/>
      <point x="278" y="0" type="line"/>
    </contour>
    <contour>
      <point x="708" y="640" type="line"/>
      <point x="716" y="700" type="line"/>
      <point x="96" y="700" type="line"/>
      <point x="88" y="640" type="line"/>
    </contour>
    <contour>
      <point x="285" y="-167" type="move" name="below"/>
    </contour>
    <contour>
      <point x="363" y="391" type="move" name="bar"/>
    </contour>
    <contour>
      <point x="431" y="869" type="move" name="accent"/>
    </contour>
    <contour>
      <point x="358" y="350" type="move" name="slash"/>
    </contour>
    <contour>
      <point x="363" y="391" type="move" name="stroke"/>
    </contour>
    <contour>
      <point x="306" y="-18" type="move" name="bottom"/>
    </contour>
  </outline>
</glyph>
<glyph name="U-cy" format="1">
  <advance width="766"/>
  <unicode hex="0423"/>
  <outline>
    <contour>
      <point x="682" y="700" type="line"/>
      <point x="625" y="294" type="line" smooth="yes"/>
      <point x="607" y="166"/>
      <point x="487" y="60"/>
      <point x="359" y="60" type="curve" smooth="yes"/>
      <point x="50" y="60" type="line"/>
      <point x="42" y="0" type="line"/>
      <point x="354" y="0" type="line" smooth="yes"/>
      <point x="515" y="0"/>
      <point x="662" y="129"/>
      <point x="685" y="290" type="curve" smooth="yes"/>
      <point x="742" y="700" type="line"/>
    </contour>
    <contour>
      <point x="141" y="700" type="line"/>
      <point x="119" y="605"/>
      <point x="120" y="576"/>
      <point x="120" y="547" type="curve" smooth="yes"/>
      <point x="120" y="424"/>
      <point x="183" y="338"/>
      <point x="302" y="298" type="curve" smooth="yes"/>
      <point x="609" y="192" type="line"/>
      <point x="636" y="249" type="line"/>
      <point x="326" y="353" type="line" smooth="yes"/>
      <point x="228" y="386"/>
      <point x="180" y="449"/>
      <point x="180" y="547" type="curve" smooth="yes"/>
      <point x="180" y="570"/>
      <point x="179" y="599"/>
      <point x="201" y="700" type="curve"/>
    </contour>
    <contour>
      <point x="317" y="-167" type="move" name="below"/>
    </contour>
    <contour>
      <point x="463" y="869" type="move" name="accent"/>
    </contour>
    <contour>
      <point x="490" y="1049" type="move" name="above"/>
    </contour>
    <contour>
      <point x="390" y="350" type="move" name="slash"/>
    </contour>
    <contour>
      <point x="338" y="-18" type="move" name="bottom"/>
    </contour>
  </outline>
</glyph>
<glyph name="Ef-cy" format="1">
  <advance width="798"/>
  <unicode hex="0424"/>
  <outline>
    <contour>
      <point x="470" y="107" type="line" smooth="yes"/>
      <point x="614" y="107"/>
      <point x="747" y="232"/>
      <point x="747" y="381" type="curve" smooth="yes"/>
      <point x="747" y="500"/>
      <point x="657" y="593"/>
      <point x="534" y="593" type="curve" smooth="yes"/>
      <point x="344" y="593" type="line" smooth="yes"/>
      <point x="200" y="593"/>
      <point x="65" y="469"/>
      <point x="65" y="319" type="curve" smooth="yes"/>
      <point x="65" y="200"/>
      <point x="155" y="107"/>
      <point x="278" y="107" type="curve" smooth="yes"/>
    </contour>
    <contour>
      <point x="191" y="167"/>
      <point x="125" y="234"/>
      <point x="125" y="321" type="curve" smooth="yes"/>
      <point x="125" y="435"/>
      <point x="228" y="533"/>
      <point x="338" y="533" type="curve" smooth="yes"/>
      <point x="528" y="533" type="line" smooth="yes"/>
      <point x="620" y="533"/>
      <point x="687" y="465"/>
      <point x="687" y="378" type="curve" smooth="yes"/>
      <point x="687" y="265"/>
      <point x="584" y="167"/>
      <point x="475" y="167" type="curve" smooth="yes"/>
      <point x="283" y="167" type="line" smooth="yes"/>
    </contour>
    <contour>
      <point x="387" y="0" type="line"/>
      <point x="485" y="700" type="line"/>
      <point x="425" y="700" type="line"/>
      <point x="327" y="0" type="line"/>
    </contour>
    <contour>
      <point x="333" y="-167" type="move" name="below"/>
    </contour>
    <contour>
      <point x="479" y="869" type="move" name="accent"/>
    </contour>
    <contour>
      <point x="504" y="1049" type="move" name="above"/>
    </contour>
    <contour>
      <point x="406" y="350" type="move" name="slash"/>
    </contour>
    <contour>
      <point x="354" y="-18" type="move" name="bottom"/>
    </contour>
  </outline>
</glyph>
<glyph name="Ha-cy" format="1">
  <advance width="760"/>
  <unicode hex="0425"/>
  <outline>
    <contour>
      <point x="195" y="691"/>
      <point x="194" y="681"/>
      <point x="194" y="672" type="curve" smooth="yes"/>
      <point x="194" y="629"/>
      <point x="202" y="592"/>
      <point x="232" y="560" type="curve"/>
      <point x="593" y="176" type="line"/>
      <point x="624" y="143"/>
      <point x="641" y="97"/>
      <point x="641" y="40" type="curve" smooth="yes"/>
      <point x="641" y="27"/>
      <point x="640" y="14"/>
      <point x="638" y="0" type="curve"/>
      <point x="578" y="0" type="line"/>
      <point x="579" y="9"/>
      <point x="580" y="19"/>
      <point x="580" y="28" type="curve" smooth="yes"/>
      <point x="580" y="72"/>
      <point x="566" y="115"/>
      <point x="543" y="140" type="curve"/>
      <point x="181" y="524" type="line"/>
      <point x="150" y="557"/>
      <point x="133" y="603"/>
      <point x="133" y="660" type="curve" smooth="yes"/>
      <point x="133" y="673"/>
      <point x="134" y="686"/>
      <point x="136" y="700" type="curve"/>
      <point x="196" y="700" type="line"/>
    </contour>
    <contour>
      <point x="727" y="632"/>
      <point x="688" y="562"/>
      <point x="638" y="521" type="curve"/>
      <point x="168" y="137" type="line"/>
      <point x="132" y="107"/>
      <point x="106" y="59"/>
      <point x="98" y="0" type="curve"/>
      <point x="38" y="0" type="line"/>
      <point x="47" y="68"/>
      <point x="86" y="138"/>
      <point x="136" y="179" type="curve"/>
      <point x="606" y="563" type="line"/>
      <point x="642" y="593"/>
      <point x="668" y="641"/>
      <point x="676" y="700" type="curve"/>
      <point x="736" y="700" type="line"/>
    </contour>
    <contour>
      <point x="315" y="-167" type="move" name="below"/>
    </contour>
    <contour>
      <point x="461" y="869" type="move" name="accent"/>
    </contour>
    <contour>
      <point x="486" y="1049" type="move" name="above"/>
    </contour>
    <contour>
      <point x="388" y="350" type="move" name="slash"/>
    </contour>
    <contour>
      <point x="336" y="-18" type="move" name="bottom"/>
    </contour>
  </outline>
</glyph>
